# This file uses centimeters as units for non-parametric coordinates.

mtllib car.mtl
g default
v -1.189250 0.602361 2.216008
v 0.941605 0.602361 2.216008
v -1.189250 1.419585 2.216008
v 0.941605 1.419585 2.216008
v -1.189250 1.419585 -2.619678
v 0.941605 1.419585 -2.619678
v -1.189250 0.602361 -2.619678
v 0.941605 0.602361 -2.619678
v -1.189250 1.419585 -1.145596
v -1.189250 0.602361 -1.145596
v 0.941605 0.602361 -1.145596
v 0.941605 1.419585 -1.145596
v -1.189250 1.419585 0.915915
v -1.189250 0.602361 0.915915
v 0.941605 0.602361 0.915915
v 0.941605 1.419585 0.915915
v 0.941605 2.310408 0.915915
v -1.189250 2.310408 0.915915
v 0.941605 2.310408 -1.145596
v -1.189250 2.310408 -1.145596
v -1.078462 0.602361 2.216008
v -1.078462 1.419585 2.216008
v -1.078462 1.419585 0.915915
v -1.078462 2.310408 0.915915
v -1.078462 2.310408 -1.145596
v -1.078462 1.419585 -1.145596
v -1.078462 1.419585 -2.619678
v -1.078462 0.602361 -2.619678
v -1.078462 0.602361 -1.145596
v -1.078462 0.602361 0.915915
v 0.870419 1.419585 -1.145596
v 0.870419 2.310408 -1.145596
v 0.870419 2.310408 0.915915
v 0.870419 1.419585 0.915915
v 0.870419 1.419585 2.216008
v 0.870419 0.602361 2.216008
v 0.870419 0.602361 0.915915
v 0.870419 0.602361 -1.145596
v 0.870419 0.602361 -2.619678
v 0.870419 1.419585 -2.619678
v -1.189250 0.602361 -1.863164
v -1.189250 1.419585 -1.863164
v -1.078462 1.419585 -1.863164
v 0.870419 1.419585 -1.863164
v 0.941605 1.419585 -1.863164
v 0.941605 0.602361 -1.863164
v 0.870419 0.602361 -1.863164
v -1.078462 0.602361 -1.863164
v -1.189250 1.419585 1.579924
v -1.189250 0.602361 1.579924
v -1.078462 0.602361 1.579924
v 0.870419 0.602361 1.579924
v 0.941605 0.602361 1.579924
v 0.941605 1.419585 1.579924
v 0.870419 1.419585 1.579924
v -1.078462 1.419585 1.579924
v -0.762347 0.602361 2.216008
v -0.762347 1.419585 2.216008
v -0.762347 1.419585 1.579924
v -0.762347 1.419585 0.915915
v -0.762347 2.310408 0.915915
v -0.762347 2.310408 -1.145596
v -0.762347 1.419585 -1.145596
v -0.762347 1.419585 -1.863164
v -0.762347 1.419585 -2.619678
v -0.762347 0.602361 -2.619678
v -0.762347 0.602361 -1.863164
v -0.762347 0.602361 -1.145596
v -0.762347 0.602361 0.915915
v -0.762347 0.602361 1.579924
v 0.504964 1.419585 -1.145596
v 0.504964 2.310408 -1.145596
v 0.504964 2.310408 0.915915
v 0.504964 1.419585 0.915915
v 0.504964 1.419585 1.579924
v 0.504964 1.419585 2.216008
v 0.504964 0.602361 2.216008
v 0.504964 0.602361 1.579924
v 0.504964 0.602361 0.915915
v 0.504964 0.602361 -1.145596
v 0.504964 0.602361 -1.863164
v 0.504964 0.602361 -2.619678
v 0.504964 1.419585 -2.619678
v 0.504964 1.419585 -1.863164
v -1.078462 -0.036314 -1.863164
v -1.078462 -0.036314 -1.145596
v -0.762347 -0.036314 -1.863164
v -0.762347 -0.036314 -1.145596
v -0.762347 -0.036314 0.915915
v -0.762347 -0.036314 1.579924
v -1.078462 -0.036314 1.579924
v -1.078462 -0.036314 0.915915
v 0.504964 -0.036313 -1.145596
v 0.504964 -0.036313 -1.863164
v 0.870419 -0.036313 -1.863164
v 0.870419 -0.036313 -1.145596
v 0.504964 -0.036313 1.579924
v 0.870419 -0.036313 1.579924
v 0.504964 -0.036313 0.915915
v 0.870419 -0.036313 0.915915
vt 0.422905 0.004197
vt 0.434062 0.004197
vt 0.434062 0.089019
vt 0.422905 0.089019
vt 0.445710 0.004197
vt 0.445710 0.089019
vt 0.481870 0.004197
vt 0.481870 0.089019
vt 0.494457 0.004197
vt 0.494457 0.089019
vt 0.481870 0.181481
vt 0.445710 0.181481
vt 0.507727 0.004197
vt 0.507727 0.089019
vt 0.584467 0.089019
vt 0.584467 0.004197
vt 0.595624 0.004197
vt 0.595624 0.089019
vt 0.572819 0.089019
vt 0.572819 0.004197
vt 0.536659 0.089019
vt 0.536659 0.004197
vt 0.524072 0.089019
vt 0.524072 0.004197
vt 0.572819 0.181481
vt 0.536659 0.181481
vt 0.510802 0.004197
vt 0.510802 0.089019
vt 0.710903 0.837344
vt 0.698316 0.837344
vt 0.698316 0.771054
vt 0.710903 0.771054
vt 0.919903 0.849064
vt 0.907316 0.849064
vt 0.907316 0.782773
vt 0.919903 0.782773
vt 0.858412 0.831484
vt 0.846765 0.831484
vt 0.846765 0.765194
vt 0.858412 0.765194
vt 0.618160 0.851017
vt 0.606512 0.851017
vt 0.606512 0.784727
vt 0.618160 0.784727
vt 0.648398 0.850011
vt 0.635811 0.850011
vt 0.635811 0.783721
vt 0.648398 0.783721
vt 0.681604 0.850011
vt 0.669017 0.850011
vt 0.669017 0.783721
vt 0.681604 0.783721
vt 0.696291 0.849317
vt 0.684643 0.849317
vt 0.684643 0.783027
vt 0.696291 0.783027
vt 0.840833 0.855177
vt 0.829185 0.855177
vt 0.829185 0.788887
vt 0.840833 0.788887
vt 0.698316 0.691543
vt 0.698316 0.687133
vt 0.709474 0.687133
vt 0.709474 0.691543
vt 0.698316 0.674549
vt 0.709474 0.674549
vt 0.721121 0.687133
vt 0.721121 0.691543
vt 0.698316 0.624102
vt 0.709474 0.624102
vt 0.721121 0.674549
vt 0.709474 0.609554
vt 0.698316 0.609554
vt 0.721121 0.624102
vt 0.721121 0.609554
vt 0.709474 0.606721
vt 0.698316 0.606721
vt 0.721121 0.606721
vt 0.178746 0.717756
vt 0.183156 0.717756
vt 0.183156 0.728913
vt 0.178746 0.728913
vt 0.178746 0.706109
vt 0.183156 0.706109
vt 0.195739 0.717756
vt 0.195739 0.728913
vt 0.178746 0.669948
vt 0.183156 0.669948
vt 0.246187 0.717756
vt 0.246187 0.728913
vt 0.178746 0.657361
vt 0.183156 0.657361
vt 0.195739 0.669948
vt 0.195739 0.706109
vt 0.246187 0.706109
vt 0.260734 0.717756
vt 0.260734 0.728913
vt 0.178746 0.644091
vt 0.183156 0.644091
vt 0.246187 0.669948
vt 0.263568 0.717756
vt 0.263568 0.728913
vt 0.195739 0.644091
vt 0.195739 0.657361
vt 0.246187 0.657361
vt 0.260734 0.669948
vt 0.260734 0.706109
vt 0.263568 0.706109
vt 0.246187 0.644091
vt 0.263568 0.669948
vt 0.260734 0.657361
vt 0.260734 0.644091
vt 0.263568 0.657361
vt 0.263568 0.644091
vt 0.410099 0.728914
vt 0.410099 0.724503
vt 0.423369 0.724503
vt 0.423369 0.728914
vt 0.397512 0.728914
vt 0.397512 0.724503
vt 0.410099 0.711920
vt 0.423369 0.711920
vt 0.397512 0.711920
vt 0.410099 0.661472
vt 0.423369 0.661472
vt 0.397512 0.661472
vt 0.410099 0.646925
vt 0.423369 0.646925
vt 0.397512 0.646925
vt 0.410099 0.644091
vt 0.423369 0.644091
vt 0.397512 0.644091
vt 0.266643 0.730867
vt 0.266643 0.726457
vt 0.302804 0.726457
vt 0.302804 0.730867
vt 0.266643 0.713873
vt 0.302804 0.713873
vt 0.266643 0.663426
vt 0.302804 0.663426
vt 0.266643 0.648878
vt 0.302804 0.648878
vt 0.266643 0.646045
vt 0.302804 0.646045
vt 0.893643 0.964601
vt 0.893643 0.952014
vt 0.906227 0.952014
vt 0.906227 0.964601
vt 0.243204 0.952014
vt 0.254851 0.952014
vt 0.254851 0.964597
vt 0.243204 0.964597
vt 0.585894 0.965556
vt 0.573307 0.965556
vt 0.573307 0.951008
vt 0.585894 0.951008
vt 0.440412 0.950061
vt 0.440412 0.964608
vt 0.428765 0.964608
vt 0.428765 0.950061
vt 0.430718 0.632113
vt 0.435128 0.632113
vt 0.435128 0.716935
vt 0.430718 0.716935
vt 0.447711 0.632113
vt 0.447711 0.716935
vt 0.498159 0.632113
vt 0.498159 0.716935
vt 0.512706 0.632113
vt 0.512706 0.716935
vt 0.515540 0.632113
vt 0.515540 0.716935
vt 0.518615 0.722795
vt 0.518615 0.718385
vt 0.603437 0.718385
vt 0.603437 0.722795
vt 0.518615 0.705801
vt 0.603437 0.705801
vt 0.518615 0.655354
vt 0.603437 0.655354
vt 0.518615 0.640806
vt 0.603437 0.640806
vt 0.518615 0.637973
vt 0.603437 0.637973
vt 0.280316 0.451496
vt 0.284726 0.451496
vt 0.284726 0.543957
vt 0.280316 0.543957
vt 0.297309 0.451496
vt 0.297309 0.543957
vt 0.347757 0.451496
vt 0.347757 0.543957
vt 0.362304 0.451496
vt 0.362304 0.543957
vt 0.365138 0.451496
vt 0.365138 0.543957
vt 0.372623 0.453534
vt 0.372623 0.545995
vt 0.368213 0.545995
vt 0.368213 0.453534
vt 0.385207 0.453534
vt 0.385207 0.545995
vt 0.435654 0.453534
vt 0.435654 0.545995
vt 0.450202 0.453534
vt 0.450202 0.545995
vt 0.453035 0.545995
vt 0.453035 0.453534
vt 0.983494 0.776914
vt 0.996077 0.776914
vt 0.996077 0.843204
vt 0.983494 0.843204
vt 0.935526 0.849064
vt 0.922943 0.849064
vt 0.922943 0.782773
vt 0.935526 0.782773
vt 0.951152 0.849064
vt 0.938569 0.849064
vt 0.938569 0.782773
vt 0.951152 0.782773
vt 0.620185 0.784727
vt 0.632769 0.784727
vt 0.632769 0.851017
vt 0.620185 0.851017
vt 0.651438 0.783721
vt 0.665985 0.783721
vt 0.665985 0.850011
vt 0.651438 0.850011
vt 0.874985 0.855871
vt 0.860438 0.855871
vt 0.860438 0.789581
vt 0.874985 0.789581
vt 0.892565 0.855177
vt 0.878017 0.855177
vt 0.878017 0.788887
vt 0.892565 0.788887
vt 0.760821 0.788887
vt 0.775368 0.788887
vt 0.775368 0.855177
vt 0.760821 0.855177
vn 0.000000 0.000000 1.000000
vn 0.000000 0.000000 1.000000
vn 0.000000 0.000000 1.000000
vn 0.000000 0.000000 1.000000
vn 0.000000 1.000000 0.000000
vn 0.000000 1.000000 0.000000
vn 0.000000 1.000000 0.000000
vn 0.000000 1.000000 0.000000
vn 0.000000 0.000000 -1.000000
vn 0.000000 0.000000 -1.000000
vn 0.000000 0.000000 -1.000000
vn 0.000000 0.000000 -1.000000
vn 0.000000 -1.000000 0.000000
vn 0.000000 -1.000000 0.000000
vn 0.000000 -1.000000 0.000000
vn 0.000000 -1.000000 0.000000
vn 1.000000 0.000000 0.000000
vn 1.000000 0.000000 0.000000
vn 1.000000 0.000000 0.000000
vn 1.000000 0.000000 0.000000
vn -1.000000 0.000000 0.000000
vn -1.000000 0.000000 0.000000
vn -1.000000 0.000000 0.000000
vn -1.000000 0.000000 0.000000
vn -1.000000 0.000000 0.000000
vn -1.000000 0.000000 0.000000
vn -1.000000 0.000000 0.000000
vn -1.000000 0.000000 0.000000
vn 0.000000 -1.000000 0.000000
vn 0.000000 -1.000000 0.000000
vn 0.000000 -1.000000 0.000000
vn 0.000000 -1.000000 0.000000
vn 1.000000 0.000000 0.000000
vn 1.000000 0.000000 0.000000
vn 1.000000 0.000000 0.000000
vn 1.000000 0.000000 0.000000
vn 0.000000 1.000000 0.000000
vn 0.000000 1.000000 0.000000
vn 0.000000 1.000000 0.000000
vn 0.000000 1.000000 0.000000
vn -1.000000 0.000000 0.000000
vn -1.000000 0.000000 0.000000
vn -1.000000 0.000000 0.000000
vn -1.000000 0.000000 0.000000
vn 0.000000 -1.000000 0.000000
vn 0.000000 -1.000000 0.000000
vn 0.000000 -1.000000 0.000000
vn 0.000000 -1.000000 0.000000
vn 1.000000 0.000000 0.000000
vn 1.000000 0.000000 0.000000
vn 1.000000 0.000000 0.000000
vn 1.000000 0.000000 0.000000
vn 0.000000 1.000000 0.000000
vn 0.000000 1.000000 0.000000
vn 0.000000 1.000000 0.000000
vn 0.000000 1.000000 0.000000
vn 0.000000 0.000000 1.000000
vn 0.000000 0.000000 1.000000
vn 0.000000 0.000000 1.000000
vn 0.000000 0.000000 1.000000
vn 1.000000 0.000000 0.000000
vn 1.000000 0.000000 0.000000
vn 1.000000 0.000000 0.000000
vn 1.000000 0.000000 0.000000
vn 0.000000 0.000000 -1.000000
vn 0.000000 0.000000 -1.000000
vn 0.000000 0.000000 -1.000000
vn 0.000000 0.000000 -1.000000
vn -1.000000 0.000000 0.000000
vn -1.000000 0.000000 0.000000
vn -1.000000 0.000000 0.000000
vn -1.000000 0.000000 0.000000
vn 0.000000 0.000000 1.000000
vn 0.000000 0.000000 1.000000
vn 0.000000 0.000000 1.000000
vn 0.000000 0.000000 1.000000
vn 0.000000 1.000000 0.000000
vn 0.000000 1.000000 0.000000
vn 0.000000 1.000000 0.000000
vn 0.000000 1.000000 0.000000
vn 0.000000 0.000000 1.000000
vn 0.000000 0.000000 1.000000
vn 0.000000 0.000000 1.000000
vn 0.000000 0.000000 1.000000
vn 0.000000 1.000000 0.000000
vn 0.000000 1.000000 0.000000
vn 0.000000 1.000000 0.000000
vn 0.000000 1.000000 0.000000
vn 0.000000 0.000000 -1.000000
vn 0.000000 0.000000 -1.000000
vn 0.000000 0.000000 -1.000000
vn 0.000000 0.000000 -1.000000
vn 0.000000 1.000000 0.000000
vn 0.000000 1.000000 0.000000
vn 0.000000 1.000000 0.000000
vn 0.000000 1.000000 0.000000
vn 0.000000 0.000000 -1.000000
vn 0.000000 0.000000 -1.000000
vn 0.000000 0.000000 -1.000000
vn 0.000000 0.000000 -1.000000
vn 0.000000 -1.000000 0.000000
vn 0.000000 -1.000000 0.000000
vn 0.000000 -1.000000 0.000000
vn 0.000000 -1.000000 0.000000
vn 0.000000 -1.000000 0.000000
vn 0.000000 -1.000000 0.000000
vn 0.000000 -1.000000 0.000000
vn 0.000000 -1.000000 0.000000
vn 0.000000 -1.000000 0.000000
vn 0.000000 -1.000000 0.000000
vn 0.000000 -1.000000 0.000000
vn 0.000000 -1.000000 0.000000
vn 0.000000 0.000000 -1.000000
vn 0.000000 0.000000 -1.000000
vn 0.000000 1.000000 0.000000
vn 0.000000 1.000000 0.000000
vn 0.000000 0.000000 1.000000
vn 0.000000 0.000000 1.000000
vn 0.000000 1.000000 0.000000
vn 0.000000 1.000000 0.000000
vn 0.000000 0.000000 1.000000
vn 0.000000 0.000000 1.000000
vn 0.000000 -1.000000 0.000000
vn 0.000000 -1.000000 0.000000
vn 0.000000 -1.000000 0.000000
vn 0.000000 -1.000000 0.000000
vn 0.000000 -1.000000 0.000000
vn 0.000000 -1.000000 0.000000
vn 0.000000 0.000000 -1.000000
vn 0.000000 0.000000 -1.000000
vn 0.000000 1.000000 0.000000
vn 0.000000 1.000000 0.000000
vn 0.000000 1.000000 0.000000
vn 0.000000 1.000000 0.000000
vn 0.000000 1.000000 0.000000
vn 0.000000 1.000000 0.000000
vn 0.000000 1.000000 0.000000
vn 0.000000 -1.000000 0.000000
vn 0.000000 -1.000000 0.000000
vn 0.000000 -1.000000 0.000000
vn 0.000000 -1.000000 0.000000
vn 0.000000 -1.000000 0.000000
vn 0.000000 -1.000000 0.000000
vn 0.000000 -1.000000 0.000000
vn 0.000000 -1.000000 0.000000
vn 0.000000 1.000000 0.000000
vn 0.000000 1.000000 0.000000
vn 0.000000 1.000000 0.000000
vn 0.000000 1.000000 0.000000
vn 0.000000 1.000000 0.000000
vn 0.000000 0.000000 1.000000
vn 0.000000 0.000000 1.000000
vn 0.000000 1.000000 0.000000
vn 0.000000 1.000000 0.000000
vn 0.000000 1.000000 0.000000
vn 0.000000 0.000000 1.000000
vn 0.000000 0.000000 1.000000
vn 0.000000 1.000000 0.000000
vn 0.000000 1.000000 0.000000
vn 0.000000 0.000000 -1.000000
vn 0.000000 0.000000 -1.000000
vn 0.000000 1.000000 0.000000
vn 0.000000 1.000000 0.000000
vn 0.000000 1.000000 0.000000
vn 0.000000 0.000000 -1.000000
vn 0.000000 0.000000 -1.000000
vn 0.000000 -1.000000 0.000000
vn 0.000000 -1.000000 0.000000
vn 0.000000 -1.000000 0.000000
vn 0.000000 -1.000000 0.000000
vn 0.000000 -1.000000 0.000000
vn 0.000000 -1.000000 0.000000
vn 0.000000 -1.000000 0.000000
vn 0.000000 -1.000000 0.000000
vn 0.000000 -1.000000 0.000000
vn 0.000000 -1.000000 0.000000
vn 0.000000 -1.000000 0.000000
vn 0.000000 -1.000000 0.000000
vn 0.000000 -1.000000 0.000000
vn 0.000000 -1.000000 0.000000
vn -1.000000 0.000000 0.000000
vn -1.000000 0.000000 0.000000
vn -1.000000 0.000000 0.000000
vn -1.000000 0.000000 0.000000
vn 0.000000 0.000000 -1.000000
vn 0.000000 0.000000 -1.000000
vn 0.000000 0.000000 -1.000000
vn 0.000000 0.000000 -1.000000
vn 1.000000 0.000000 0.000000
vn 1.000000 0.000000 0.000000
vn 1.000000 0.000000 0.000000
vn 1.000000 0.000000 0.000000
vn 0.000000 0.000000 1.000000
vn 0.000000 0.000000 1.000000
vn 0.000000 0.000000 1.000000
vn 0.000000 0.000000 1.000000
vn 1.000000 0.000000 0.000000
vn 1.000000 0.000000 0.000000
vn 1.000000 0.000000 0.000000
vn 1.000000 0.000000 0.000000
vn 0.000000 0.000000 1.000000
vn 0.000000 0.000000 1.000000
vn 0.000000 0.000000 1.000000
vn 0.000000 0.000000 1.000000
vn -1.000000 0.000000 0.000000
vn -1.000000 0.000000 0.000000
vn -1.000000 0.000000 0.000000
vn -1.000000 0.000000 0.000000
vn 0.000000 0.000000 -1.000000
vn 0.000000 0.000000 -1.000000
vn 0.000000 0.000000 -1.000000
vn 0.000000 0.000000 -1.000000
vn -1.000000 0.000000 0.000000
vn -1.000000 0.000000 0.000000
vn -1.000000 0.000000 0.000000
vn -1.000000 0.000000 0.000000
vn 0.000000 0.000000 -1.000000
vn 0.000000 0.000000 -1.000000
vn 0.000000 0.000000 -1.000000
vn 0.000000 0.000000 -1.000000
vn 1.000000 0.000000 0.000000
vn 1.000000 0.000000 0.000000
vn 1.000000 0.000000 0.000000
vn 1.000000 0.000000 0.000000
vn 0.000000 0.000000 1.000000
vn 0.000000 0.000000 1.000000
vn 0.000000 0.000000 1.000000
vn 0.000000 0.000000 1.000000
vn 0.000000 0.000000 1.000000
vn 0.000000 0.000000 1.000000
vn 0.000000 0.000000 1.000000
vn 0.000000 0.000000 1.000000
vn -1.000000 0.000000 0.000000
vn -1.000000 0.000000 0.000000
vn -1.000000 0.000000 0.000000
vn -1.000000 0.000000 0.000000
vn 0.000000 0.000000 -1.000000
vn 0.000000 0.000000 -1.000000
vn 0.000000 0.000000 -1.000000
vn 0.000000 0.000000 -1.000000
vn 1.000000 0.000000 0.000000
vn 1.000000 0.000000 0.000000
vn 1.000000 0.000000 0.000000
vn 1.000000 0.000000 0.000000
s 1
g car
usemtl lambert2SG
f 1/161/1 21/162/2 22/163/3 3/164/4
s 2
f 3/61/5 22/62/6 56/63/7 49/64/8
s 3
f 5/173/9 27/174/10 28/175/11 7/176/12
s 4
usemtl initialShadingGroup
f 50/79/13 51/80/14 21/81/15 1/82/16
s 5
usemtl lambert2SG
f 2/1/17 53/2/18 54/3/19 4/4/20
s 6
f 49/15/21 50/16/22 1/17/23 3/18/24
f 7/27/25 41/24/26 42/23/27 5/28/28
s 4
usemtl initialShadingGroup
f 7/98/29 28/99/30 48/92/31 41/91/32
s 5
usemtl lambert2SG
f 45/10/33 46/9/34 8/13/35 6/14/36
s 10
f 42/115/37 43/116/38 27/117/39 5/118/40
s 6
f 9/21/41 10/22/42 14/20/43 13/19/44
s 4
usemtl initialShadingGroup
f 10/87/45 29/88/46 30/84/47 14/83/48
s 5
usemtl lambert2SG
f 16/6/49 15/5/50 11/7/51 12/8/52
s 11
f 18/133/53 24/134/54 25/135/55 20/136/56
s 12
f 13/185/57 23/186/58 24/187/59 18/188/60
s off
f 16/6/61 12/8/62 19/11/63 17/12/64
s 13
f 25/197/65 26/198/66 9/199/67 20/200/68
s off
f 9/21/69 13/19/70 18/25/71 20/26/72
s 1
f 35/170/73 36/169/74 2/171/75 4/172/76
s 2
f 54/76/77 55/72/78 35/73/79 4/77/80
s 12
f 33/194/81 34/193/82 16/195/83 17/196/84
s 11
f 32/142/85 33/141/86 17/143/87 19/144/88
s 13
f 12/207/89 31/206/90 32/205/91 19/208/92
s 10
f 40/128/93 44/127/94 45/130/95 6/131/96
s 3
f 39/182/97 40/181/98 6/183/99 8/184/100
s 4
usemtl initialShadingGroup
f 46/113/101 47/111/102 39/112/103 8/114/104
f 37/107/105 38/106/106 11/110/107 15/108/108
f 36/97/109 52/96/110 53/101/111 2/102/112
s 13
usemtl lambert2SG
f 62/201/113 63/202/114 26/198/66 25/197/65
s 11
f 25/135/55 24/134/54 61/137/115 62/138/116
s 12
f 24/187/59 23/186/58 60/189/117 61/190/118
s 2
f 58/65/119 59/66/120 56/63/7 22/62/6
s 1
f 22/163/3 21/162/2 57/165/121 58/166/122
s 4
usemtl initialShadingGroup
f 21/81/15 51/80/14 70/85/123 57/86/124
f 30/84/47 29/88/46 68/93/125 69/94/126
f 66/103/127 67/104/128 48/92/31 28/99/30
s 3
usemtl lambert2SG
f 28/175/11 27/174/10 65/177/129 66/178/130
s 10
f 27/117/39 43/116/38 64/121/131 65/122/132
s 6
f 42/23/27 41/24/26 10/22/42 9/21/41
s 10
f 9/119/133 26/120/134 43/116/38 42/115/37
f 63/123/135 64/121/131 43/116/38 26/120/134
f 45/130/95 44/127/94 31/129/136 12/132/137
s 5
f 12/8/52 11/7/51 46/9/34 45/10/33
s 4
usemtl initialShadingGroup
f 38/106/106 47/111/102 46/113/101 11/110/107
s off
usemtl lambert3SG
f 86/145/138 85/146/139 87/147/140 88/148/141
s 4
usemtl initialShadingGroup
f 41/91/32 48/92/31 29/88/46 10/87/45
s 6
usemtl lambert2SG
f 13/19/44 14/20/43 50/16/22 49/15/21
s 4
usemtl initialShadingGroup
f 14/83/48 30/84/47 51/80/14 50/79/13
s off
usemtl lambert3SG
f 89/149/142 90/150/143 91/151/144 92/152/145
s 4
usemtl initialShadingGroup
f 53/101/111 52/96/110 37/107/105 15/108/108
s 5
usemtl lambert2SG
f 54/3/19 53/2/18 15/5/50 16/6/49
s 2
f 34/75/146 55/72/78 54/76/77 16/78/147
f 23/67/148 56/63/7 59/66/120 60/71/149
f 49/64/8 56/63/7 23/67/148 13/68/150
s 1
f 76/168/151 77/167/152 36/169/74 35/170/73
s 2
f 55/72/78 75/70/153 76/69/154 35/73/79
f 74/74/155 75/70/153 55/72/78 34/75/146
s 12
f 73/192/156 74/191/157 34/193/82 33/194/81
s 11
f 72/140/158 73/139/159 33/141/86 32/142/85
s 13
f 32/205/91 31/206/90 71/204/160 72/203/161
s 10
f 44/127/94 84/124/162 71/126/163 31/129/136
f 83/125/164 84/124/162 44/127/94 40/128/93
s 3
f 82/180/165 83/179/166 40/181/98 39/182/97
s 4
usemtl initialShadingGroup
f 47/111/102 81/105/167 82/109/168 39/112/103
s off
usemtl lambert3SG
f 93/153/169 94/154/170 95/155/171 96/156/172
s 4
usemtl initialShadingGroup
f 79/95/173 80/100/174 38/106/106 37/107/105
s off
usemtl lambert3SG
f 98/157/175 97/158/176 99/159/177 100/160/178
s 4
usemtl initialShadingGroup
f 77/90/179 78/89/180 52/96/110 36/97/109
s 13
usemtl lambert2SG
f 72/203/161 71/204/160 63/202/114 62/201/113
s 11
f 62/138/116 61/137/115 73/139/159 72/140/158
s 12
f 61/190/118 60/189/117 74/191/157 73/192/156
s 2
f 60/71/149 59/66/120 75/70/153 74/74/155
f 76/69/154 75/70/153 59/66/120 58/65/119
s 1
f 58/166/122 57/165/121 77/167/152 76/168/151
s 4
usemtl initialShadingGroup
f 57/86/124 70/85/123 78/89/180 77/90/179
f 79/95/173 78/89/180 70/85/123 69/94/126
f 69/94/126 68/93/125 80/100/174 79/95/173
f 68/93/125 67/104/128 81/105/167 80/100/174
f 82/109/168 81/105/167 67/104/128 66/103/127
s 3
usemtl lambert2SG
f 66/178/130 65/177/129 83/179/166 82/180/165
s 10
f 65/122/132 64/121/131 84/124/162 83/125/164
f 71/126/163 84/124/162 64/121/131 63/123/135
s off
usemtl lambert3SG
f 29/29/181 48/30/182 85/31/183 86/32/184
f 48/209/185 67/210/186 87/211/187 85/212/188
f 67/33/189 68/34/190 88/35/191 87/36/192
f 68/213/193 29/214/194 86/215/195 88/216/196
f 69/37/197 70/38/198 90/39/199 89/40/200
f 70/217/201 51/218/202 91/219/203 90/220/204
f 51/41/205 30/42/206 92/43/207 91/44/208
f 30/221/209 69/222/210 89/223/211 92/224/212
f 80/45/213 81/46/214 94/47/215 93/48/216
f 81/225/217 47/226/218 95/227/219 94/228/220
f 47/49/221 38/50/222 96/51/223 95/52/224
f 38/229/225 80/230/226 93/231/227 96/232/228
f 52/233/229 78/234/230 97/235/231 98/236/232
f 78/53/233 79/54/234 99/55/235 97/56/236
f 79/237/237 37/238/238 100/239/239 99/240/240
f 37/57/241 52/58/242 98/59/243 100/60/244
