# This file uses centimeters as units for non-parametric coordinates.

mtllib car2.mtl
g default
v -0.890753 0.567850 1.690410
v 0.992487 0.567850 1.690410
v -0.890753 1.290108 1.690410
v 0.992487 1.290108 1.690410
v -0.890753 1.290108 -2.583349
v 0.992487 1.290108 -2.583349
v -0.890753 0.567850 -2.583349
v 0.992487 0.567850 -2.583349
v -0.890753 1.290108 -1.708532
v -0.890753 0.567850 -1.280561
v 0.992487 0.567850 -1.280561
v 0.992487 1.290108 -1.708532
v -0.890753 1.290108 0.896222
v -0.890753 0.567850 0.541393
v 0.992487 0.567850 0.541393
v 0.992487 1.290108 0.896222
v 0.992487 2.077414 0.541393
v -0.890753 2.077414 0.541393
v 0.992487 2.077414 -1.280561
v -0.890753 2.077414 -1.280561
v -0.792839 0.567850 1.690410
v -0.792839 1.290108 1.690410
v -0.792839 1.290108 0.896222
v -0.792839 2.077414 0.541393
v -0.792839 2.077414 -1.280561
v -0.792839 1.290108 -1.708532
v -0.792839 1.290108 -2.583349
v -0.792839 0.567850 -2.583349
v -0.792839 0.567850 -1.280561
v -0.792839 0.567850 0.541393
v 0.929573 1.290108 -1.708532
v 0.929573 2.077414 -1.280561
v 0.929573 2.077414 0.541393
v 0.929573 1.290108 0.896222
v 0.929573 1.290108 1.690410
v 0.929573 0.567850 1.690410
v 0.929573 0.567850 0.541393
v 0.929573 0.567850 -1.280561
v 0.929573 0.567850 -2.583349
v 0.929573 1.290108 -2.583349
v -0.890753 0.567850 -1.914745
v -0.890753 1.290108 -1.914745
v -0.792839 1.290108 -1.914745
v 0.929573 1.290108 -1.914745
v 0.992487 1.290108 -1.914745
v 0.992487 0.567850 -1.914745
v 0.929573 0.567850 -1.914745
v -0.792839 0.567850 -1.914745
v -0.890753 1.290108 1.128241
v -0.890753 0.567850 1.128241
v -0.792839 0.567850 1.128241
v 0.929573 0.567850 1.128241
v 0.992487 0.567850 1.128241
v 0.992487 1.290108 1.128241
v 0.929573 1.290108 1.128241
v -0.792839 1.290108 1.128241
v -0.513458 0.567850 1.690410
v -0.513458 1.290108 1.690410
v -0.513458 1.290108 1.128241
v -0.513458 1.290108 0.896222
v -0.513458 2.077414 0.541393
v -0.513458 2.077414 -1.280561
v -0.513458 1.290108 -1.708532
v -0.513458 1.290108 -1.914745
v -0.513458 1.290108 -2.583349
v -0.513458 0.567850 -2.583349
v -0.513458 0.567850 -1.914745
v -0.513458 0.567850 -1.280561
v -0.513458 0.567850 0.541393
v -0.513458 0.567850 1.128241
v 0.606586 1.290108 -1.708532
v 0.606586 2.077414 -1.280561
v 0.606586 2.077414 0.541393
v 0.606586 1.290108 0.896222
v 0.606586 1.290108 1.128241
v 0.606586 1.290108 1.690410
v 0.606586 0.567850 1.690410
v 0.606586 0.567850 1.128241
v 0.606586 0.567850 0.541393
v 0.606586 0.567850 -1.280561
v 0.606586 0.567850 -1.914745
v 0.606586 0.567850 -2.583349
v 0.606586 1.290108 -2.583349
v 0.606586 1.290108 -1.914745
v -0.792839 0.003392 -1.914745
v -0.792839 0.003392 -1.280561
v -0.513458 0.003392 -1.914745
v -0.513458 0.003392 -1.280561
v -0.513458 0.003392 0.541393
v -0.513458 0.003392 1.128241
v -0.792839 0.003392 1.128241
v -0.792839 0.003392 0.541393
v 0.606586 0.003392 -1.280561
v 0.606586 0.003392 -1.914745
v 0.929573 0.003392 -1.914745
v 0.929573 0.003392 -1.280561
v 0.606586 0.003392 1.128241
v 0.929573 0.003392 1.128241
v 0.606586 0.003392 0.541393
v 0.929573 0.003392 0.541393
vt 0.247110 0.004197
vt 0.258268 0.004197
vt 0.258268 0.089022
vt 0.247110 0.089022
vt 0.269916 0.004197
vt 0.262873 0.089022
vt 0.306078 0.004197
vt 0.314572 0.089022
vt 0.318665 0.004197
vt 0.318665 0.089022
vt 0.306078 0.181486
vt 0.269916 0.181486
vt 0.331935 0.004197
vt 0.331935 0.089022
vt 0.408675 0.089022
vt 0.408675 0.004197
vt 0.419832 0.004197
vt 0.419832 0.089022
vt 0.404069 0.089022
vt 0.397027 0.004197
vt 0.352371 0.089022
vt 0.360865 0.004197
vt 0.348278 0.089022
vt 0.348278 0.004197
vt 0.397027 0.181486
vt 0.360865 0.181486
vt 0.335008 0.004197
vt 0.335008 0.089022
vt 0.710903 0.765073
vt 0.698316 0.765073
vt 0.698316 0.698781
vt 0.710903 0.698781
vt 0.380800 0.800231
vt 0.368213 0.800231
vt 0.368213 0.733939
vt 0.380800 0.733939
vt 0.247038 0.802185
vt 0.235391 0.802185
vt 0.235391 0.735893
vt 0.247038 0.735893
vt 0.411113 0.802185
vt 0.399466 0.802185
vt 0.399466 0.735893
vt 0.411113 0.735893
vt 0.292903 0.803130
vt 0.280316 0.803130
vt 0.280316 0.736838
vt 0.292903 0.736838
vt 0.726529 0.822662
vt 0.713942 0.822662
vt 0.713942 0.756370
vt 0.726529 0.756370
vt 0.424786 0.800479
vt 0.413138 0.800479
vt 0.413138 0.734187
vt 0.424786 0.734187
vt 0.758796 0.821965
vt 0.747148 0.821965
vt 0.747148 0.755673
vt 0.758796 0.755673
vt 0.397512 0.636854
vt 0.397512 0.632444
vt 0.408670 0.632444
vt 0.408670 0.636854
vt 0.397512 0.619860
vt 0.408670 0.619860
vt 0.413275 0.632444
vt 0.413275 0.636854
vt 0.397512 0.569411
vt 0.408670 0.569411
vt 0.413275 0.619860
vt 0.408670 0.554863
vt 0.397512 0.554863
vt 0.413275 0.569411
vt 0.413275 0.554863
vt 0.408670 0.552029
vt 0.397512 0.552029
vt 0.413275 0.552029
vt 0.090848 0.704083
vt 0.095259 0.704083
vt 0.095259 0.715240
vt 0.090848 0.715240
vt 0.090848 0.692435
vt 0.095259 0.692435
vt 0.107843 0.704083
vt 0.107843 0.715240
vt 0.090848 0.656273
vt 0.095259 0.656273
vt 0.158292 0.704083
vt 0.158292 0.715240
vt 0.090848 0.643686
vt 0.095259 0.643686
vt 0.107843 0.656273
vt 0.107843 0.692435
vt 0.158292 0.692435
vt 0.172840 0.704083
vt 0.172840 0.715240
vt 0.090848 0.630416
vt 0.095259 0.630416
vt 0.158292 0.656273
vt 0.175673 0.704083
vt 0.175673 0.715240
vt 0.107843 0.630416
vt 0.107843 0.643686
vt 0.158292 0.643686
vt 0.172840 0.656273
vt 0.172840 0.692435
vt 0.175673 0.692435
vt 0.158292 0.630416
vt 0.175673 0.656273
vt 0.172840 0.643686
vt 0.172840 0.630416
vt 0.175673 0.643686
vt 0.175673 0.630416
vt 0.005091 0.662502
vt 0.005091 0.658092
vt 0.018361 0.658092
vt 0.018361 0.662502
vt 0.000998 0.662502
vt 0.000998 0.658092
vt 0.005091 0.645508
vt 0.018361 0.645508
vt 0.000998 0.645508
vt 0.005091 0.595059
vt 0.018361 0.595059
vt 0.000998 0.595059
vt 0.005091 0.580511
vt 0.018361 0.580511
vt 0.000998 0.580511
vt 0.005091 0.577677
vt 0.018361 0.577677
vt 0.000998 0.577677
vt 0.868251 0.697661
vt 0.868251 0.693251
vt 0.904413 0.693251
vt 0.904413 0.697661
vt 0.868251 0.680667
vt 0.904413 0.680667
vt 0.868251 0.630218
vt 0.904413 0.630218
vt 0.868251 0.615670
vt 0.904413 0.615670
vt 0.868251 0.612836
vt 0.904413 0.612836
vt 0.547914 0.964595
vt 0.547914 0.952008
vt 0.560498 0.952008
vt 0.560498 0.964595
vt 0.229531 0.952008
vt 0.241178 0.952008
vt 0.241178 0.964592
vt 0.229531 0.964592
vt 0.367127 0.963595
vt 0.354540 0.963595
vt 0.354540 0.949047
vt 0.367127 0.949047
vt 0.655272 0.001710
vt 0.655272 0.016258
vt 0.643625 0.016258
vt 0.643625 0.001710
vt 0.610419 0.604768
vt 0.614829 0.604768
vt 0.614829 0.689592
vt 0.610419 0.689592
vt 0.627413 0.604768
vt 0.627413 0.689592
vt 0.677862 0.604768
vt 0.677862 0.689592
vt 0.692410 0.604768
vt 0.692410 0.689592
vt 0.695244 0.604768
vt 0.695244 0.689592
vt 0.774494 0.714985
vt 0.774494 0.710575
vt 0.859319 0.710575
vt 0.859319 0.714985
vt 0.774494 0.697991
vt 0.859318 0.697991
vt 0.774494 0.647542
vt 0.859319 0.647542
vt 0.774494 0.632994
vt 0.859319 0.632994
vt 0.774494 0.630160
vt 0.859319 0.630160
vt 0.465877 0.441730
vt 0.470287 0.441730
vt 0.470287 0.534194
vt 0.465877 0.534194
vt 0.482871 0.441730
vt 0.482871 0.534194
vt 0.533320 0.441730
vt 0.533320 0.534194
vt 0.547868 0.441730
vt 0.547868 0.534194
vt 0.550702 0.441730
vt 0.550702 0.534194
vt 0.558184 0.443765
vt 0.558184 0.536229
vt 0.553774 0.536229
vt 0.553774 0.443765
vt 0.570768 0.443765
vt 0.570768 0.536229
vt 0.621217 0.443765
vt 0.621217 0.536229
vt 0.635765 0.443765
vt 0.635765 0.536229
vt 0.638599 0.536229
vt 0.638599 0.443765
vt 0.590886 0.730033
vt 0.603470 0.730033
vt 0.603470 0.796325
vt 0.590886 0.796325
vt 0.396423 0.802185
vt 0.383839 0.802185
vt 0.383839 0.735892
vt 0.396423 0.735892
vt 0.261647 0.802185
vt 0.249064 0.802185
vt 0.249064 0.735893
vt 0.261647 0.735893
vt 0.264690 0.737846
vt 0.277274 0.737846
vt 0.277274 0.804138
vt 0.264690 0.804138
vt 0.049830 0.756370
vt 0.064378 0.756370
vt 0.064378 0.822662
vt 0.049830 0.822662
vt 0.081957 0.822662
vt 0.067409 0.822662
vt 0.067409 0.756370
vt 0.081957 0.756370
vt 0.744116 0.822662
vt 0.729568 0.822662
vt 0.729568 0.756370
vt 0.744116 0.756370
vt 0.965914 0.775205
vt 0.980462 0.775205
vt 0.980462 0.841498
vt 0.965914 0.841498
vn 0.000000 0.000000 1.000000
vn 0.000000 0.000000 1.000000
vn 0.000000 0.000000 1.000000
vn 0.000000 0.000000 1.000000
vn 0.000000 1.000000 0.000000
vn 0.000000 1.000000 0.000000
vn 0.000000 1.000000 0.000000
vn 0.000000 1.000000 0.000000
vn 0.000000 0.000000 -1.000000
vn 0.000000 0.000000 -1.000000
vn 0.000000 0.000000 -1.000000
vn 0.000000 0.000000 -1.000000
vn 0.000000 -1.000000 0.000000
vn 0.000000 -1.000000 0.000000
vn 0.000000 -1.000000 0.000000
vn 0.000000 -1.000000 0.000000
vn 1.000000 0.000000 0.000000
vn 1.000000 -0.000000 0.000000
vn 1.000000 -0.000000 0.000000
vn 1.000000 0.000000 0.000000
vn -1.000000 0.000000 0.000000
vn -1.000000 0.000000 0.000000
vn -1.000000 0.000000 0.000000
vn -1.000000 0.000000 0.000000
vn -1.000000 0.000000 0.000000
vn -1.000000 0.000000 0.000000
vn -1.000000 0.000000 0.000000
vn -1.000000 0.000000 0.000000
vn 0.000000 -1.000000 0.000000
vn 0.000000 -1.000000 0.000000
vn 0.000000 -1.000000 0.000000
vn 0.000000 -1.000000 0.000000
vn 1.000000 0.000000 0.000000
vn 1.000000 0.000000 0.000000
vn 1.000000 0.000000 0.000000
vn 1.000000 0.000000 0.000000
vn 0.000000 1.000000 0.000000
vn 0.000000 1.000000 0.000000
vn 0.000000 1.000000 0.000000
vn 0.000000 1.000000 0.000000
vn -1.000000 0.000000 0.000000
vn -1.000000 0.000000 0.000000
vn -1.000000 0.000000 0.000000
vn -1.000000 0.000000 0.000000
vn 0.000000 -1.000000 0.000000
vn 0.000000 -1.000000 0.000000
vn 0.000000 -1.000000 0.000000
vn 0.000000 -1.000000 0.000000
vn 1.000000 -0.000000 0.000000
vn 1.000000 -0.000000 0.000000
vn 1.000000 0.000000 0.000000
vn 1.000000 0.000000 0.000000
vn 0.000000 1.000000 0.000000
vn 0.000000 1.000000 0.000000
vn 0.000000 1.000000 0.000000
vn 0.000000 1.000000 0.000000
vn 0.000000 0.410886 0.911687
vn 0.000000 0.410886 0.911687
vn 0.000000 0.410886 0.911687
vn 0.000000 0.410886 0.911687
vn 1.000000 0.000000 0.000000
vn 1.000000 0.000000 0.000000
vn 1.000000 0.000000 0.000000
vn 1.000000 0.000000 0.000000
vn 0.000000 0.477588 -0.878584
vn 0.000000 0.477588 -0.878584
vn 0.000000 0.477588 -0.878584
vn 0.000000 0.477588 -0.878584
vn -1.000000 0.000000 0.000000
vn -1.000000 0.000000 0.000000
vn -1.000000 0.000000 0.000000
vn -1.000000 0.000000 0.000000
vn 0.000000 0.000000 1.000000
vn 0.000000 0.000000 1.000000
vn 0.000000 0.000000 1.000000
vn 0.000000 0.000000 1.000000
vn 0.000000 1.000000 0.000000
vn 0.000000 1.000000 0.000000
vn 0.000000 1.000000 0.000000
vn 0.000000 1.000000 0.000000
vn 0.000000 0.410886 0.911687
vn 0.000000 0.410886 0.911687
vn 0.000000 0.410886 0.911687
vn 0.000000 0.410886 0.911687
vn 0.000000 1.000000 0.000000
vn 0.000000 1.000000 0.000000
vn 0.000000 1.000000 0.000000
vn 0.000000 1.000000 0.000000
vn 0.000000 0.477588 -0.878584
vn 0.000000 0.477588 -0.878584
vn 0.000000 0.477588 -0.878584
vn 0.000000 0.477588 -0.878584
vn 0.000000 1.000000 0.000000
vn 0.000000 1.000000 0.000000
vn 0.000000 1.000000 0.000000
vn 0.000000 1.000000 0.000000
vn 0.000000 0.000000 -1.000000
vn 0.000000 0.000000 -1.000000
vn 0.000000 0.000000 -1.000000
vn 0.000000 0.000000 -1.000000
vn 0.000000 -1.000000 0.000000
vn 0.000000 -1.000000 0.000000
vn 0.000000 -1.000000 0.000000
vn 0.000000 -1.000000 0.000000
vn 0.000000 -1.000000 0.000000
vn 0.000000 -1.000000 0.000000
vn 0.000000 -1.000000 0.000000
vn 0.000000 -1.000000 0.000000
vn 0.000000 -1.000000 0.000000
vn 0.000000 -1.000000 0.000000
vn 0.000000 -1.000000 0.000000
vn 0.000000 -1.000000 0.000000
vn 0.000000 0.477588 -0.878584
vn 0.000000 0.477588 -0.878584
vn 0.000000 1.000000 0.000000
vn 0.000000 1.000000 0.000000
vn 0.000000 0.410886 0.911687
vn 0.000000 0.410886 0.911687
vn 0.000000 1.000000 0.000000
vn 0.000000 1.000000 0.000000
vn 0.000000 0.000000 1.000000
vn 0.000000 0.000000 1.000000
vn 0.000000 -1.000000 0.000000
vn 0.000000 -1.000000 0.000000
vn 0.000000 -1.000000 0.000000
vn 0.000000 -1.000000 0.000000
vn 0.000000 -1.000000 0.000000
vn 0.000000 -1.000000 0.000000
vn 0.000000 0.000000 -1.000000
vn 0.000000 0.000000 -1.000000
vn 0.000000 1.000000 0.000000
vn 0.000000 1.000000 0.000000
vn 0.000000 1.000000 0.000000
vn 0.000000 1.000000 0.000000
vn 0.000000 1.000000 0.000000
vn 0.000000 1.000000 0.000000
vn 0.000000 1.000000 0.000000
vn 0.000000 -1.000000 0.000000
vn 0.000000 -1.000000 0.000000
vn 0.000000 -1.000000 0.000000
vn 0.000000 -1.000000 0.000000
vn 0.000000 -1.000000 0.000000
vn 0.000000 -1.000000 0.000000
vn 0.000000 -1.000000 0.000000
vn 0.000000 -1.000000 0.000000
vn 0.000000 1.000000 0.000000
vn 0.000000 1.000000 0.000000
vn 0.000000 1.000000 0.000000
vn 0.000000 1.000000 0.000000
vn 0.000000 1.000000 0.000000
vn 0.000000 0.000000 1.000000
vn 0.000000 0.000000 1.000000
vn 0.000000 1.000000 0.000000
vn 0.000000 1.000000 0.000000
vn 0.000000 1.000000 0.000000
vn 0.000000 0.410886 0.911687
vn 0.000000 0.410886 0.911687
vn 0.000000 1.000000 0.000000
vn 0.000000 1.000000 0.000000
vn 0.000000 0.477588 -0.878584
vn 0.000000 0.477588 -0.878584
vn 0.000000 1.000000 0.000000
vn 0.000000 1.000000 0.000000
vn 0.000000 1.000000 0.000000
vn 0.000000 0.000000 -1.000000
vn 0.000000 0.000000 -1.000000
vn 0.000000 -1.000000 0.000000
vn 0.000000 -1.000000 0.000000
vn 0.000000 -1.000000 0.000000
vn 0.000000 -1.000000 0.000000
vn 0.000000 -1.000000 0.000000
vn 0.000000 -1.000000 0.000000
vn 0.000000 -1.000000 0.000000
vn 0.000000 -1.000000 0.000000
vn 0.000000 -1.000000 0.000000
vn 0.000000 -1.000000 0.000000
vn 0.000000 -1.000000 0.000000
vn 0.000000 -1.000000 0.000000
vn 0.000000 -1.000000 0.000000
vn 0.000000 -1.000000 0.000000
vn -1.000000 0.000000 0.000000
vn -1.000000 0.000000 0.000000
vn -1.000000 0.000000 0.000000
vn -1.000000 0.000000 0.000000
vn 0.000000 0.000000 -1.000000
vn 0.000000 0.000000 -1.000000
vn 0.000000 0.000000 -1.000000
vn 0.000000 0.000000 -1.000000
vn 1.000000 0.000000 0.000000
vn 1.000000 0.000000 0.000000
vn 1.000000 0.000000 0.000000
vn 1.000000 0.000000 0.000000
vn 0.000000 0.000000 1.000000
vn 0.000000 0.000000 1.000000
vn 0.000000 0.000000 1.000000
vn 0.000000 0.000000 1.000000
vn 1.000000 0.000000 0.000000
vn 1.000000 0.000000 0.000000
vn 1.000000 0.000000 0.000000
vn 1.000000 0.000000 0.000000
vn 0.000000 0.000000 1.000000
vn 0.000000 0.000000 1.000000
vn 0.000000 0.000000 1.000000
vn 0.000000 0.000000 1.000000
vn -1.000000 0.000000 0.000000
vn -1.000000 0.000000 0.000000
vn -1.000000 0.000000 0.000000
vn -1.000000 0.000000 0.000000
vn 0.000000 0.000000 -1.000000
vn 0.000000 0.000000 -1.000000
vn 0.000000 0.000000 -1.000000
vn 0.000000 0.000000 -1.000000
vn -1.000000 0.000000 0.000000
vn -1.000000 0.000000 0.000000
vn -1.000000 0.000000 0.000000
vn -1.000000 0.000000 0.000000
vn 0.000000 0.000000 -1.000000
vn 0.000000 0.000000 -1.000000
vn 0.000000 0.000000 -1.000000
vn 0.000000 0.000000 -1.000000
vn 1.000000 0.000000 0.000000
vn 1.000000 0.000000 0.000000
vn 1.000000 0.000000 0.000000
vn 1.000000 0.000000 0.000000
vn 0.000000 0.000000 1.000000
vn 0.000000 0.000000 1.000000
vn 0.000000 0.000000 1.000000
vn 0.000000 0.000000 1.000000
vn 0.000000 0.000000 1.000000
vn 0.000000 0.000000 1.000000
vn 0.000000 0.000000 1.000000
vn 0.000000 0.000000 1.000000
vn -1.000000 0.000000 0.000000
vn -1.000000 0.000000 0.000000
vn -1.000000 0.000000 0.000000
vn -1.000000 0.000000 0.000000
vn 0.000000 0.000000 -1.000000
vn 0.000000 0.000000 -1.000000
vn 0.000000 0.000000 -1.000000
vn 0.000000 0.000000 -1.000000
vn 1.000000 0.000000 0.000000
vn 1.000000 0.000000 0.000000
vn 1.000000 0.000000 0.000000
vn 1.000000 0.000000 0.000000
s 1
g car2
usemtl initialShadingGroup
f 1/161/1 21/162/2 22/163/3 3/164/4
s 2
f 3/61/5 22/62/6 56/63/7 49/64/8
s 3
f 5/173/9 27/174/10 28/175/11 7/176/12
s 4
f 50/79/13 51/80/14 21/81/15 1/82/16
s 5
f 2/1/17 53/2/18 54/3/19 4/4/20
s 6
f 49/15/21 50/16/22 1/17/23 3/18/24
f 7/27/25 41/24/26 42/23/27 5/28/28
s 4
f 7/98/29 28/99/30 48/92/31 41/91/32
s 5
f 45/10/33 46/9/34 8/13/35 6/14/36
s 10
f 42/115/37 43/116/38 27/117/39 5/118/40
s 6
f 9/21/41 10/22/42 14/20/43 13/19/44
s 4
f 10/87/45 29/88/46 30/84/47 14/83/48
s 5
f 16/6/49 15/5/50 11/7/51 12/8/52
s 11
f 18/133/53 24/134/54 25/135/55 20/136/56
s 12
f 13/185/57 23/186/58 24/187/59 18/188/60
s off
f 16/6/61 12/8/62 19/11/63 17/12/64
s 13
f 25/197/65 26/198/66 9/199/67 20/200/68
s off
f 9/21/69 13/19/70 18/25/71 20/26/72
s 1
f 35/170/73 36/169/74 2/171/75 4/172/76
s 2
f 54/76/77 55/72/78 35/73/79 4/77/80
s 12
f 33/194/81 34/193/82 16/195/83 17/196/84
s 11
f 32/142/85 33/141/86 17/143/87 19/144/88
s 13
f 12/207/89 31/206/90 32/205/91 19/208/92
s 10
f 40/128/93 44/127/94 45/130/95 6/131/96
s 3
f 39/182/97 40/181/98 6/183/99 8/184/100
s 4
f 46/113/101 47/111/102 39/112/103 8/114/104
f 37/107/105 38/106/106 11/110/107 15/108/108
f 36/97/109 52/96/110 53/101/111 2/102/112
s 13
f 62/201/113 63/202/114 26/198/66 25/197/65
s 11
f 25/135/55 24/134/54 61/137/115 62/138/116
s 12
f 24/187/59 23/186/58 60/189/117 61/190/118
s 2
f 58/65/119 59/66/120 56/63/7 22/62/6
s 1
f 22/163/3 21/162/2 57/165/121 58/166/122
s 4
f 21/81/15 51/80/14 70/85/123 57/86/124
f 30/84/47 29/88/46 68/93/125 69/94/126
f 66/103/127 67/104/128 48/92/31 28/99/30
s 3
f 28/175/11 27/174/10 65/177/129 66/178/130
s 10
f 27/117/39 43/116/38 64/121/131 65/122/132
s 6
f 42/23/27 41/24/26 10/22/42 9/21/41
s 10
f 9/119/133 26/120/134 43/116/38 42/115/37
f 63/123/135 64/121/131 43/116/38 26/120/134
f 45/130/95 44/127/94 31/129/136 12/132/137
s 5
f 12/8/52 11/7/51 46/9/34 45/10/33
s 4
f 38/106/106 47/111/102 46/113/101 11/110/107
s off
f 86/145/138 85/146/139 87/147/140 88/148/141
s 4
f 41/91/32 48/92/31 29/88/46 10/87/45
s 6
f 13/19/44 14/20/43 50/16/22 49/15/21
s 4
f 14/83/48 30/84/47 51/80/14 50/79/13
s off
f 89/149/142 90/150/143 91/151/144 92/152/145
s 4
f 53/101/111 52/96/110 37/107/105 15/108/108
s 5
f 54/3/19 53/2/18 15/5/50 16/6/49
s 2
f 34/75/146 55/72/78 54/76/77 16/78/147
f 23/67/148 56/63/7 59/66/120 60/71/149
f 49/64/8 56/63/7 23/67/148 13/68/150
s 1
f 76/168/151 77/167/152 36/169/74 35/170/73
s 2
f 55/72/78 75/70/153 76/69/154 35/73/79
f 74/74/155 75/70/153 55/72/78 34/75/146
s 12
f 73/192/156 74/191/157 34/193/82 33/194/81
s 11
f 72/140/158 73/139/159 33/141/86 32/142/85
s 13
f 32/205/91 31/206/90 71/204/160 72/203/161
s 10
f 44/127/94 84/124/162 71/126/163 31/129/136
f 83/125/164 84/124/162 44/127/94 40/128/93
s 3
f 82/180/165 83/179/166 40/181/98 39/182/97
s 4
f 47/111/102 81/105/167 82/109/168 39/112/103
s off
f 93/153/169 94/154/170 95/155/171 96/156/172
s 4
f 79/95/173 80/100/174 38/106/106 37/107/105
s off
f 98/157/175 97/158/176 99/159/177 100/160/178
s 4
f 77/90/179 78/89/180 52/96/110 36/97/109
s 13
f 72/203/161 71/204/160 63/202/114 62/201/113
s 11
f 62/138/116 61/137/115 73/139/159 72/140/158
s 12
f 61/190/118 60/189/117 74/191/157 73/192/156
s 2
f 60/71/149 59/66/120 75/70/153 74/74/155
f 76/69/154 75/70/153 59/66/120 58/65/119
s 1
f 58/166/122 57/165/121 77/167/152 76/168/151
s 4
f 57/86/124 70/85/123 78/89/180 77/90/179
f 79/95/173 78/89/180 70/85/123 69/94/126
f 69/94/126 68/93/125 80/100/174 79/95/173
f 68/93/125 67/104/128 81/105/167 80/100/174
f 82/109/168 81/105/167 67/104/128 66/103/127
s 3
f 66/178/130 65/177/129 83/179/166 82/180/165
s 10
f 65/122/132 64/121/131 84/124/162 83/125/164
f 71/126/163 84/124/162 64/121/131 63/123/135
s off
f 29/29/181 48/30/182 85/31/183 86/32/184
f 48/209/185 67/210/186 87/211/187 85/212/188
f 67/33/189 68/34/190 88/35/191 87/36/192
f 68/213/193 29/214/194 86/215/195 88/216/196
f 69/37/197 70/38/198 90/39/199 89/40/200
f 70/217/201 51/218/202 91/219/203 90/220/204
f 51/41/205 30/42/206 92/43/207 91/44/208
f 30/221/209 69/222/210 89/223/211 92/224/212
f 80/45/213 81/46/214 94/47/215 93/48/216
f 81/225/217 47/226/218 95/227/219 94/228/220
f 47/49/221 38/50/222 96/51/223 95/52/224
f 38/229/225 80/230/226 93/231/227 96/232/228
f 52/233/229 78/234/230 97/235/231 98/236/232
f 78/53/233 79/54/234 99/55/235 97/56/236
f 79/237/237 37/238/238 100/239/239 99/240/240
f 37/57/241 52/58/242 98/59/243 100/60/244
