# This file uses centimeters as units for non-parametric coordinates.

mtllib car3.mtl
g default
v -1.513320 0.757027 0.498486
v 1.008138 0.757027 0.498486
v -1.513320 1.724055 0.498486
v 1.008138 1.724055 0.498486
v -1.513320 1.724055 -5.223624
v 1.008138 1.724055 -5.223624
v -1.513320 0.757027 -5.223624
v 1.008138 0.757027 -5.223624
v -1.513320 1.724055 -4.047477
v -1.513320 0.757027 -3.479334
v 1.008138 0.757027 -3.479334
v 1.008138 1.724055 -4.047477
v -1.513320 1.724055 -1.039914
v -1.513320 0.757027 -1.039914
v 1.008138 0.757027 -1.039914
v 1.008138 1.724055 -1.039914
v -1.382219 0.757027 0.498486
v -1.382219 1.724055 0.498486
v -1.382219 1.724055 -4.047477
v -1.382219 1.724055 -5.223624
v -1.382219 0.757027 -5.223624
v -1.382219 0.757027 -3.479334
v -1.382219 0.757027 -1.039914
v 0.923879 1.724055 -4.047477
v 0.923879 1.724055 0.498486
v 0.923879 0.757027 0.498486
v 0.923879 0.757027 -1.039914
v 0.923879 0.757027 -3.479334
v 0.923879 0.757027 -5.223624
v 0.923879 1.724055 -5.223624
v -1.513320 0.757027 -4.328442
v -1.513320 1.724055 -4.328442
v -1.382219 1.724055 -4.328442
v 0.923879 1.724055 -4.328442
v 1.008138 1.724055 -4.328442
v 1.008138 0.757027 -4.328442
v 0.923879 0.757027 -4.328442
v -1.382219 0.757027 -4.328442
v -1.513320 1.724055 -0.254186
v -1.513320 0.757027 -0.254186
v -1.382219 0.757027 -0.254186
v 0.923879 0.757027 -0.254186
v 1.008138 0.757027 -0.254186
v 1.008138 1.724055 -0.254186
v -1.008171 0.757027 0.498486
v -1.008171 1.724055 0.498486
v -1.008171 1.724055 -4.047477
v -1.008171 1.724055 -4.328442
v -1.008171 1.724055 -5.223624
v -1.008171 0.757027 -5.223624
v -1.008171 0.757027 -4.328442
v -1.008171 0.757027 -3.479334
v -1.008171 0.757027 -1.039914
v -1.008171 0.757027 -0.254186
v 0.491446 1.724055 -4.047477
v 0.491446 1.724055 0.498486
v 0.491446 0.757027 0.498486
v 0.491446 0.757027 -0.254186
v 0.491446 0.757027 -1.039914
v 0.491446 0.757027 -3.479334
v 0.491446 0.757027 -4.328442
v 0.491446 0.757027 -5.223624
v 0.491446 1.724055 -5.223624
v 0.491446 1.724055 -4.328442
v -1.382219 0.001277 -4.328442
v -1.382219 0.001277 -3.479334
v -1.008171 0.001277 -4.328442
v -1.008171 0.001277 -3.479334
v -1.008171 0.001277 -1.039914
v -1.008171 0.001277 -0.254186
v -1.382219 0.001277 -0.254186
v -1.382219 0.001277 -1.039914
v 0.491446 0.001277 -3.479334
v 0.491446 0.001277 -4.328442
v 0.923879 0.001277 -4.328442
v 0.923879 0.001277 -3.479334
v 0.491446 0.001277 -0.254186
v 0.923879 0.001277 -0.254186
v 0.491446 0.001277 -1.039914
v 0.923879 0.001277 -1.039914
v -1.513320 3.300549 0.498486
v -1.382219 3.300549 0.498486
v -1.382219 3.300549 -0.254186
v -1.513320 3.300549 -0.254186
v 1.008138 3.300549 -0.254186
v 0.923879 3.300549 -0.254186
v 0.923879 3.300549 0.498486
v 1.008138 3.300549 0.498486
v -1.008171 3.300549 0.498486
v -1.008171 3.300549 -0.254186
v 0.923879 3.300549 -1.039914
v 1.008138 3.300549 -1.039914
v -1.382219 3.300549 -1.039914
v -1.008171 3.300549 -1.039914
v -1.513320 3.300549 -1.039914
v 0.491446 3.300549 -0.254186
v 0.491446 3.300549 0.498486
v 0.491446 3.300549 -1.039914
v 0.491446 3.300549 -4.047477
v -1.008171 3.300549 -4.047477
v -1.382219 3.300549 -4.047477
v -1.513320 3.300549 -4.047477
v 0.923879 3.300549 -4.047477
v 1.008138 3.300549 -4.047477
vt 0.083035 0.002239
vt 0.093309 0.002239
vt 0.093309 0.080342
vt 0.083035 0.080342
vt 0.104034 0.002239
vt 0.104034 0.080342
vt 0.093309 0.207670
vt 0.083035 0.207670
vt 0.137330 0.002239
vt 0.145085 0.080342
vt 0.104034 0.207670
vt 0.148920 0.002239
vt 0.148920 0.080342
vt 0.145085 0.207670
vt 0.161139 0.002239
vt 0.161139 0.080342
vt 0.232903 0.080342
vt 0.232903 0.002239
vt 0.243176 0.002239
vt 0.243176 0.080342
vt 0.222178 0.080342
vt 0.222178 0.002239
vt 0.243176 0.207670
vt 0.232903 0.207670
vt 0.181127 0.080342
vt 0.188881 0.002239
vt 0.222178 0.207670
vt 0.177292 0.080342
vt 0.177292 0.002239
vt 0.181127 0.207670
vt 0.165073 0.002239
vt 0.165073 0.080342
vt 0.307532 0.854138
vt 0.295942 0.854138
vt 0.295942 0.793099
vt 0.307532 0.793099
vt 0.229401 0.863905
vt 0.217811 0.863905
vt 0.217811 0.802866
vt 0.229401 0.802866
vt 0.378938 0.867811
vt 0.368213 0.867811
vt 0.368213 0.806772
vt 0.378938 0.806772
vt 0.392611 0.869765
vt 0.381886 0.869765
vt 0.381886 0.808725
vt 0.392611 0.808725
vt 0.452074 0.869700
vt 0.440484 0.869700
vt 0.440484 0.808661
vt 0.452074 0.808661
vt 0.481373 0.869700
vt 0.469783 0.869700
vt 0.469783 0.808661
vt 0.481373 0.808661
vt 0.125012 0.869700
vt 0.114288 0.869700
vt 0.114288 0.808661
vt 0.125012 0.808661
vt 0.242209 0.869185
vt 0.231484 0.869185
vt 0.231484 0.808146
vt 0.242209 0.808146
vt 0.090848 0.800912
vt 0.090848 0.796851
vt 0.101122 0.796851
vt 0.101122 0.800912
vt 0.090848 0.785265
vt 0.101122 0.785265
vt 0.111847 0.796851
vt 0.111847 0.800912
vt 0.090848 0.738814
vt 0.101122 0.738814
vt 0.111847 0.785265
vt 0.152898 0.796851
vt 0.152898 0.800912
vt 0.101122 0.725419
vt 0.090848 0.725419
vt 0.111847 0.738814
vt 0.152898 0.785265
vt 0.111847 0.725419
vt 0.101122 0.722809
vt 0.090848 0.722809
vt 0.152898 0.738814
vt 0.111847 0.722809
vt 0.152898 0.725419
vt 0.152898 0.722809
vt 0.508849 0.796471
vt 0.512910 0.796471
vt 0.512910 0.806745
vt 0.508849 0.806745
vt 0.508849 0.785746
vt 0.512910 0.785746
vt 0.524496 0.796471
vt 0.524496 0.806745
vt 0.508849 0.752450
vt 0.512910 0.752450
vt 0.570947 0.796471
vt 0.570947 0.806745
vt 0.508849 0.740860
vt 0.512910 0.740860
vt 0.524496 0.752450
vt 0.524496 0.785746
vt 0.570947 0.785746
vt 0.584342 0.796471
vt 0.584342 0.806745
vt 0.508849 0.728641
vt 0.512910 0.728641
vt 0.570947 0.752450
vt 0.586952 0.796471
vt 0.586952 0.806745
vt 0.524496 0.728641
vt 0.524496 0.740860
vt 0.570947 0.740860
vt 0.584342 0.752450
vt 0.584342 0.785746
vt 0.586952 0.785746
vt 0.570947 0.728641
vt 0.586952 0.752450
vt 0.584342 0.740860
vt 0.584342 0.728641
vt 0.586952 0.740860
vt 0.586952 0.728641
vt 0.063431 0.750100
vt 0.063431 0.746039
vt 0.075650 0.746039
vt 0.075650 0.750100
vt 0.059596 0.750100
vt 0.059596 0.746039
vt 0.063431 0.734452
vt 0.075650 0.734452
vt 0.059596 0.734452
vt 0.063431 0.688001
vt 0.075650 0.688001
vt 0.059596 0.688001
vt 0.063431 0.674606
vt 0.075650 0.674606
vt 0.059596 0.674606
vt 0.063431 0.671996
vt 0.075650 0.671996
vt 0.059596 0.671996
vt 0.588933 0.964278
vt 0.588933 0.952688
vt 0.600519 0.952688
vt 0.600519 0.964278
vt 0.836998 0.952688
vt 0.847723 0.952688
vt 0.847723 0.964274
vt 0.836998 0.964274
vt 0.204008 0.964130
vt 0.192419 0.964130
vt 0.192419 0.950735
vt 0.204008 0.950735
vt 0.380891 0.950735
vt 0.380891 0.964130
vt 0.370166 0.964130
vt 0.370166 0.950735
vt 0.000998 0.002239
vt 0.005059 0.002239
vt 0.005059 0.080342
vt 0.000998 0.080342
vt 0.016645 0.002239
vt 0.016645 0.080342
vt 0.005059 0.207670
vt 0.000998 0.207670
vt 0.063096 0.002239
vt 0.063096 0.080342
vt 0.016645 0.207670
vt 0.076491 0.002239
vt 0.076491 0.080342
vt 0.063096 0.207670
vt 0.079101 0.002239
vt 0.079101 0.080342
vt 0.076491 0.207670
vt 0.079101 0.207670
vt 0.426811 0.722782
vt 0.430872 0.722782
vt 0.430872 0.800885
vt 0.426811 0.800885
vt 0.442459 0.722782
vt 0.442459 0.800885
vt 0.488910 0.722782
vt 0.488910 0.800885
vt 0.502305 0.722782
vt 0.502305 0.800885
vt 0.504914 0.722782
vt 0.504914 0.800885
vt 0.590886 0.802866
vt 0.602472 0.802866
vt 0.602472 0.863905
vt 0.590886 0.863905
vt 0.096575 0.867811
vt 0.084989 0.867811
vt 0.084989 0.806772
vt 0.096575 0.806772
vt 0.789987 0.869764
vt 0.778400 0.869764
vt 0.778400 0.808725
vt 0.789987 0.808725
vt 0.426811 0.808726
vt 0.438398 0.808726
vt 0.438398 0.869765
vt 0.426811 0.869765
vt 0.454157 0.808662
vt 0.467552 0.808662
vt 0.467552 0.869701
vt 0.454157 0.869701
vt 0.496851 0.869700
vt 0.483456 0.869700
vt 0.483456 0.808661
vt 0.496851 0.808661
vt 0.112056 0.869700
vt 0.098662 0.869700
vt 0.098662 0.808661
vt 0.112056 0.808661
vt 0.127961 0.808662
vt 0.141355 0.808662
vt 0.141355 0.869701
vt 0.127961 0.869701
vt 0.270143 0.428417
vt 0.223692 0.428417
vt 0.223692 0.301090
vt 0.270143 0.301090
vt 0.212106 0.428417
vt 0.212106 0.301090
vt 0.283538 0.428417
vt 0.283538 0.301090
vt 0.208045 0.428417
vt 0.208045 0.301090
vt 0.286148 0.428417
vt 0.286148 0.301090
vn 0.000000 0.000000 1.000000
vn 0.000000 0.000000 1.000000
vn 0.000000 0.000000 1.000000
vn 0.000000 0.000000 1.000000
vn 0.000000 1.000000 0.000000
vn 0.000000 1.000000 0.000000
vn 0.000000 1.000000 0.000000
vn 0.000000 1.000000 0.000000
vn 0.000000 0.000000 -1.000000
vn 0.000000 0.000000 -1.000000
vn 0.000000 0.000000 -1.000000
vn 0.000000 0.000000 -1.000000
vn 0.000000 -1.000000 0.000000
vn 0.000000 -1.000000 0.000000
vn 0.000000 -1.000000 0.000000
vn 0.000000 -1.000000 0.000000
vn 1.000000 0.000000 0.000000
vn 1.000000 0.000000 0.000000
vn 1.000000 0.000000 0.000000
vn 1.000000 0.000000 0.000000
vn -1.000000 0.000000 0.000000
vn -1.000000 0.000000 0.000000
vn -1.000000 0.000000 0.000000
vn -1.000000 0.000000 0.000000
vn -1.000000 0.000000 0.000000
vn -1.000000 0.000000 0.000000
vn -1.000000 0.000000 0.000000
vn -1.000000 0.000000 0.000000
vn 0.000000 -1.000000 0.000000
vn 0.000000 -1.000000 0.000000
vn 0.000000 -1.000000 0.000000
vn 0.000000 -1.000000 0.000000
vn 1.000000 0.000000 0.000000
vn 1.000000 0.000000 0.000000
vn 1.000000 0.000000 0.000000
vn 1.000000 0.000000 0.000000
vn 0.000000 1.000000 0.000000
vn 0.000000 1.000000 0.000000
vn 0.000000 1.000000 0.000000
vn 0.000000 1.000000 0.000000
vn -1.000000 0.000000 0.000000
vn -1.000000 0.000000 0.000000
vn -1.000000 0.000000 0.000000
vn -1.000000 0.000000 0.000000
vn 0.000000 -1.000000 0.000000
vn 0.000000 -1.000000 0.000000
vn 0.000000 -1.000000 0.000000
vn 0.000000 -1.000000 0.000000
vn 1.000000 0.000000 0.000000
vn 1.000000 0.000000 0.000000
vn 1.000000 0.000000 0.000000
vn 1.000000 0.000000 0.000000
vn 0.000000 0.000000 1.000000
vn 0.000000 0.000000 1.000000
vn 0.000000 0.000000 1.000000
vn 0.000000 0.000000 1.000000
vn 0.000000 1.000000 0.000000
vn 0.000000 1.000000 0.000000
vn 0.000000 1.000000 0.000000
vn 0.000000 1.000000 0.000000
vn 0.000000 1.000000 0.000000
vn 0.000000 1.000000 0.000000
vn 0.000000 1.000000 0.000000
vn 0.000000 1.000000 0.000000
vn 0.000000 0.000000 -1.000000
vn 0.000000 0.000000 -1.000000
vn 0.000000 0.000000 -1.000000
vn 0.000000 0.000000 -1.000000
vn 0.000000 -1.000000 0.000000
vn 0.000000 -1.000000 0.000000
vn 0.000000 -1.000000 0.000000
vn 0.000000 -1.000000 0.000000
vn 0.000000 -1.000000 0.000000
vn 0.000000 -1.000000 0.000000
vn 0.000000 -1.000000 0.000000
vn 0.000000 -1.000000 0.000000
vn 0.000000 -1.000000 0.000000
vn 0.000000 -1.000000 0.000000
vn 0.000000 -1.000000 0.000000
vn 0.000000 -1.000000 0.000000
vn 0.000000 1.000000 0.000000
vn 0.000000 1.000000 0.000000
vn 0.000000 0.000000 1.000000
vn 0.000000 0.000000 1.000000
vn 0.000000 -1.000000 0.000000
vn 0.000000 -1.000000 0.000000
vn 0.000000 -1.000000 0.000000
vn 0.000000 -1.000000 0.000000
vn 0.000000 -1.000000 0.000000
vn 0.000000 -1.000000 0.000000
vn 0.000000 0.000000 -1.000000
vn 0.000000 0.000000 -1.000000
vn 0.000000 1.000000 0.000000
vn 0.000000 1.000000 0.000000
vn 0.000000 1.000000 0.000000
vn 0.000000 1.000000 0.000000
vn 0.000000 1.000000 0.000000
vn 0.000000 1.000000 0.000000
vn 0.000000 1.000000 0.000000
vn 0.000000 -1.000000 0.000000
vn 0.000000 -1.000000 0.000000
vn 0.000000 -1.000000 0.000000
vn 0.000000 -1.000000 0.000000
vn 0.000000 -1.000000 0.000000
vn 0.000000 -1.000000 0.000000
vn 0.000000 -1.000000 0.000000
vn 0.000000 -1.000000 0.000000
vn 0.000000 1.000000 0.000000
vn 0.000000 1.000000 0.000000
vn 0.000000 1.000000 0.000000
vn 0.000000 1.000000 0.000000
vn 0.000000 1.000000 0.000000
vn 0.000000 0.000000 1.000000
vn 0.000000 0.000000 1.000000
vn 0.000000 1.000000 0.000000
vn 0.000000 1.000000 0.000000
vn 0.000000 1.000000 0.000000
vn 0.000000 1.000000 0.000000
vn 0.000000 1.000000 0.000000
vn 0.000000 1.000000 0.000000
vn 0.000000 0.000000 -1.000000
vn 0.000000 0.000000 -1.000000
vn 0.000000 -1.000000 0.000000
vn 0.000000 -1.000000 0.000000
vn 0.000000 -1.000000 0.000000
vn 0.000000 -1.000000 0.000000
vn 0.000000 -1.000000 0.000000
vn 0.000000 -1.000000 0.000000
vn 0.000000 -1.000000 0.000000
vn 0.000000 -1.000000 0.000000
vn 0.000000 -1.000000 0.000000
vn 0.000000 -1.000000 0.000000
vn 0.000000 -1.000000 0.000000
vn 0.000000 -1.000000 0.000000
vn 0.000000 -1.000000 0.000000
vn 0.000000 -1.000000 0.000000
vn -1.000000 0.000000 0.000000
vn -1.000000 0.000000 0.000000
vn -1.000000 0.000000 0.000000
vn -1.000000 0.000000 0.000000
vn 0.000000 0.000000 -1.000000
vn 0.000000 0.000000 -1.000000
vn 0.000000 0.000000 -1.000000
vn 0.000000 0.000000 -1.000000
vn 1.000000 0.000000 0.000000
vn 1.000000 0.000000 0.000000
vn 1.000000 0.000000 0.000000
vn 1.000000 0.000000 0.000000
vn 0.000000 0.000000 1.000000
vn 0.000000 0.000000 1.000000
vn 0.000000 0.000000 1.000000
vn 0.000000 0.000000 1.000000
vn 1.000000 0.000000 0.000000
vn 1.000000 0.000000 0.000000
vn 1.000000 0.000000 0.000000
vn 1.000000 0.000000 0.000000
vn 0.000000 0.000000 1.000000
vn 0.000000 0.000000 1.000000
vn 0.000000 0.000000 1.000000
vn 0.000000 0.000000 1.000000
vn -1.000000 0.000000 0.000000
vn -1.000000 0.000000 0.000000
vn -1.000000 0.000000 0.000000
vn -1.000000 0.000000 0.000000
vn 0.000000 0.000000 -1.000000
vn 0.000000 0.000000 -1.000000
vn 0.000000 0.000000 -1.000000
vn 0.000000 0.000000 -1.000000
vn -1.000000 0.000000 0.000000
vn -1.000000 0.000000 0.000000
vn -1.000000 0.000000 0.000000
vn -1.000000 0.000000 0.000000
vn 0.000000 0.000000 -1.000000
vn 0.000000 0.000000 -1.000000
vn 0.000000 0.000000 -1.000000
vn 0.000000 0.000000 -1.000000
vn 1.000000 0.000000 0.000000
vn 1.000000 0.000000 0.000000
vn 1.000000 0.000000 0.000000
vn 1.000000 0.000000 0.000000
vn 0.000000 0.000000 1.000000
vn 0.000000 0.000000 1.000000
vn 0.000000 0.000000 1.000000
vn 0.000000 0.000000 1.000000
vn 0.000000 0.000000 1.000000
vn 0.000000 0.000000 1.000000
vn 0.000000 0.000000 1.000000
vn 0.000000 0.000000 1.000000
vn -1.000000 0.000000 0.000000
vn -1.000000 0.000000 0.000000
vn -1.000000 0.000000 0.000000
vn -1.000000 0.000000 0.000000
vn 0.000000 0.000000 -1.000000
vn 0.000000 0.000000 -1.000000
vn 0.000000 0.000000 -1.000000
vn 0.000000 0.000000 -1.000000
vn 1.000000 0.000000 0.000000
vn 1.000000 0.000000 0.000000
vn 1.000000 0.000000 0.000000
vn 1.000000 0.000000 0.000000
vn 0.000000 1.000000 0.000000
vn 0.000000 1.000000 0.000000
vn 0.000000 1.000000 0.000000
vn 0.000000 1.000000 0.000000
vn 0.000000 1.000000 0.000000
vn 0.000000 1.000000 0.000000
vn 0.000000 1.000000 0.000000
vn 0.000000 1.000000 0.000000
vn 0.000000 1.000000 0.000000
vn 0.000000 1.000000 0.000000
vn 0.000000 1.000000 0.000000
vn 0.000000 1.000000 0.000000
vn 0.000000 1.000000 0.000000
vn 0.000000 1.000000 0.000000
vn 0.000000 1.000000 0.000000
vn 0.000000 1.000000 0.000000
vn 0.000000 1.000000 0.000000
vn 0.000000 1.000000 0.000000
vn 0.000000 1.000000 0.000000
vn 0.000000 1.000000 0.000000
vn 0.000000 0.000000 1.000000
vn 0.000000 0.000000 1.000000
vn 0.000000 0.000000 1.000000
vn 0.000000 0.000000 1.000000
vn -1.000000 0.000000 0.000000
vn -1.000000 0.000000 0.000000
vn -1.000000 0.000000 0.000000
vn -1.000000 0.000000 0.000000
vn 0.000000 0.000000 1.000000
vn 0.000000 0.000000 1.000000
vn 0.000000 0.000000 1.000000
vn 0.000000 0.000000 1.000000
vn 1.000000 0.000000 0.000000
vn 1.000000 0.000000 0.000000
vn 1.000000 0.000000 0.000000
vn 1.000000 0.000000 0.000000
vn 0.000000 0.000000 1.000000
vn 0.000000 0.000000 1.000000
vn 0.000000 0.000000 1.000000
vn 0.000000 0.000000 1.000000
vn 1.000000 0.000000 0.000000
vn 1.000000 0.000000 0.000000
vn 1.000000 0.000000 0.000000
vn 1.000000 0.000000 0.000000
vn -1.000000 0.000000 0.000000
vn -1.000000 0.000000 0.000000
vn -1.000000 0.000000 0.000000
vn -1.000000 0.000000 0.000000
vn 0.000000 0.000000 1.000000
vn 0.000000 0.000000 1.000000
vn 0.000000 0.000000 1.000000
vn 0.000000 0.000000 1.000000
vn 0.000000 0.000000 1.000000
vn 0.000000 0.000000 1.000000
vn 0.000000 0.000000 1.000000
vn 0.000000 0.000000 1.000000
vn 0.000000 0.000000 -1.000000
vn 0.000000 0.000000 -1.000000
vn 0.000000 0.000000 -1.000000
vn 0.000000 0.000000 -1.000000
vn 0.000000 0.000000 -1.000000
vn 0.000000 0.000000 -1.000000
vn 0.000000 0.000000 -1.000000
vn 0.000000 0.000000 -1.000000
vn 0.000000 0.000000 -1.000000
vn 0.000000 0.000000 -1.000000
vn 0.000000 0.000000 -1.000000
vn 0.000000 0.000000 -1.000000
vn -1.000000 0.000000 0.000000
vn -1.000000 0.000000 0.000000
vn -1.000000 0.000000 0.000000
vn -1.000000 0.000000 0.000000
vn 0.000000 0.000000 -1.000000
vn 0.000000 0.000000 -1.000000
vn 0.000000 0.000000 -1.000000
vn 0.000000 0.000000 -1.000000
vn 0.000000 0.000000 -1.000000
vn 0.000000 0.000000 -1.000000
vn 0.000000 0.000000 -1.000000
vn 0.000000 0.000000 -1.000000
vn 1.000000 0.000000 0.000000
vn 1.000000 0.000000 0.000000
vn 1.000000 0.000000 0.000000
vn 1.000000 0.000000 0.000000
s 1
g car3
usemtl initialShadingGroup
f 1/159/1 17/160/2 18/161/3 3/162/4
s 2
f 81/65/5 82/66/6 83/67/7 84/68/8
s 3
f 5/177/9 20/178/10 21/179/11 7/180/12
s 4
f 40/89/13 41/90/14 17/91/15 1/92/16
s 5
f 2/1/17 43/2/18 44/3/19 4/4/20
s 6
f 39/17/21 40/18/22 1/19/23 3/20/24
f 7/31/25 31/29/26 32/28/27 5/32/28
s 4
f 7/108/29 21/109/30 38/102/31 31/101/32
s 5
f 35/13/33 36/12/34 8/15/35 6/16/36
s 10
f 32/125/37 33/126/38 20/127/39 5/128/40
s 6
f 9/25/41 10/26/42 14/22/43 13/21/44
s 4
f 10/97/45 22/98/46 23/94/47 14/93/48
s 5
f 16/6/49 15/5/50 11/9/51 12/10/52
s 1
f 25/171/53 26/170/54 2/173/55 4/174/56
s 2
f 85/83/57 86/78/58 87/79/59 88/84/60
s 10
f 30/138/61 34/137/62 35/140/63 6/141/64
s 3
f 29/186/65 30/185/66 6/187/67 8/188/68
s 4
f 36/123/69 37/121/70 29/122/71 8/124/72
f 27/117/73 28/116/74 11/120/75 15/118/76
f 26/107/77 42/106/78 43/111/79 2/112/80
s 2
f 89/69/81 90/70/82 83/67/7 82/66/6
s 1
f 18/161/3 17/160/2 45/163/83 46/164/84
s 4
f 17/91/15 41/90/14 54/95/85 45/96/86
f 23/94/47 22/98/46 52/103/87 53/104/88
f 50/113/89 51/114/90 38/102/31 21/109/30
s 3
f 21/179/11 20/178/10 49/181/91 50/182/92
s 10
f 20/127/39 33/126/38 48/131/93 49/132/94
s 6
f 32/28/27 31/29/26 10/26/42 9/25/41
s 10
f 9/129/95 19/130/96 33/126/38 32/125/37
f 47/133/97 48/131/93 33/126/38 19/130/96
f 35/140/63 34/137/62 24/139/98 12/142/99
s 5
f 12/10/52 11/9/51 36/12/34 35/13/33
s 4
f 28/116/74 37/121/70 36/123/69 11/120/75
s off
f 66/143/100 65/144/101 67/145/102 68/146/103
s 4
f 31/101/32 38/102/31 22/98/46 10/97/45
s 6
f 13/21/44 14/22/43 40/18/22 39/17/21
s 4
f 14/93/48 23/94/47 41/90/14 40/89/13
s off
f 69/147/104 70/148/105 71/149/106 72/150/107
s 4
f 43/111/79 42/106/78 27/117/73 15/118/76
s 5
f 44/3/19 43/2/18 15/5/50 16/6/49
s 2
f 91/82/108 86/78/58 85/83/57 92/86/109
f 93/71/110 83/67/7 90/70/82 94/75/111
f 84/68/8 83/67/7 93/71/110 95/72/112
s 1
f 56/168/113 57/167/114 26/170/54 25/171/53
s 2
f 86/78/58 96/74/115 97/73/116 87/79/59
f 98/80/117 96/74/115 86/78/58 91/82/108
s 10
f 34/137/62 64/134/118 55/136/119 24/139/98
f 63/135/120 64/134/118 34/137/62 30/138/61
s 3
f 62/184/121 63/183/122 30/185/66 29/186/65
s 4
f 37/121/70 61/115/123 62/119/124 29/122/71
s off
f 73/151/125 74/152/126 75/153/127 76/154/128
s 4
f 59/105/129 60/110/130 28/116/74 27/117/73
s off
f 78/155/131 77/156/132 79/157/133 80/158/134
s 4
f 57/100/135 58/99/136 42/106/78 26/107/77
s 2
f 94/75/111 90/70/82 96/74/115 98/80/117
f 97/73/116 96/74/115 90/70/82 89/69/81
s 1
f 46/164/84 45/163/83 57/167/114 56/168/113
s 4
f 45/96/86 54/95/85 58/99/136 57/100/135
f 59/105/129 58/99/136 54/95/85 53/104/88
f 53/104/88 52/103/87 60/110/130 59/105/129
f 52/103/87 51/114/90 61/115/123 60/110/130
f 62/119/124 61/115/123 51/114/90 50/113/89
s 3
f 50/182/92 49/181/91 63/183/122 62/184/121
s 10
f 49/132/94 48/131/93 64/134/118 63/135/120
f 55/136/119 64/134/118 48/131/93 47/133/97
s off
f 22/33/137 38/34/138 65/35/139 66/36/140
f 38/189/141 51/190/142 67/191/143 65/192/144
f 51/37/145 52/38/146 68/39/147 67/40/148
f 52/193/149 22/194/150 66/195/151 68/196/152
f 53/41/153 54/42/154 70/43/155 69/44/156
f 54/197/157 41/198/158 71/199/159 70/200/160
f 41/45/161 23/46/162 72/47/163 71/48/164
f 23/201/165 53/202/166 69/203/167 72/204/168
f 60/49/169 61/50/170 74/51/171 73/52/172
f 61/205/173 37/206/174 75/207/175 74/208/176
f 37/53/177 28/54/178 76/55/179 75/56/180
f 28/209/181 60/210/182 73/211/183 76/212/184
f 42/213/185 58/214/186 77/215/187 78/216/188
f 58/57/189 59/58/190 79/59/191 77/60/192
f 59/217/193 27/218/194 80/219/195 79/220/196
f 27/61/197 42/62/198 78/63/199 80/64/200
f 99/85/201 100/81/202 94/75/203 98/80/204
f 93/71/205 94/75/206 100/81/207 101/76/208
f 95/72/209 93/71/210 101/76/211 102/77/212
f 103/87/213 99/85/214 98/80/215 91/82/216
f 104/88/217 103/87/218 91/82/219 92/86/220
f 3/162/221 18/161/222 82/165/223 81/166/224
f 39/17/225 3/20/226 81/23/227 84/24/228
f 25/171/229 4/174/230 88/176/231 87/175/232
f 4/4/233 44/3/234 85/7/235 88/8/236
f 18/161/237 46/164/238 89/169/239 82/165/240
f 44/3/241 16/6/242 92/11/243 85/7/244
f 13/21/245 39/17/246 84/24/247 95/27/248
f 56/168/249 25/171/250 87/175/251 97/172/252
f 46/164/253 56/168/254 97/172/255 89/169/256
f 55/221/257 47/222/258 100/223/259 99/224/260
f 47/222/261 19/225/262 101/226/263 100/223/264
f 19/225/265 9/229/266 102/230/267 101/226/268
f 9/25/269 13/21/270 95/27/271 102/30/272
f 24/227/273 55/221/274 99/224/275 103/228/276
f 12/231/277 24/227/278 103/228/279 104/232/280
f 16/6/281 12/10/282 104/14/283 92/11/284
