# This file uses centimeters as units for non-parametric coordinates.

mtllib cat.mtl
g default
v -0.243333 0.192585 0.108973
v 0.051590 0.192585 0.143834
v -0.243333 0.524938 0.108973
v 0.051590 0.524938 0.143834
v -0.154515 0.524938 -0.642428
v 0.140408 0.524938 -0.607567
v -0.154515 0.192585 -0.642428
v 0.140408 0.192585 -0.607567
v -0.182472 0.524938 -0.405913
v -0.182472 0.192585 -0.405913
v 0.112451 0.192585 -0.371053
v 0.112451 0.524938 -0.371053
v 0.112451 0.752805 -0.371053
v -0.182472 0.752805 -0.405913
v 0.140408 0.752805 -0.607567
v -0.154515 0.752805 -0.642428
v -0.140721 0.524938 -0.759125
v 0.154202 0.524938 -0.724264
v -0.140721 0.752805 -0.759125
v 0.154202 0.752805 -0.724264
v -0.150307 0.192585 0.119969
v -0.120072 0.524938 0.123543
v -0.089446 0.524938 -0.394917
v -0.052722 0.752805 -0.390576
v -0.061489 0.752805 -0.631432
v -0.047695 0.752805 -0.748129
v -0.047695 0.524938 -0.748129
v -0.061489 0.524938 -0.631432
v -0.061489 0.192585 -0.631432
v -0.089446 0.192585 -0.394917
v 0.030327 0.524938 -0.380760
v -0.054907 0.524938 0.131246
v -0.030535 0.192585 0.134127
v 0.030327 0.192585 -0.380760
v 0.058283 0.192585 -0.617274
v 0.058283 0.524938 -0.617274
v 0.072077 0.524938 -0.733972
v 0.072077 0.752805 -0.733972
v 0.058283 0.752805 -0.617274
v -0.006398 0.752805 -0.385101
v -0.221904 0.524938 -0.072311
v -0.221904 0.192585 -0.072311
v -0.128879 0.192585 -0.061316
v -0.009106 0.192585 -0.047158
v 0.073018 0.192585 -0.037451
v 0.073018 0.524938 -0.037451
v -0.009106 0.524938 -0.047158
v -0.128879 0.524938 -0.061316
v -0.175297 0.192584 -0.466608
v -0.175297 0.524938 -0.466608
v -0.175297 0.752805 -0.466608
v -0.045547 0.752805 -0.451271
v 0.000776 0.752805 -0.445795
v 0.119625 0.752805 -0.431747
v 0.119625 0.524938 -0.431747
v 0.119625 0.192584 -0.431747
v 0.037501 0.192584 -0.441454
v -0.082272 0.192584 -0.455612
v -0.221904 0.003705 -0.072311
v -0.128879 0.003705 -0.061316
v -0.150307 0.003705 0.119969
v -0.243333 0.003705 0.108973
v -0.154515 0.003705 -0.642428
v -0.061489 0.003705 -0.631432
v -0.082272 0.003705 -0.455612
v -0.175297 0.003705 -0.466608
v 0.119625 0.003705 -0.431747
v 0.037501 0.003705 -0.441454
v 0.058283 0.003705 -0.617274
v 0.140408 0.003705 -0.607567
v -0.030535 0.003705 0.134127
v -0.009106 0.003705 -0.047158
v 0.073018 0.003705 -0.037451
v 0.051590 0.003705 0.143834
v -0.105099 0.855227 -0.395161
v -0.144707 0.855227 -0.399842
v -0.097550 0.855227 -0.459025
v -0.137158 0.855227 -0.463707
v 0.044306 0.855227 -0.442258
v 0.079273 0.855227 -0.438124
v 0.036757 0.855227 -0.378393
v 0.071724 0.855227 -0.374260
v -0.243333 0.412383 0.108973
v -0.221904 0.412383 -0.072311
v -0.182472 0.412383 -0.405913
v -0.175297 0.412383 -0.466608
v -0.154515 0.412383 -0.642428
v -0.061489 0.412383 -0.631432
v 0.058283 0.412383 -0.617274
v 0.140408 0.412383 -0.607567
v 0.119625 0.412383 -0.431747
v 0.112451 0.412383 -0.371053
v 0.073018 0.412383 -0.037451
v 0.051590 0.412383 0.143834
v -0.054907 0.412383 0.131246
v -0.120072 0.412383 0.123543
v -0.142233 0.039114 0.384917
v -0.148761 0.104109 0.440146
v -0.094296 0.039114 0.390583
v -0.100824 0.104109 0.445813
vt 0.000998 0.247104
vt 0.022132 0.247104
vt 0.022132 0.284289
vt 0.000998 0.284289
vt 0.000998 0.215150
vt 0.022132 0.215150
vt 0.061023 0.284289
vt 0.061023 0.247104
vt 0.022132 0.303331
vt 0.000998 0.303331
vt 0.061023 0.303331
vt 0.068099 0.284289
vt 0.068099 0.247104
vt 0.068099 0.303331
vt 0.088596 0.284289
vt 0.088596 0.247104
vt 0.088596 0.303331
vt 0.068099 0.341880
vt 0.061023 0.341880
vt 0.068099 0.215150
vt 0.088596 0.215150
vt 0.088596 0.341880
vt 0.068284 0.359208
vt 0.060838 0.359208
vt 0.102200 0.303331
vt 0.102200 0.341880
vt 0.205724 0.284289
vt 0.184590 0.284289
vt 0.184590 0.247104
vt 0.205724 0.247104
vt 0.184590 0.303331
vt 0.205724 0.303331
vt 0.145699 0.284289
vt 0.145699 0.247104
vt 0.184590 0.215150
vt 0.205724 0.215150
vt 0.145699 0.303331
vt 0.138623 0.284289
vt 0.138623 0.247104
vt 0.138623 0.303331
vt 0.118126 0.247104
vt 0.118126 0.284289
vt 0.118126 0.303331
vt 0.138623 0.341880
vt 0.145699 0.341880
vt 0.118126 0.215150
vt 0.138623 0.215150
vt 0.118126 0.341880
vt 0.145883 0.359208
vt 0.138438 0.359208
vt 0.104521 0.341880
vt 0.104521 0.303331
vt 0.893291 0.935861
vt 0.872157 0.935861
vt 0.872157 0.903908
vt 0.893291 0.903908
vt 0.169944 0.939813
vt 0.149447 0.939813
vt 0.149447 0.907859
vt 0.169944 0.907859
vt 0.916094 0.945047
vt 0.895597 0.945047
vt 0.895597 0.913093
vt 0.916094 0.913093
vt 0.572955 0.946218
vt 0.551821 0.946218
vt 0.551821 0.914264
vt 0.572955 0.914264
vt 0.305708 0.728869
vt 0.305708 0.709827
vt 0.336060 0.646679
vt 0.342499 0.657675
vt 0.057321 0.725453
vt 0.057321 0.744495
vt 0.020531 0.673301
vt 0.026969 0.662305
vt 0.290082 0.639523
vt 0.290082 0.602912
vt 0.311216 0.611892
vt 0.311216 0.639523
vt 0.311216 0.576317
vt 0.290082 0.583556
vt 0.350107 0.611892
vt 0.350107 0.639523
vt 0.350107 0.576317
vt 0.311216 0.551925
vt 0.290082 0.551925
vt 0.350107 0.551925
vt 0.000998 0.949216
vt 0.000998 0.921586
vt 0.022132 0.921586
vt 0.022132 0.949216
vt 0.684643 0.949216
vt 0.684643 0.921586
vt 0.705140 0.921586
vt 0.705140 0.949216
vt 0.359663 0.639523
vt 0.359663 0.600984
vt 0.380160 0.611892
vt 0.380160 0.639523
vt 0.359663 0.587225
vt 0.380160 0.576317
vt 0.393764 0.611892
vt 0.393764 0.639523
vt 0.352587 0.600984
vt 0.352587 0.587225
vt 0.359663 0.551925
vt 0.380160 0.551925
vt 0.393764 0.576317
vt 0.393764 0.551925
vt 0.901456 0.063023
vt 0.915061 0.063023
vt 0.915061 0.090653
vt 0.901456 0.090653
vt 0.901456 0.027448
vt 0.915061 0.027448
vt 0.915061 0.003056
vt 0.901456 0.003056
vt 0.961019 0.941119
vt 0.961019 0.965511
vt 0.940522 0.965511
vt 0.940522 0.941119
vt 0.891338 0.967013
vt 0.870204 0.967013
vt 0.870204 0.942620
vt 0.891338 0.942620
vt 0.934947 0.687398
vt 0.934947 0.666264
vt 0.970521 0.666264
vt 0.970521 0.687398
vt 0.934947 0.627373
vt 0.970521 0.627373
vt 0.907316 0.627373
vt 0.907316 0.666264
vt 0.934947 0.620297
vt 0.970521 0.620297
vt 0.994914 0.666264
vt 0.994914 0.627373
vt 0.907316 0.620297
vt 0.934947 0.599800
vt 0.970521 0.599800
vt 0.994914 0.620297
vt 0.713942 0.052301
vt 0.713942 0.040536
vt 0.721388 0.040536
vt 0.721388 0.052301
vt 0.714127 0.025035
vt 0.721203 0.025035
vt 0.440116 0.921134
vt 0.440116 0.931520
vt 0.432671 0.931520
vt 0.432671 0.921134
vt 0.439932 0.944394
vt 0.432856 0.944394
vt 0.520568 0.575254
vt 0.548199 0.575254
vt 0.557179 0.612438
vt 0.520568 0.612438
vt 0.520568 0.543300
vt 0.548199 0.543300
vt 0.576535 0.612438
vt 0.583774 0.575254
vt 0.557179 0.631480
vt 0.520568 0.631480
vt 0.608166 0.612438
vt 0.608166 0.575254
vt 0.576535 0.631480
vt 0.608166 0.631480
vt 0.583774 0.543300
vt 0.608166 0.543300
vt 0.200232 0.567828
vt 0.227862 0.567828
vt 0.227862 0.605012
vt 0.200232 0.605012
vt 0.200232 0.548786
vt 0.227862 0.548786
vt 0.263437 0.567828
vt 0.263437 0.605012
vt 0.227862 0.636966
vt 0.200232 0.636966
vt 0.263437 0.548786
vt 0.287829 0.567828
vt 0.287829 0.605012
vt 0.287829 0.548786
vt 0.287829 0.636966
vt 0.263437 0.636966
vt 0.032250 0.664915
vt 0.032250 0.637285
vt 0.070800 0.626377
vt 0.070800 0.664915
vt 0.032250 0.601710
vt 0.070800 0.612618
vt 0.088127 0.641878
vt 0.088127 0.653643
vt 0.032250 0.577317
vt 0.070800 0.577317
vt 0.088127 0.589358
vt 0.088127 0.599744
vt 0.733475 0.635331
vt 0.772025 0.635331
vt 0.772025 0.662962
vt 0.733475 0.662962
vt 0.733475 0.599756
vt 0.772025 0.599756
vt 0.772025 0.575364
vt 0.733475 0.575364
vt 0.077176 0.911720
vt 0.104806 0.911720
vt 0.104806 0.943674
vt 0.077176 0.943674
vt 0.259114 0.945673
vt 0.231484 0.945673
vt 0.231484 0.913719
vt 0.259114 0.913719
vt 0.384793 0.943763
vt 0.360400 0.943763
vt 0.360400 0.911809
vt 0.384793 0.911809
vt 0.581120 0.913773
vt 0.605512 0.913773
vt 0.605512 0.945727
vt 0.581120 0.945727
vt 0.889485 0.861539
vt 0.889485 0.900077
vt 0.872157 0.888804
vt 0.872157 0.877040
vt 0.576961 0.875212
vt 0.576961 0.910512
vt 0.559634 0.897639
vt 0.559634 0.887253
vt 0.155306 0.802941
vt 0.174662 0.802941
vt 0.172103 0.866089
vt 0.157865 0.866089
vt 0.368036 0.726915
vt 0.348680 0.726915
vt 0.351239 0.655721
vt 0.365477 0.655721
vt 0.351239 0.644726
vt 0.365477 0.644726
vn -0.117386 0.000000 0.993086
vn -0.117386 0.000000 0.993086
vn -0.117386 0.000000 0.993086
vn -0.117386 0.000000 0.993086
vn 0.000000 1.000000 -0.000000
vn 0.000000 1.000000 -0.000000
vn 0.000000 1.000000 -0.000000
vn 0.000000 1.000000 -0.000000
vn 0.117386 0.000000 -0.993086
vn 0.117386 0.000000 -0.993086
vn 0.117386 0.000000 -0.993086
vn 0.117386 0.000000 -0.993086
vn -0.000000 -1.000000 0.000000
vn -0.000000 -1.000000 0.000000
vn -0.000000 -1.000000 0.000000
vn -0.000000 -1.000000 0.000000
vn 0.993086 0.000000 0.117386
vn 0.993086 0.000000 0.117386
vn 0.993086 0.000000 0.117386
vn 0.993086 0.000000 0.117386
vn -0.993086 -0.000000 -0.117386
vn -0.993086 -0.000000 -0.117386
vn -0.993086 -0.000000 -0.117386
vn -0.993086 -0.000000 -0.117386
vn -0.993086 -0.000000 -0.117386
vn -0.993086 -0.000000 -0.117386
vn -0.993086 -0.000000 -0.117386
vn -0.993086 -0.000000 -0.117386
vn -0.000000 -1.000000 0.000001
vn -0.000000 -1.000000 0.000001
vn -0.000000 -1.000000 0.000001
vn -0.000000 -1.000000 0.000001
vn 0.993086 0.000000 0.117386
vn 0.993086 0.000000 0.117386
vn 0.993086 0.000000 0.117386
vn 0.993086 0.000000 0.117386
vn -0.000000 1.000000 0.000001
vn -0.000000 1.000000 0.000000
vn -0.000000 1.000000 0.000001
vn -0.000000 1.000000 0.000001
vn -0.117386 0.000000 0.993086
vn -0.117386 0.000000 0.993086
vn -0.117386 0.000000 0.993086
vn -0.117386 0.000000 0.993086
vn 0.993086 0.000000 0.117386
vn 0.993086 0.000000 0.117386
vn 0.993086 0.000000 0.117386
vn 0.993086 0.000000 0.117386
vn 0.117386 0.000000 -0.993086
vn 0.117386 0.000000 -0.993086
vn 0.117386 0.000000 -0.993086
vn 0.117386 0.000000 -0.993086
vn -0.993086 0.000000 -0.117386
vn -0.993086 0.000000 -0.117386
vn -0.993086 0.000000 -0.117386
vn -0.993086 0.000000 -0.117386
vn 0.000000 -1.000000 0.000000
vn 0.000000 -1.000000 0.000000
vn 0.000000 -1.000000 0.000000
vn 0.000000 -1.000000 0.000000
vn -0.993086 0.000000 -0.117386
vn -0.993086 0.000000 -0.117386
vn -0.993086 0.000000 -0.117386
vn -0.993086 0.000000 -0.117386
vn 0.000000 1.000000 0.000000
vn 0.000000 1.000000 0.000000
vn 0.000000 1.000000 0.000000
vn 0.000000 1.000000 0.000000
vn 0.993086 0.000000 0.117386
vn 0.993086 0.000000 0.117386
vn 0.993086 0.000000 0.117386
vn 0.993086 0.000000 0.117386
vn -0.117386 0.000000 0.993086
vn -0.117386 0.000000 0.993086
vn -0.117386 0.000000 0.993086
vn -0.117386 0.000000 0.993086
vn 0.000000 1.000000 0.000000
vn -0.000000 1.000000 0.000000
vn -0.000000 1.000000 0.000000
vn -0.000000 1.000000 0.000000
vn -0.117386 0.000000 0.993086
vn -0.117386 0.000000 0.993086
vn -0.117386 0.000000 0.993086
vn -0.117386 0.000000 0.993086
vn -0.000000 1.000000 0.000001
vn -0.000000 1.000000 0.000000
vn -0.000000 1.000000 0.000001
vn -0.000000 1.000000 0.000001
vn 0.000000 1.000000 0.000000
vn 0.000000 1.000000 0.000000
vn 0.000000 1.000000 0.000000
vn 0.000000 1.000000 0.000000
vn 0.117386 0.000000 -0.993086
vn 0.117386 0.000000 -0.993086
vn 0.117386 0.000000 -0.993086
vn 0.117386 0.000000 -0.993086
vn 0.000000 -1.000000 0.000000
vn 0.000000 -1.000000 0.000000
vn 0.000000 -1.000000 0.000000
vn 0.000000 -1.000000 0.000000
vn 0.117386 0.000000 -0.993086
vn 0.117386 0.000000 -0.993086
vn 0.117386 0.000000 -0.993086
vn 0.117386 0.000000 -0.993086
vn 0.000000 -1.000000 0.000000
vn 0.000000 -1.000000 0.000000
vn 0.000000 -1.000000 0.000000
vn 0.000000 -1.000000 0.000000
vn 0.000000 -1.000000 0.000000
vn 0.000000 -1.000000 0.000000
vn 0.000000 -1.000000 0.000000
vn 0.000000 -1.000000 0.000000
vn 0.000000 -1.000000 0.000000
vn 0.000000 -1.000000 -0.000000
vn 0.000000 -1.000000 0.000000
vn 0.000000 -1.000000 0.000000
vn -0.000000 -1.000000 0.000000
vn -0.000000 -1.000000 0.000000
vn 0.000000 -1.000000 -0.000001
vn 0.000000 -1.000000 -0.000001
vn -0.993086 -0.000000 -0.117386
vn -0.993086 -0.000000 -0.117386
vn -0.000000 -1.000000 0.000000
vn -0.000000 -1.000000 0.000000
vn 0.000000 -1.000000 -0.000000
vn -0.000000 -1.000000 0.000000
vn 0.000000 -1.000000 0.000000
vn -0.000000 -1.000000 0.000000
vn 0.993086 0.000000 0.117386
vn 0.993086 0.000000 0.117386
vn -0.000000 1.000000 0.000000
vn 0.000000 1.000000 -0.000000
vn -0.000000 1.000000 0.000000
vn 0.000000 1.000000 0.000000
vn -0.993086 0.000000 -0.117386
vn -0.993086 0.000000 -0.117386
vn 0.000002 1.000000 0.000000
vn 0.000002 1.000000 0.000000
vn 0.000002 1.000000 0.000000
vn 0.000002 1.000000 0.000000
vn 0.000000 1.000000 -0.000002
vn 0.000000 1.000000 -0.000002
vn 0.000000 1.000000 0.000000
vn 0.000000 1.000000 0.000000
vn 0.000000 1.000000 0.000000
vn 0.000000 1.000000 0.000000
vn 0.993086 0.000000 0.117386
vn 0.993086 0.000000 0.117386
vn -0.000000 -1.000000 0.000002
vn -0.000000 -1.000000 0.000002
vn 0.117386 0.000000 -0.993086
vn 0.117386 0.000000 -0.993086
vn 0.117386 0.000000 -0.993086
vn 0.117386 0.000000 -0.993086
vn 0.993086 0.000000 0.117386
vn 0.993086 0.000000 0.117386
vn 0.993086 0.000000 0.117386
vn 0.993086 0.000000 0.117386
vn -0.117386 0.000000 0.993086
vn -0.117386 0.000000 0.993086
vn -0.117386 0.000000 0.993086
vn -0.117386 0.000000 0.993086
vn -0.993086 0.000000 -0.117386
vn -0.993086 0.000000 -0.117386
vn -0.993086 0.000000 -0.117386
vn -0.993086 0.000000 -0.117386
vn 0.117386 0.000000 -0.993086
vn 0.117386 0.000000 -0.993086
vn 0.117386 0.000000 -0.993086
vn 0.117386 0.000000 -0.993086
vn 0.993086 0.000000 0.117386
vn 0.993086 0.000000 0.117386
vn 0.993086 0.000000 0.117386
vn 0.993086 0.000000 0.117386
vn -0.117386 0.000000 0.993086
vn -0.117386 0.000000 0.993086
vn -0.117386 0.000000 0.993086
vn -0.117386 0.000000 0.993086
vn -0.993086 0.000000 -0.117386
vn -0.993086 0.000000 -0.117386
vn -0.993086 0.000000 -0.117386
vn -0.993086 0.000000 -0.117386
vn -0.117386 0.000000 0.993086
vn -0.117386 0.000000 0.993086
vn -0.117386 0.000000 0.993086
vn -0.117386 0.000000 0.993086
vn -0.993086 0.000000 -0.117386
vn -0.993086 0.000000 -0.117386
vn -0.993086 0.000000 -0.117386
vn -0.993086 0.000000 -0.117386
vn 0.117386 0.000000 -0.993086
vn 0.117386 0.000000 -0.993086
vn 0.117386 0.000000 -0.993086
vn 0.117386 0.000000 -0.993086
vn 0.993086 0.000000 0.117386
vn 0.993086 0.000000 0.117386
vn 0.993086 0.000000 0.117386
vn 0.993086 0.000000 0.117386
vn -0.993086 0.000000 -0.117386
vn -0.993086 0.000000 -0.117386
vn -0.993086 0.000000 -0.117386
vn -0.993086 0.000000 -0.117386
vn 0.117386 0.000000 -0.993086
vn 0.117386 0.000000 -0.993086
vn 0.117386 0.000000 -0.993086
vn 0.117386 0.000000 -0.993086
vn 0.993086 0.000000 0.117386
vn 0.993086 0.000000 0.117386
vn 0.993086 0.000000 0.117386
vn 0.993086 0.000000 0.117386
vn -0.117386 0.000000 0.993086
vn -0.117386 0.000000 0.993086
vn -0.117386 0.000000 0.993086
vn -0.117386 0.000000 0.993086
vn -0.117371 -0.015581 0.992966
vn -0.117371 -0.015581 0.992966
vn -0.117371 -0.015581 0.992966
vn -0.117371 -0.015581 0.992966
vn 0.883563 0.456518 0.104440
vn 0.883563 0.456518 0.104440
vn 0.883563 0.456518 0.104440
vn 0.883563 0.456518 0.104440
vn 0.117371 -0.015584 -0.992966
vn 0.117371 -0.015584 -0.992966
vn 0.117371 -0.015584 -0.992966
vn 0.117371 -0.015584 -0.992966
vn -0.930428 0.349582 -0.109980
vn -0.930428 0.349582 -0.109980
vn -0.930429 0.349582 -0.109980
vn -0.930428 0.349581 -0.109980
vn 0.117372 -0.015584 -0.992966
vn 0.117372 -0.015584 -0.992966
vn 0.117372 -0.015584 -0.992966
vn 0.117372 -0.015584 -0.992966
vn -0.913599 0.392014 -0.107991
vn -0.913599 0.392014 -0.107991
vn -0.913599 0.392014 -0.107991
vn -0.913599 0.392014 -0.107991
vn -0.117372 -0.015581 0.992966
vn -0.117372 -0.015581 0.992966
vn -0.117372 -0.015581 0.992966
vn -0.117372 -0.015581 0.992966
vn 0.922512 0.370244 0.109043
vn 0.922512 0.370244 0.109043
vn 0.922512 0.370244 0.109043
vn 0.922512 0.370244 0.109043
vn -0.993086 0.000000 -0.117386
vn -0.993086 0.000000 -0.117386
vn -0.993086 0.000000 -0.117386
vn -0.993086 0.000000 -0.117386
vn -0.993086 0.000000 -0.117386
vn 0.117386 0.000000 -0.993086
vn 0.117386 0.000000 -0.993086
vn 0.117386 0.000000 -0.993086
vn 0.117386 0.000000 -0.993086
vn 0.993086 0.000000 0.117386
vn 0.993086 0.000000 0.117386
vn 0.993086 0.000000 0.117386
vn 0.993086 0.000000 0.117386
vn 0.993086 0.000000 0.117386
vn -0.117386 0.000000 0.993086
vn -0.117386 0.000000 0.993086
vn -0.089191 -0.650146 0.754557
vn -0.089191 -0.650146 0.754557
vn -0.089191 -0.650146 0.754557
vn -0.089191 -0.650146 0.754557
vn -0.117386 0.000000 0.993086
vn -0.117386 0.000000 0.993086
vn -0.995304 -0.006556 -0.096573
vn -0.995304 -0.006556 -0.096573
vn -0.995304 -0.006556 -0.096573
vn -0.995304 -0.006556 -0.096573
vn 0.096060 -0.574756 -0.812667
vn 0.096060 -0.574756 -0.812667
vn 0.096060 -0.574756 -0.812667
vn 0.096060 -0.574756 -0.812667
vn 0.990391 -0.006556 0.138142
vn 0.990391 -0.006556 0.138142
vn 0.990391 -0.006556 0.138142
vn 0.990391 -0.006556 0.138142
vn -0.093677 0.602619 0.792512
vn -0.093677 0.602619 0.792512
vn -0.093677 0.602619 0.792512
vn -0.093677 0.602619 0.792512
s 1
g deer2
usemtl initialShadingGroup
f 1/155/1 21/156/2 96/157/3 83/158/4
s 2
f 3/77/5 22/78/6 48/79/7 41/80/8
s 3
f 87/171/9 88/172/10 29/173/11 7/174/12
s off
f 59/89/13 60/90/14 61/91/15 62/92/16
s 4
f 2/1/17 45/2/18 93/3/19 94/4/20
s 5
f 83/27/21 84/28/22 42/29/23 1/30/24
f 7/41/25 49/39/26 86/38/27 87/42/28
s off
f 63/93/29 64/94/30 65/95/31 66/96/32
s 4
f 90/15/33 91/12/34 56/13/35 8/16/36
s 8
f 51/97/37 52/98/38 25/99/39 16/100/40
s 9
f 9/187/41 23/188/42 24/189/43 14/190/44
s 10
f 54/18/45 55/14/46 6/17/47 15/22/48
s 11
f 26/199/49 27/200/50 17/201/51 19/202/52
s 12
f 5/43/53 50/40/54 51/44/55 16/48/56
s 13
f 27/111/57 28/112/58 5/113/59 17/114/60
s off
f 5/43/61 16/48/62 19/51/63 17/52/64
s 14
f 16/100/65 25/99/66 26/103/67 19/104/68
s off
f 15/22/69 6/17/70 18/25/71 20/26/72
s 1
f 94/165/73 95/161/74 33/162/75 2/166/76
s 2
f 46/86/77 47/81/78 32/82/79 4/87/80
s 9
f 40/192/81 31/191/82 12/195/83 13/196/84
s 8
f 39/102/85 53/101/86 54/107/87 15/108/88
s 14
f 38/109/89 39/102/90 15/108/91 20/110/92
s 11
f 18/205/93 37/204/94 38/203/95 20/206/96
s 13
f 6/117/97 36/116/98 37/115/99 18/118/100
s 3
f 35/178/101 89/177/102 90/182/103 8/183/104
s off
f 67/119/105 68/120/106 69/121/107 70/122/108
f 71/123/109 72/124/110 73/125/111 74/126/112
s 2
f 47/81/78 48/79/7 22/78/6 32/82/79
s 1
f 95/161/74 96/157/3 21/156/2 33/162/75
s 17
f 21/127/113 43/128/114 44/129/115 33/130/116
f 57/136/117 58/135/118 29/140/119 35/141/120
s 3
f 29/173/11 88/172/10 89/177/102 35/178/101
s 13
f 37/115/99 36/116/98 28/112/58 27/111/57
s 11
f 38/203/95 37/204/94 27/200/50 26/199/49
s 14
f 26/103/67 25/99/66 39/102/90 38/109/89
s 8
f 25/99/39 52/98/38 53/101/86 39/102/85
s 9
f 24/189/43 23/188/42 31/191/82 40/192/81
s 5
f 84/28/22 85/33/121 10/34/122 42/29/23
s 17
f 10/133/123 30/131/124 43/128/114 42/134/125
f 44/129/115 43/128/114 30/131/124 34/132/126
f 45/137/127 44/129/115 34/132/126 11/138/128
s 4
f 92/7/129 93/3/19 45/2/18 11/8/130
s 2
f 31/85/131 47/81/78 46/86/77 12/88/132
f 23/83/133 48/79/7 47/81/78 31/85/131
f 41/80/8 48/79/7 23/83/133 9/84/134
s 5
f 85/33/121 86/38/27 49/39/26 10/34/122
s 12
f 51/44/55 50/40/54 9/37/135 14/45/136
s off
f 76/143/137 75/144/138 77/145/139 78/146/140
s 8
f 53/101/86 52/98/38 24/105/141 40/106/142
s off
f 80/149/143 79/150/144 81/151/145 82/152/146
s 10
f 12/11/147 55/14/46 54/18/45 13/19/148
s 4
f 91/12/34 92/7/129 11/8/130 56/13/35
s 17
f 34/132/126 57/136/117 56/142/149 11/138/128
f 30/131/124 58/135/118 57/136/117 34/132/126
f 49/139/150 58/135/118 30/131/124 10/133/123
s off
f 42/207/151 43/208/152 60/209/153 59/210/154
f 43/53/155 21/54/156 61/55/157 60/56/158
f 21/156/159 1/155/160 62/159/161 61/160/162
f 1/30/163 42/29/164 59/35/165 62/36/166
f 7/174/167 29/173/168 64/179/169 63/180/170
f 29/57/171 58/58/172 65/59/173 64/60/174
f 58/211/175 49/212/176 66/213/177 65/214/178
f 49/39/179 7/41/180 63/46/181 66/47/182
f 56/215/183 57/216/184 68/217/185 67/218/186
f 57/61/187 35/62/188 69/63/189 68/64/190
f 35/178/191 8/183/192 70/185/193 69/186/194
f 8/16/195 56/13/196 67/20/197 70/21/198
f 33/65/199 44/66/200 72/67/201 71/68/202
f 44/219/203 45/220/204 73/221/205 72/222/206
f 45/2/207 2/1/208 74/5/209 73/6/210
f 2/166/211 33/162/212 71/169/213 74/170/214
f 14/190/215 24/189/216 75/193/217 76/194/218
f 24/147/219 52/148/220 77/145/221 75/144/222
f 52/223/223 51/224/224 78/225/225 77/226/226
f 51/44/227 14/45/228 76/49/229 78/50/230
f 54/227/231 53/228/232 79/229/233 80/230/234
f 53/153/235 40/154/236 81/151/237 79/150/238
f 40/192/239 13/196/240 82/197/241 81/198/242
f 13/19/243 54/18/244 80/23/245 82/24/246
s 5
f 41/31/247 84/28/22 83/27/21 3/32/248
f 9/37/249 85/33/121 84/28/22 41/31/247
f 50/40/250 86/38/27 85/33/121 9/37/249
f 87/42/28 86/38/27 50/40/250 5/43/251
s 3
f 5/175/252 28/176/253 88/172/10 87/171/9
f 89/177/102 88/172/10 28/176/253 36/181/254
f 90/182/103 89/177/102 36/181/254 6/184/255
s 4
f 55/14/256 91/12/34 90/15/33 6/17/257
f 12/11/258 92/7/129 91/12/34 55/14/256
f 46/9/259 93/3/19 92/7/129 12/11/258
f 94/4/20 93/3/19 46/9/259 4/10/260
s 1
f 32/167/261 95/161/74 94/165/73 4/168/262
s off
f 98/237/263 97/239/264 99/240/265 100/238/266
s 1
f 83/158/4 96/157/3 22/163/267 3/164/268
s off
f 22/69/269 96/70/270 97/71/271 98/72/272
f 96/231/273 95/232/274 99/233/275 97/234/276
f 95/73/277 32/74/278 100/75/279 99/76/280
f 32/235/281 22/236/282 98/237/283 100/238/284
