# This file uses centimeters as units for non-parametric coordinates.

mtllib cow.mtl
g default
v -0.194871 0.556850 0.557564
v 0.281214 0.556850 0.556515
v -0.194871 1.089651 0.557564
v 0.281214 1.089651 0.556515
v -0.197545 1.089651 -0.655400
v 0.278540 1.089651 -0.656450
v -0.197545 0.556850 -0.655400
v 0.278540 0.556850 -0.656450
v -0.196703 1.089651 -0.273603
v -0.196703 0.556850 -0.273603
v 0.279382 0.556850 -0.274652
v 0.279382 1.089651 -0.274652
v 0.279382 1.454948 -0.274652
v -0.196703 1.454948 -0.273603
v 0.278540 1.454948 -0.656450
v -0.197545 1.454948 -0.655400
v -0.198322 1.089651 -1.007956
v 0.277763 1.089651 -1.009005
v -0.198322 1.454948 -1.007956
v 0.277763 1.454948 -1.009005
v -0.044703 0.556850 0.557233
v -0.044703 1.089651 0.557233
v -0.046535 1.089651 -0.273934
v -0.046535 1.454948 -0.273934
v -0.047377 1.454948 -0.655731
v -0.048154 1.454948 -1.008287
v -0.048154 1.089651 -1.008287
v -0.047377 1.089651 -0.655731
v -0.047377 0.556850 -0.655731
v -0.046535 0.556850 -0.273934
v 0.146811 1.089651 -0.274360
v 0.148643 1.089651 0.556807
v 0.148643 0.556850 0.556807
v 0.146811 0.556850 -0.274360
v 0.145969 0.556850 -0.656157
v 0.145969 1.089651 -0.656157
v 0.145192 1.089651 -1.008713
v 0.145192 1.454948 -1.008713
v 0.145969 1.454948 -0.656157
v 0.146811 1.454948 -0.274360
v -0.195516 1.089651 0.264922
v -0.195516 0.556850 0.264922
v -0.045348 0.556850 0.264591
v 0.147998 0.556850 0.264164
v 0.280569 0.556850 0.263872
v 0.280569 1.089651 0.263872
v 0.147998 1.089651 0.264164
v -0.045348 1.089651 0.264591
v -0.196919 0.556849 -0.371580
v -0.196919 1.089651 -0.371580
v -0.196919 1.454948 -0.371580
v -0.046751 1.454948 -0.371911
v 0.146595 1.454948 -0.372337
v 0.279166 1.454948 -0.372629
v 0.279166 1.089651 -0.372629
v 0.279166 0.556849 -0.372629
v 0.146595 0.556849 -0.372337
v -0.046751 0.556849 -0.371911
v -0.195516 -0.005813 0.264922
v -0.045348 -0.005813 0.264591
v -0.044703 -0.005813 0.557233
v -0.194871 -0.005813 0.557564
v -0.197545 -0.005813 -0.655400
v -0.047377 -0.005813 -0.655731
v -0.046751 -0.005813 -0.371911
v -0.196919 -0.005813 -0.371580
v 0.279166 -0.005813 -0.372629
v 0.146595 -0.005813 -0.372337
v 0.145969 -0.005813 -0.656157
v 0.278540 -0.005813 -0.656450
v 0.148643 -0.005813 0.556807
v 0.147998 -0.005813 0.264164
v 0.280569 -0.005813 0.263872
v 0.281214 -0.005813 0.556515
v 0.279382 1.272299 -0.274652
v 0.146811 1.272299 -0.274360
v -0.046535 1.272299 -0.273934
v -0.196703 1.272299 -0.273603
v -0.196919 1.272299 -0.371580
v -0.197545 1.272299 -0.655400
v -0.198322 1.272299 -1.007956
v -0.048154 1.272299 -1.008287
v 0.145192 1.272299 -1.008713
v 0.277763 1.272299 -1.009005
v 0.278540 1.272299 -0.656450
v 0.279166 1.272299 -0.372629
v -0.197232 0.556850 -0.513491
v -0.197232 1.089651 -0.513491
v -0.197232 1.272299 -0.513491
v -0.197232 1.454948 -0.513491
v -0.047064 1.454948 -0.513822
v 0.146282 1.454948 -0.514248
v 0.278853 1.454948 -0.514540
v 0.278853 1.272299 -0.514540
v 0.278853 1.089651 -0.514540
v 0.278853 0.556850 -0.514540
v 0.278853 -0.005813 -0.514540
v 0.146282 -0.005813 -0.514248
v 0.146282 0.556850 -0.514248
v -0.047064 0.556850 -0.513822
v -0.047064 -0.005813 -0.513822
v -0.197232 -0.005813 -0.513491
v -0.476027 1.199805 -0.512876
v -0.476027 1.382454 -0.512876
v -0.475714 1.199805 -0.370966
v -0.475714 1.382454 -0.370966
v 0.557960 1.382454 -0.373244
v 0.557960 1.199805 -0.373244
v 0.557648 1.199805 -0.515155
v 0.557648 1.382454 -0.515155
v -0.085789 1.706846 -0.404973
v -0.005773 1.706846 -0.405149
v -0.005940 1.706847 -0.480765
v -0.085956 1.706847 -0.480588
v 0.097083 1.706847 -0.480992
v 0.167723 1.706847 -0.481148
v 0.097250 1.706846 -0.405376
v 0.167889 1.706846 -0.405532
vt 0.247110 0.243380
vt 0.266891 0.243380
vt 0.266891 0.296006
vt 0.247110 0.296006
vt 0.247110 0.187805
vt 0.266891 0.187805
vt 0.303292 0.243380
vt 0.303292 0.296006
vt 0.309915 0.243380
vt 0.309915 0.296006
vt 0.319507 0.243380
vt 0.319507 0.296006
vt 0.309915 0.314047
vt 0.303292 0.314047
vt 0.319507 0.187805
vt 0.309915 0.187805
vt 0.329099 0.243380
vt 0.329099 0.296006
vt 0.319507 0.314047
vt 0.309915 0.332088
vt 0.303292 0.332088
vt 0.329099 0.187805
vt 0.329099 0.314047
vt 0.319507 0.332088
vt 0.329099 0.332088
vt 0.352930 0.314047
vt 0.352930 0.296006
vt 0.352930 0.332088
vt 0.489411 0.296006
vt 0.489411 0.243380
vt 0.509192 0.243380
vt 0.509192 0.296006
vt 0.453010 0.296006
vt 0.453010 0.243380
vt 0.489411 0.187805
vt 0.509192 0.187805
vt 0.446387 0.296006
vt 0.446387 0.243380
vt 0.436795 0.296006
vt 0.436795 0.243380
vt 0.453010 0.314047
vt 0.446387 0.314047
vt 0.427203 0.243380
vt 0.427203 0.296006
vt 0.436795 0.187805
vt 0.446387 0.187805
vt 0.436795 0.314047
vt 0.446387 0.332088
vt 0.453010 0.332088
vt 0.427203 0.187805
vt 0.427203 0.314047
vt 0.436795 0.332088
vt 0.427203 0.332088
vt 0.403372 0.314047
vt 0.403372 0.296006
vt 0.403372 0.332088
vt 0.555975 0.868839
vt 0.536195 0.868839
vt 0.536195 0.813264
vt 0.555975 0.813264
vt 0.293640 0.864933
vt 0.284048 0.864933
vt 0.284048 0.809357
vt 0.293640 0.809357
vt 0.274456 0.864933
vt 0.274456 0.809357
vt 0.344600 0.817170
vt 0.344600 0.872746
vt 0.335008 0.872746
vt 0.335008 0.817170
vt 0.354192 0.872746
vt 0.354192 0.817170
vt 0.020779 0.874597
vt 0.000998 0.874597
vt 0.000998 0.819021
vt 0.020779 0.819021
vt 0.670970 0.965415
vt 0.670970 0.947374
vt 0.680563 0.947374
vt 0.680563 0.965415
vt 0.077176 0.969166
vt 0.077176 0.951125
vt 0.086768 0.951125
vt 0.086768 0.969166
vt 0.342821 0.921982
vt 0.352413 0.921982
vt 0.350172 0.946862
vt 0.345061 0.946862
vt 0.133820 0.923935
vt 0.143413 0.923935
vt 0.141172 0.948816
vt 0.136061 0.948816
vt 0.907316 0.776768
vt 0.907316 0.750907
vt 0.927097 0.750907
vt 0.927097 0.776768
vt 0.927097 0.717610
vt 0.907316 0.717610
vt 0.963498 0.750907
vt 0.963498 0.776768
vt 0.963498 0.717610
vt 0.927097 0.694779
vt 0.907316 0.694779
vt 0.963498 0.694779
vt 0.206092 0.951042
vt 0.206092 0.925181
vt 0.225872 0.925181
vt 0.225872 0.951042
vt 0.786213 0.949796
vt 0.786213 0.923935
vt 0.795806 0.923935
vt 0.795806 0.949796
vt 0.805398 0.923935
vt 0.805398 0.949796
vt 0.622727 0.778721
vt 0.622727 0.752860
vt 0.632319 0.752860
vt 0.632319 0.778721
vt 0.622727 0.719563
vt 0.632319 0.719563
vt 0.656150 0.752860
vt 0.656150 0.778721
vt 0.613135 0.752860
vt 0.613135 0.719563
vt 0.622727 0.696732
vt 0.632319 0.696732
vt 0.656150 0.719563
vt 0.606512 0.752860
vt 0.606512 0.719563
vt 0.656150 0.696732
vt 0.613135 0.778721
vt 0.606512 0.778721
vt 0.606512 0.696732
vt 0.613135 0.696732
vt 0.370166 0.702075
vt 0.393997 0.702075
vt 0.393997 0.727937
vt 0.370166 0.727937
vt 0.370166 0.668778
vt 0.393997 0.668778
vt 0.393997 0.645948
vt 0.370166 0.645948
vt 0.973553 0.943467
vt 0.973553 0.966298
vt 0.963961 0.966298
vt 0.963961 0.943467
vt 0.983146 0.943467
vt 0.983146 0.966298
vt 0.282517 0.968251
vt 0.262736 0.968251
vt 0.262736 0.945421
vt 0.282517 0.945421
vt 0.788635 0.803449
vt 0.788635 0.783668
vt 0.821932 0.783668
vt 0.821932 0.803449
vt 0.788635 0.747267
vt 0.821932 0.747267
vt 0.762774 0.747267
vt 0.762774 0.783668
vt 0.788635 0.740644
vt 0.821932 0.740644
vt 0.844763 0.783668
vt 0.844763 0.747267
vt 0.762774 0.740644
vt 0.788635 0.731052
vt 0.821932 0.731052
vt 0.844763 0.740644
vt 0.788635 0.721460
vt 0.821932 0.721460
vt 0.081369 0.676641
vt 0.081369 0.662861
vt 0.086481 0.662861
vt 0.086481 0.676641
vt 0.088721 0.695792
vt 0.079129 0.695792
vt 0.088721 0.743805
vt 0.079129 0.743805
vt 0.008350 0.735885
vt 0.008350 0.748050
vt 0.003238 0.748050
vt 0.003238 0.735885
vt 0.000998 0.716734
vt 0.010590 0.716734
vt 0.000998 0.668721
vt 0.010590 0.668721
vt 0.917083 0.001118
vt 0.926675 0.001118
vt 0.926675 0.049131
vt 0.917083 0.049131
vt 0.153179 0.855582
vt 0.143587 0.855582
vt 0.143587 0.807569
vt 0.153179 0.807569
vt 0.909270 0.458240
vt 0.935131 0.458240
vt 0.935131 0.510866
vt 0.909270 0.510866
vt 0.909270 0.402664
vt 0.935131 0.402664
vt 0.968428 0.458240
vt 0.968428 0.510866
vt 0.991259 0.458240
vt 0.991259 0.510866
vt 0.968428 0.402664
vt 0.991259 0.402664
vt 0.799886 0.422352
vt 0.825747 0.422352
vt 0.825747 0.474978
vt 0.799886 0.474978
vt 0.859044 0.422352
vt 0.859044 0.474978
vt 0.825747 0.530554
vt 0.799886 0.530554
vt 0.881875 0.422352
vt 0.881875 0.474978
vt 0.881875 0.530554
vt 0.859044 0.530554
vt 0.723709 0.751376
vt 0.723709 0.725514
vt 0.741749 0.725514
vt 0.741749 0.751376
vt 0.741749 0.692217
vt 0.723709 0.692217
vt 0.759790 0.725514
vt 0.759790 0.751376
vt 0.759790 0.692217
vt 0.741749 0.669387
vt 0.723709 0.669387
vt 0.759790 0.669387
vt 0.677292 0.778721
vt 0.677292 0.752860
vt 0.695332 0.752860
vt 0.695332 0.778721
vt 0.659251 0.752860
vt 0.659251 0.778721
vt 0.677292 0.719563
vt 0.695332 0.719563
vt 0.659251 0.719563
vt 0.695332 0.696732
vt 0.677292 0.696732
vt 0.659251 0.696732
vt 0.245157 0.809357
vt 0.271018 0.809357
vt 0.271018 0.864933
vt 0.245157 0.864933
vt 0.585495 0.868839
vt 0.559634 0.868839
vt 0.559634 0.813263
vt 0.585495 0.813263
vt 0.332446 0.872746
vt 0.309615 0.872746
vt 0.309615 0.817170
vt 0.332446 0.817170
vt 0.024437 0.820974
vt 0.047268 0.820974
vt 0.047268 0.876550
vt 0.024437 0.876550
vt 0.749101 0.002554
vt 0.767142 0.002554
vt 0.774302 0.050567
vt 0.756262 0.050567
vt 0.396860 0.868120
vt 0.414900 0.868120
vt 0.407740 0.916133
vt 0.389699 0.916133
vt 0.229339 0.918086
vt 0.211299 0.918086
vt 0.204138 0.870074
vt 0.222179 0.870074
vt 0.833553 0.912328
vt 0.815513 0.912328
vt 0.822673 0.864315
vt 0.840714 0.864315
vt 0.835045 0.033901
vt 0.835045 0.008040
vt 0.859926 0.000970
vt 0.859926 0.014750
vt 0.051271 0.890918
vt 0.051271 0.916779
vt 0.026391 0.897628
vt 0.026391 0.883848
vt 0.682178 0.915101
vt 0.682178 0.937932
vt 0.657297 0.946417
vt 0.657297 0.934252
vt 0.292036 0.934025
vt 0.292036 0.911194
vt 0.316916 0.930345
vt 0.316916 0.942510
vn 0.002204 0.000000 0.999998
vn 0.002204 0.000000 0.999998
vn 0.002204 0.000000 0.999998
vn 0.002204 0.000000 0.999998
vn 0.000000 1.000000 0.000000
vn -0.000000 1.000000 -0.000000
vn 0.000000 1.000000 0.000000
vn 0.000000 1.000000 0.000000
vn -0.002204 0.000000 -0.999998
vn -0.002204 0.000000 -0.999998
vn -0.002204 0.000000 -0.999998
vn -0.002204 0.000000 -0.999998
vn -0.000000 -1.000000 -0.000000
vn -0.000000 -1.000000 -0.000000
vn -0.000000 -1.000000 -0.000000
vn -0.000000 -1.000000 -0.000000
vn 0.999998 0.000000 -0.002204
vn 0.999998 0.000000 -0.002204
vn 0.999998 0.000000 -0.002204
vn 0.999998 0.000000 -0.002204
vn -0.999998 -0.000000 0.002204
vn -0.999998 -0.000000 0.002204
vn -0.999998 -0.000000 0.002204
vn -0.999998 -0.000000 0.002204
vn -0.999998 -0.000000 0.002204
vn -0.999998 -0.000000 0.002204
vn -0.999998 -0.000000 0.002204
vn -0.999998 -0.000000 0.002204
vn 0.000000 -1.000000 0.000001
vn 0.000000 -1.000000 0.000001
vn 0.000000 -1.000000 0.000001
vn 0.000000 -1.000000 0.000001
vn 0.999998 0.000000 -0.002204
vn 0.999998 0.000000 -0.002204
vn 0.999998 0.000000 -0.002204
vn 0.999998 0.000000 -0.002204
vn 0.000000 1.000000 0.000000
vn 0.000000 1.000000 0.000000
vn 0.000000 1.000000 0.000000
vn 0.000000 1.000000 0.000000
vn 0.002204 0.000000 0.999998
vn 0.002204 0.000000 0.999998
vn 0.002204 0.000000 0.999998
vn 0.002204 0.000000 0.999998
vn 0.999998 0.000000 -0.002204
vn 0.999998 0.000000 -0.002204
vn 0.999998 0.000000 -0.002204
vn 0.999998 0.000000 -0.002204
vn -0.002204 0.000000 -0.999998
vn -0.002204 0.000000 -0.999998
vn -0.002204 0.000000 -0.999998
vn -0.002204 0.000000 -0.999998
vn -0.999998 0.000000 0.002204
vn -0.999998 0.000000 0.002204
vn -0.999998 0.000000 0.002204
vn -0.999998 0.000000 0.002204
vn 0.000000 -1.000000 0.000000
vn 0.000000 -1.000000 0.000000
vn 0.000000 -1.000000 0.000000
vn 0.000000 -1.000000 0.000000
vn -0.999998 0.000000 0.002204
vn -0.999998 0.000000 0.002204
vn -0.999998 0.000000 0.002204
vn -0.999998 0.000000 0.002204
vn 0.000000 1.000000 0.000000
vn 0.000000 1.000000 0.000000
vn 0.000000 1.000000 0.000000
vn 0.000000 1.000000 0.000000
vn 0.999998 0.000000 -0.002204
vn 0.999998 0.000000 -0.002204
vn 0.999998 0.000000 -0.002204
vn 0.999998 0.000000 -0.002204
vn 0.002204 0.000000 0.999998
vn 0.002204 0.000000 0.999998
vn 0.002204 0.000000 0.999998
vn 0.002204 0.000000 0.999998
vn 0.000000 1.000000 0.000000
vn 0.000000 1.000000 0.000000
vn 0.000000 1.000000 0.000000
vn 0.000000 1.000000 0.000000
vn 0.002204 0.000000 0.999998
vn 0.002204 0.000000 0.999998
vn 0.002204 0.000000 0.999998
vn 0.002204 0.000000 0.999998
vn 0.000000 1.000000 0.000000
vn 0.000000 1.000000 0.000000
vn 0.000000 1.000000 0.000000
vn 0.000000 1.000000 0.000000
vn 0.000000 1.000000 0.000000
vn 0.000000 1.000000 0.000000
vn 0.000000 1.000000 0.000000
vn 0.000000 1.000000 0.000000
vn -0.002204 0.000000 -0.999998
vn -0.002204 0.000000 -0.999998
vn -0.002204 0.000000 -0.999998
vn -0.002204 0.000000 -0.999998
vn 0.000000 -1.000000 0.000000
vn 0.000000 -1.000000 0.000000
vn 0.000000 -1.000000 0.000000
vn 0.000000 -1.000000 0.000000
vn -0.002204 0.000000 -0.999998
vn -0.002204 0.000000 -0.999998
vn -0.002204 0.000000 -0.999998
vn -0.002204 0.000000 -0.999998
vn 0.000000 -1.000000 0.000000
vn 0.000000 -1.000000 0.000000
vn 0.000000 -1.000000 0.000000
vn 0.000000 -1.000000 0.000000
vn 0.000000 -1.000000 0.000000
vn 0.000000 -1.000000 0.000000
vn 0.000000 -1.000000 0.000000
vn 0.000000 -1.000000 0.000000
vn 0.000000 -1.000000 0.000000
vn -0.000000 -1.000000 -0.000000
vn 0.000000 -1.000000 0.000000
vn 0.000000 -1.000000 0.000000
vn -0.000000 -1.000000 -0.000001
vn -0.000000 -1.000000 -0.000001
vn -0.000000 -1.000000 -0.000001
vn -0.000000 -1.000000 -0.000001
vn -0.999998 -0.000000 0.002204
vn -0.999998 -0.000000 0.002204
vn 0.000000 -1.000000 0.000000
vn 0.000000 -1.000000 0.000000
vn -0.000000 -1.000000 -0.000000
vn 0.000000 -1.000000 0.000000
vn 0.000000 -1.000000 0.000000
vn 0.000000 -1.000000 0.000000
vn 0.999998 0.000000 -0.002204
vn 0.999998 0.000000 -0.002204
vn 0.000000 1.000000 0.000000
vn -0.000000 1.000000 -0.000000
vn 0.000000 1.000000 0.000000
vn 0.000000 1.000000 0.000000
vn -0.999998 -0.000000 0.002204
vn -0.999998 -0.000000 0.002204
vn -0.999998 0.000000 0.002204
vn -0.999998 0.000000 0.002204
vn -0.999998 0.000000 0.002204
vn -0.999998 0.000000 0.002204
vn -0.000000 1.000000 -0.000000
vn -0.000000 1.000000 -0.000000
vn -0.000000 1.000000 -0.000002
vn -0.000000 1.000000 -0.000002
vn 0.999998 0.000000 -0.002204
vn 0.999998 0.000000 -0.002204
vn 0.999998 0.000000 -0.002204
vn 0.999998 0.000000 -0.002204
vn 0.999998 0.000000 -0.002204
vn 0.999998 0.000000 -0.002204
vn 0.000000 -1.000000 0.000001
vn 0.000000 -1.000000 0.000002
vn 0.000000 -1.000000 0.000001
vn 0.000000 -1.000000 0.000002
vn -0.002204 0.000000 -0.999998
vn -0.002204 0.000000 -0.999998
vn -0.002204 0.000000 -0.999998
vn -0.002204 0.000000 -0.999998
vn 0.999998 0.000000 -0.002204
vn 0.999998 0.000000 -0.002204
vn 0.999998 0.000000 -0.002204
vn 0.999998 0.000000 -0.002204
vn 0.002204 0.000000 0.999998
vn 0.002204 0.000000 0.999998
vn 0.002204 0.000000 0.999998
vn 0.002204 0.000000 0.999998
vn -0.999998 0.000000 0.002204
vn -0.999998 0.000000 0.002204
vn -0.999998 0.000000 0.002204
vn -0.999998 0.000000 0.002204
vn -0.002204 0.000000 -0.999998
vn -0.002204 0.000000 -0.999998
vn -0.002204 0.000000 -0.999998
vn -0.002204 0.000000 -0.999998
vn 0.999998 0.000000 -0.002204
vn 0.999998 0.000000 -0.002204
vn 0.999998 0.000000 -0.002204
vn 0.999998 0.000000 -0.002204
vn 0.002204 0.000000 0.999998
vn 0.002204 0.000000 0.999998
vn 0.002204 0.000000 0.999998
vn 0.002204 0.000000 0.999998
vn -0.999998 0.000000 0.002204
vn -0.999998 0.000000 0.002204
vn -0.999998 0.000000 0.002204
vn -0.999998 0.000000 0.002204
vn 0.002204 0.000000 0.999998
vn 0.002204 0.000000 0.999998
vn 0.002204 0.000000 0.999998
vn 0.002204 0.000000 0.999998
vn -0.999998 0.000000 0.002204
vn -0.999998 0.000000 0.002204
vn -0.999998 0.000000 0.002204
vn -0.999998 0.000000 0.002204
vn -0.002204 0.000000 -0.999998
vn -0.002204 0.000000 -0.999998
vn -0.002204 0.000000 -0.999998
vn -0.002204 0.000000 -0.999998
vn 0.999998 0.000000 -0.002204
vn 0.999998 0.000000 -0.002204
vn 0.999998 0.000000 -0.002204
vn 0.999998 0.000000 -0.002204
vn -0.999998 0.000000 0.002204
vn -0.999998 0.000000 0.002204
vn -0.999998 0.000000 0.002204
vn -0.999998 0.000000 0.002204
vn -0.002204 0.000000 -0.999998
vn -0.002204 0.000000 -0.999998
vn -0.002204 0.000000 -0.999998
vn -0.002204 0.000000 -0.999998
vn 0.999998 0.000000 -0.002204
vn 0.999998 0.000000 -0.002204
vn 0.999998 0.000000 -0.002204
vn 0.999998 0.000000 -0.002204
vn 0.002204 0.000000 0.999998
vn 0.002204 0.000000 0.999998
vn 0.002204 0.000000 0.999998
vn 0.002204 0.000000 0.999998
vn -0.000000 1.000000 -0.000002
vn -0.000000 1.000000 -0.000002
vn -0.000000 1.000000 -0.000002
vn -0.000000 1.000000 -0.000002
vn -0.000000 1.000000 -0.000002
vn -0.000000 1.000000 -0.000002
vn -0.000000 1.000000 -0.000002
vn -0.000000 1.000000 -0.000002
vn 0.002204 0.000000 0.999998
vn 0.002204 0.000000 0.999998
vn 0.002204 0.000000 0.999998
vn 0.002204 0.000000 0.999998
vn -0.999998 0.000000 0.002204
vn -0.999998 0.000000 0.002204
vn -0.999998 0.000000 0.002204
vn -0.999998 0.000000 0.002204
vn -0.999998 0.000000 0.002204
vn -0.999998 0.000000 0.002204
vn -0.002204 0.000000 -0.999998
vn -0.002204 0.000000 -0.999998
vn -0.002204 0.000000 -0.999998
vn -0.002204 0.000000 -0.999998
vn 0.999998 0.000000 -0.002204
vn 0.999998 0.000000 -0.002204
vn 0.999998 0.000000 -0.002204
vn 0.999998 0.000000 -0.002204
vn 0.999998 0.000000 -0.002204
vn 0.999998 0.000000 -0.002204
vn -0.999998 0.000000 0.002204
vn -0.999998 0.000000 0.002204
vn -0.999998 0.000000 0.002204
vn -0.999998 0.000000 0.002204
vn 0.000000 1.000000 0.000003
vn 0.000000 1.000000 0.000003
vn 0.000000 1.000000 0.000003
vn 0.000000 1.000000 0.000003
vn 0.000000 1.000000 0.000003
vn 0.000000 1.000000 0.000003
vn 0.000000 1.000000 0.000003
vn 0.000000 1.000000 0.000003
vn 0.999998 0.000000 -0.002204
vn 0.999998 0.000000 -0.002204
vn 0.999998 0.000000 -0.002204
vn 0.999998 0.000000 -0.002204
vn 0.999998 0.000000 -0.002204
vn 0.999998 0.000000 -0.002204
vn 0.000000 -1.000000 0.000000
vn 0.000000 -1.000000 0.000000
vn -0.999998 0.000000 0.002204
vn -0.999998 0.000000 0.002204
vn 0.999998 0.000000 -0.002204
vn 0.999998 0.000000 -0.002204
vn 0.000000 -1.000000 0.000001
vn 0.000000 -1.000000 0.000001
vn -0.999998 0.000000 0.002204
vn -0.999998 0.000000 0.002204
vn -0.002204 0.000000 -0.999998
vn -0.002204 0.000000 -0.999998
vn -0.002204 0.000000 -0.999998
vn -0.002204 0.000000 -0.999998
vn 0.251657 -0.967816 -0.000556
vn 0.251657 -0.967816 -0.000556
vn 0.251657 -0.967816 -0.000556
vn 0.251657 -0.967816 -0.000556
vn 0.002204 0.000000 0.999998
vn 0.002204 0.000000 0.999998
vn 0.002204 0.000000 0.999998
vn 0.002204 0.000000 0.999998
vn -0.251657 0.967816 0.000556
vn -0.251657 0.967816 0.000556
vn -0.251657 0.967816 0.000556
vn -0.251657 0.967816 0.000556
vn 0.002204 0.000000 0.999998
vn 0.002204 0.000000 0.999998
vn 0.002204 0.000000 0.999998
vn 0.002204 0.000000 0.999998
vn -0.251657 -0.967816 0.000554
vn -0.251657 -0.967816 0.000554
vn -0.251657 -0.967816 0.000554
vn -0.251657 -0.967816 0.000554
vn -0.002204 0.000000 -0.999998
vn -0.002204 0.000000 -0.999998
vn -0.002204 0.000000 -0.999998
vn -0.002204 0.000000 -0.999998
vn 0.251657 0.967816 -0.000554
vn 0.251657 0.967816 -0.000554
vn 0.251657 0.967816 -0.000554
vn 0.251657 0.967816 -0.000554
vn 0.002185 0.130465 0.991450
vn 0.002185 0.130465 0.991450
vn 0.002185 0.130465 0.991450
vn 0.002185 0.130465 0.991450
vn 0.986977 -0.160846 -0.002176
vn 0.986977 -0.160846 -0.002176
vn 0.986977 -0.160846 -0.002176
vn 0.986977 -0.160846 -0.002176
vn -0.002185 0.130465 -0.991450
vn -0.002185 0.130465 -0.991450
vn -0.002185 0.130465 -0.991450
vn -0.002185 0.130465 -0.991450
vn -0.914819 0.403859 0.002017
vn -0.914819 0.403859 0.002017
vn -0.914819 0.403859 0.002017
vn -0.914819 0.403859 0.002017
vn -0.002185 0.130465 -0.991450
vn -0.002185 0.130465 -0.991450
vn -0.002185 0.130465 -0.991450
vn -0.002185 0.130465 -0.991450
vn -0.981400 -0.191964 0.002163
vn -0.981400 -0.191964 0.002163
vn -0.981400 -0.191964 0.002163
vn -0.981400 -0.191964 0.002163
vn 0.002185 0.130466 0.991450
vn 0.002185 0.130465 0.991450
vn 0.002185 0.130466 0.991450
vn 0.002185 0.130465 0.991450
vn 0.914819 0.403859 -0.002016
vn 0.914819 0.403859 -0.002016
vn 0.914819 0.403859 -0.002016
vn 0.914819 0.403859 -0.002016
s 1
g car1
usemtl initialShadingGroup
f 1/195/1 21/196/2 22/197/3 3/198/4
s 2
f 3/93/5 22/94/6 48/95/7 41/96/8
s 3
f 5/207/9 28/208/10 29/209/11 7/210/12
s off
f 59/105/13 60/106/14 61/107/15 62/108/16
s 4
f 2/1/17 45/2/18 46/3/19 4/4/20
s 5
f 41/29/21 42/30/22 1/31/23 3/32/24
f 7/43/25 87/40/26 88/39/27 5/44/28
s 7
f 63/109/29 64/110/30 101/111/31 102/112/32
s 4
f 95/12/33 96/11/34 8/17/35 6/18/36
s 9
f 90/115/37 91/116/38 25/117/39 16/118/40
s 10
f 9/219/41 23/220/42 77/221/43 78/222/44
s 11
f 85/23/45 94/19/46 95/12/47 6/18/48
s 12
f 81/231/49 82/232/50 27/233/51 17/234/52
s 13
f 5/44/53 88/39/54 89/47/55 80/51/56
s 14
f 27/135/57 28/136/58 5/137/59 17/138/60
s 15
f 5/44/61 80/51/62 81/54/63 17/55/64
s 16
f 16/118/65 25/117/66 26/121/67 19/122/68
s 17
f 84/26/69 85/23/70 6/18/71 18/27/72
s 1
f 32/202/73 33/201/74 2/203/75 4/204/76
s 2
f 46/102/77 47/97/78 32/98/79 4/103/80
s 10
f 75/228/81 76/223/82 31/224/83 12/229/84
s 9
f 39/120/85 92/119/86 93/125/87 15/126/88
s 16
f 38/127/89 39/120/90 15/126/91 20/130/92
s 12
f 18/240/93 37/238/94 83/237/95 84/241/96
s 14
f 6/141/97 36/140/98 37/139/99 18/142/100
s 3
f 35/212/101 36/211/102 6/215/103 8/216/104
s 20
f 97/143/105 98/144/106 69/145/107 70/146/108
s off
f 71/149/109 72/150/110 73/151/111 74/152/112
s 2
f 47/97/78 48/95/7 22/94/6 32/98/79
s 1
f 22/197/3 21/196/2 33/201/74 32/202/73
s 21
f 21/153/113 43/154/114 44/155/115 33/156/116
f 99/167/117 100/166/118 29/169/119 35/170/120
s 3
f 29/209/11 28/208/10 36/211/102 35/212/101
s 14
f 37/139/99 36/140/98 28/136/58 27/135/57
s 12
f 82/232/50 83/237/95 37/238/94 27/233/51
s 16
f 26/121/67 25/117/66 39/120/90 38/127/89
s 9
f 25/117/39 91/116/38 92/119/86 39/120/85
s 10
f 76/223/82 77/221/43 23/220/42 31/224/83
s 5
f 9/33/121 10/34/122 42/30/22 41/29/21
s 21
f 10/159/123 30/157/124 43/154/114 42/160/125
f 44/155/115 43/154/114 30/157/124 34/158/126
f 45/163/127 44/155/115 34/158/126 11/164/128
s 4
f 46/3/19 45/2/18 11/7/129 12/8/130
s 2
f 31/101/131 47/97/78 46/102/77 12/104/132
f 23/99/133 48/95/7 47/97/78 31/101/131
f 41/96/8 48/95/7 23/99/133 9/100/134
s 5
f 50/37/135 49/38/136 10/34/122 9/33/121
s 13
f 78/41/137 79/42/138 50/37/139 9/33/140
s 9
f 53/124/141 52/123/142 24/128/143 40/129/144
s 11
f 12/8/145 55/10/146 86/13/147 75/14/148
s 4
f 12/8/130 11/7/129 56/9/149 55/10/150
s 21
f 34/158/126 57/162/151 56/168/152 11/164/128
f 30/157/124 58/161/153 57/162/151 34/158/126
f 49/165/154 58/161/153 30/157/124 10/159/123
s off
f 42/243/155 43/244/156 60/245/157 59/246/158
f 43/57/159 21/58/160 61/59/161 60/60/162
f 21/196/163 1/195/164 62/199/165 61/200/166
f 1/31/167 42/30/168 59/35/169 62/36/170
f 7/210/171 29/209/172 64/213/173 63/214/174
s 25
f 29/61/175 100/62/176 101/63/177 64/64/178
s off
f 58/247/179 49/248/180 66/249/181 65/250/182
s 26
f 102/45/183 87/40/184 7/43/185 63/50/186
s off
f 56/251/187 57/252/188 68/253/189 67/254/190
s 27
f 98/67/191 99/68/192 35/69/193 69/70/194
s off
f 35/212/195 8/216/196 70/217/197 69/218/198
s 28
f 8/17/199 96/11/200 97/15/201 70/22/202
s off
f 33/73/203 44/74/204 72/75/205 71/76/206
f 44/255/207 45/256/208 73/257/209 72/258/210
f 45/2/211 2/1/212 74/5/213 73/6/214
f 2/203/215 33/201/216 71/205/217 74/206/218
f 40/129/219 13/133/220 54/134/221 53/124/222
f 51/131/223 14/132/224 24/128/225 52/123/226
s 10
f 40/227/227 76/223/82 75/228/81 13/230/228
f 24/225/229 77/221/43 76/223/82 40/227/227
f 78/222/44 77/221/43 24/225/229 14/226/230
s 13
f 51/48/231 79/42/138 78/41/137 14/49/232
f 80/51/56 89/47/55 90/52/233 16/53/234
s 15
f 81/54/63 80/51/62 16/53/235 19/56/236
s 12
f 26/235/237 82/232/50 81/231/49 19/236/238
f 38/239/239 83/237/95 82/232/50 26/235/237
f 84/241/96 83/237/95 38/239/239 20/242/240
s 17
f 15/25/241 85/23/70 84/26/69 20/28/242
s 11
f 93/24/243 94/19/46 85/23/45 15/25/244
f 75/14/148 86/13/147 54/20/245 13/21/246
s 5
f 88/39/27 87/40/26 49/38/136 50/37/135
s 13
f 89/47/55 88/39/54 50/37/139 79/42/138
s off
f 104/77/247 103/78/248 105/79/249 106/80/250
f 111/171/251 112/172/252 113/173/253 114/174/254
s 9
f 92/119/86 91/116/38 52/123/142 53/124/141
s off
f 116/179/255 115/180/256 117/181/257 118/182/258
f 107/81/259 108/82/260 109/83/261 110/84/262
s 11
f 95/12/47 94/19/46 86/13/147 55/10/146
s 4
f 55/10/150 56/9/149 96/11/34 95/12/33
s 28
f 97/15/201 96/11/200 56/9/263 67/16/264
s 20
f 67/147/265 68/148/266 98/144/106 97/143/105
s 27
f 57/71/267 99/68/192 98/67/191 68/72/268
s 21
f 57/162/151 58/161/153 100/166/118 99/167/117
s 25
f 101/63/177 100/62/176 58/65/269 65/66/270
s 7
f 102/112/32 101/111/31 65/113/271 66/114/272
s 26
f 49/38/273 87/40/184 102/45/183 66/46/274
s off
f 90/259/275 89/260/276 103/261/277 104/262/278
f 89/187/279 79/188/280 105/189/281 103/190/282
f 79/263/283 51/264/284 106/265/285 105/266/286
f 51/176/287 90/175/288 104/177/289 106/178/290
f 54/267/291 86/268/292 108/269/293 107/270/294
f 86/191/295 94/192/296 109/193/297 108/194/298
f 94/271/299 93/272/300 110/273/301 109/274/302
f 93/184/303 54/183/304 107/185/305 110/186/306
f 51/275/307 52/276/308 112/277/309 111/278/310
f 52/85/311 91/86/312 113/87/313 112/88/314
f 91/279/315 90/280/316 114/281/317 113/282/318
f 90/175/319 51/176/320 111/171/321 114/174/322
f 93/283/323 92/284/324 115/285/325 116/286/326
f 92/89/327 53/90/328 117/91/329 115/92/330
f 53/287/331 54/288/332 118/289/333 117/290/334
f 54/183/335 93/184/336 116/179/337 118/182/338
