# This file uses centimeters as units for non-parametric coordinates.

mtllib deer.mtl
g default
v -0.221624 0.556850 0.442329
v 0.254462 0.556850 0.442329
v -0.221624 1.089651 0.442329
v 0.254462 1.089651 0.442329
v -0.221624 1.089651 -0.770639
v 0.254462 1.089651 -0.770639
v -0.221624 0.556850 -0.770639
v 0.254462 0.556850 -0.770639
v -0.221624 1.089651 -0.388840
v -0.221624 0.556850 -0.388840
v 0.254462 0.556850 -0.388840
v 0.254462 1.089651 -0.388840
v 0.254462 1.454948 -0.388840
v -0.221624 1.454948 -0.388840
v 0.254462 1.454948 -0.770639
v -0.221624 1.454948 -0.770639
v -0.221624 1.089651 -1.123195
v 0.254462 1.089651 -1.123195
v -0.221624 1.454948 -1.123195
v 0.254462 1.454948 -1.123195
v -0.071456 0.556850 0.442329
v -0.071456 1.089651 0.442329
v -0.071456 1.089651 -0.388840
v -0.071456 1.454948 -0.388840
v -0.071456 1.454948 -0.770639
v -0.071456 1.454948 -1.123195
v -0.071456 1.089651 -1.123195
v -0.071456 1.089651 -0.770639
v -0.071456 0.556850 -0.770639
v -0.071456 0.556850 -0.388840
v 0.121890 1.089651 -0.388840
v 0.121890 1.089651 0.442329
v 0.121890 0.556850 0.442329
v 0.121890 0.556850 -0.388840
v 0.121890 0.556850 -0.770639
v 0.121890 1.089651 -0.770639
v 0.121890 1.089651 -1.123195
v 0.121890 1.454948 -1.123195
v 0.121890 1.454948 -0.770639
v 0.121890 1.454948 -0.388840
v -0.221624 1.089651 0.149686
v -0.221624 0.556850 0.149686
v -0.071456 0.556850 0.149686
v 0.121890 0.556850 0.149686
v 0.254462 0.556850 0.149686
v 0.254462 1.089651 0.149686
v 0.121890 1.089651 0.149686
v -0.071456 1.089651 0.149686
v -0.221624 0.556849 -0.486818
v -0.221624 1.089651 -0.486818
v -0.221624 1.454948 -0.486818
v -0.071456 1.454948 -0.486818
v 0.121890 1.454948 -0.486818
v 0.254462 1.454948 -0.486818
v 0.254462 1.089651 -0.486818
v 0.254462 0.556849 -0.486818
v 0.121890 0.556849 -0.486818
v -0.071456 0.556849 -0.486818
v -0.221624 -0.005813 0.149686
v -0.071456 -0.005813 0.149686
v -0.071456 -0.005813 0.442329
v -0.221624 -0.005813 0.442329
v -0.221624 -0.005813 -0.770639
v -0.071456 -0.005813 -0.770639
v -0.071456 -0.005813 -0.486818
v -0.221624 -0.005813 -0.486818
v 0.254462 -0.005813 -0.486818
v 0.121890 -0.005813 -0.486818
v 0.121890 -0.005813 -0.770639
v 0.254462 -0.005813 -0.770639
v 0.121890 -0.005813 0.442329
v 0.121890 -0.005813 0.149686
v 0.254462 -0.005813 0.149686
v 0.254462 -0.005813 0.442329
v -0.120245 1.692887 -0.335991
v -0.353790 1.692887 -0.335991
v -0.120245 1.692887 -0.539667
v -0.353790 1.692887 -0.539667
v 0.180450 1.692887 -0.539667
v 0.386628 1.692887 -0.539667
v 0.180450 1.692887 -0.335991
v 0.386628 1.692887 -0.335991
v -0.221624 0.909213 0.442329
v -0.221624 0.909213 0.149686
v -0.221624 0.909213 -0.388840
v -0.221624 0.909212 -0.486818
v -0.221624 0.909213 -0.770639
v -0.071456 0.909213 -0.770639
v 0.121890 0.909213 -0.770639
v 0.254462 0.909213 -0.770639
v 0.254462 0.909212 -0.486818
v 0.254462 0.909213 -0.388840
v 0.254462 0.909213 0.149686
v 0.254462 0.909213 0.442329
v 0.121890 0.909213 0.442329
v -0.071456 0.909213 0.442329
v -0.071456 0.945053 0.670021
v -0.071456 1.244954 0.670021
v 0.121890 0.945053 0.670021
v 0.121890 1.244954 0.670021
vt 0.598699 0.054906
vt 0.617443 0.054906
vt 0.617443 0.087885
vt 0.598699 0.087885
vt 0.598699 0.002244
vt 0.617443 0.002244
vt 0.651936 0.087885
vt 0.651936 0.054906
vt 0.617443 0.104773
vt 0.598699 0.104773
vt 0.651936 0.104773
vt 0.658211 0.087885
vt 0.658211 0.054906
vt 0.658211 0.104773
vt 0.676390 0.087885
vt 0.676390 0.054906
vt 0.676390 0.104773
vt 0.658211 0.138963
vt 0.651936 0.138963
vt 0.658211 0.002244
vt 0.676390 0.002244
vt 0.676390 0.138963
vt 0.661596 0.161232
vt 0.648551 0.161232
vt 0.698971 0.104773
vt 0.698971 0.138963
vt 0.802494 0.087885
vt 0.783750 0.087885
vt 0.783750 0.054906
vt 0.802494 0.054906
vt 0.783750 0.104773
vt 0.802494 0.104773
vt 0.749258 0.087885
vt 0.749258 0.054906
vt 0.783750 0.002244
vt 0.802494 0.002244
vt 0.749258 0.104773
vt 0.742983 0.087885
vt 0.742983 0.054906
vt 0.742983 0.104773
vt 0.724804 0.054906
vt 0.724804 0.087885
vt 0.724804 0.104773
vt 0.742983 0.138963
vt 0.749258 0.138963
vt 0.724804 0.002244
vt 0.742983 0.002244
vt 0.724804 0.138963
vt 0.752643 0.161232
vt 0.739598 0.161232
vt 0.702223 0.138963
vt 0.702223 0.104773
vt 0.949499 0.053971
vt 0.930755 0.053971
vt 0.930755 0.001309
vt 0.949499 0.001309
vt 0.068009 0.881603
vt 0.049830 0.881603
vt 0.049830 0.828941
vt 0.068009 0.828941
vt 0.648130 0.908949
vt 0.629952 0.908949
vt 0.629952 0.856287
vt 0.648130 0.856287
vt 0.670181 0.908949
vt 0.651438 0.908949
vt 0.651438 0.856287
vt 0.670181 0.856287
vt 0.988832 0.945427
vt 0.995108 0.945427
vt 0.998492 0.967697
vt 0.985447 0.967697
vt 0.416523 0.945982
vt 0.422799 0.945982
vt 0.426184 0.968251
vt 0.413138 0.968251
vt 0.415092 0.929110
vt 0.415092 0.912222
vt 0.429675 0.915576
vt 0.429675 0.943645
vt 0.654302 0.916129
vt 0.654302 0.933016
vt 0.639718 0.947552
vt 0.639718 0.919483
vt 0.312479 0.810597
vt 0.312479 0.786092
vt 0.331223 0.786092
vt 0.331223 0.810597
vt 0.331223 0.754540
vt 0.312479 0.754540
vt 0.365715 0.786092
vt 0.365715 0.810597
vt 0.365715 0.754540
vt 0.297895 0.786092
vt 0.297895 0.754540
vt 0.331223 0.732906
vt 0.312479 0.732906
vt 0.365715 0.732906
vt 0.756914 0.960166
vt 0.756914 0.935661
vt 0.775658 0.935661
vt 0.775658 0.960166
vt 0.919036 0.960167
vt 0.919036 0.935661
vt 0.937215 0.935661
vt 0.937215 0.960167
vt 0.862807 0.783251
vt 0.862807 0.758746
vt 0.880985 0.758746
vt 0.880985 0.783251
vt 0.862807 0.727194
vt 0.880985 0.727194
vt 0.903566 0.758746
vt 0.903566 0.783251
vt 0.856531 0.758746
vt 0.856531 0.727194
vt 0.862807 0.705561
vt 0.880985 0.705561
vt 0.903566 0.727194
vt 0.903566 0.705561
vt 0.975681 0.745951
vt 0.998262 0.745951
vt 0.998262 0.770457
vt 0.975681 0.770457
vt 0.975681 0.714400
vt 0.998262 0.714400
vt 0.998262 0.692766
vt 0.975681 0.692766
vt 0.163719 0.947935
vt 0.163719 0.969568
vt 0.145540 0.969568
vt 0.145540 0.947935
vt 0.666275 0.971158
vt 0.647531 0.971158
vt 0.647531 0.949524
vt 0.666275 0.949524
vt 0.179812 0.813429
vt 0.179812 0.794685
vt 0.211363 0.794685
vt 0.211363 0.813429
vt 0.179812 0.760193
vt 0.211363 0.760193
vt 0.155306 0.760193
vt 0.155306 0.794685
vt 0.179812 0.753918
vt 0.211363 0.753918
vt 0.232997 0.794685
vt 0.232997 0.760193
vt 0.155306 0.753918
vt 0.179812 0.735739
vt 0.211363 0.735739
vt 0.232997 0.753918
vt 0.588933 0.909487
vt 0.588933 0.871376
vt 0.601978 0.871376
vt 0.601978 0.909487
vt 0.381258 0.876012
vt 0.381258 0.909658
vt 0.368213 0.909658
vt 0.368213 0.876012
vt 0.026391 0.945727
vt 0.026391 0.914175
vt 0.040974 0.914175
vt 0.040974 0.945727
vt 0.120148 0.477854
vt 0.144653 0.477854
vt 0.144653 0.510833
vt 0.120148 0.510833
vt 0.120148 0.425192
vt 0.144653 0.425192
vt 0.176204 0.510833
vt 0.176204 0.477854
vt 0.144653 0.527721
vt 0.120148 0.527721
vt 0.197838 0.510833
vt 0.197838 0.477854
vt 0.176204 0.527721
vt 0.197838 0.527721
vt 0.176204 0.425192
vt 0.197838 0.425192
vt 0.200232 0.450944
vt 0.224737 0.450944
vt 0.224737 0.483923
vt 0.200232 0.483923
vt 0.200232 0.434056
vt 0.224737 0.434056
vt 0.256288 0.450944
vt 0.256288 0.483923
vt 0.224737 0.536585
vt 0.200232 0.536585
vt 0.256288 0.434056
vt 0.277922 0.450944
vt 0.277922 0.483923
vt 0.277922 0.434056
vt 0.277922 0.536585
vt 0.256288 0.536585
vt 0.922943 0.134707
vt 0.922943 0.110202
vt 0.957132 0.110202
vt 0.957132 0.134707
vt 0.922943 0.078651
vt 0.957132 0.078651
vt 0.979402 0.118164
vt 0.979402 0.156275
vt 0.922943 0.057017
vt 0.957132 0.057017
vt 0.979402 0.035450
vt 0.979402 0.069095
vt 0.012718 0.788045
vt 0.046907 0.788045
vt 0.046907 0.812550
vt 0.012718 0.812550
vt 0.012718 0.756493
vt 0.046907 0.756493
vt 0.046907 0.734859
vt 0.012718 0.734859
vt 0.176792 0.819729
vt 0.201298 0.819729
vt 0.201298 0.872391
vt 0.176792 0.872391
vt 0.920102 0.906996
vt 0.895597 0.906996
vt 0.895597 0.854334
vt 0.920102 0.854334
vt 0.626193 0.908949
vt 0.604559 0.908949
vt 0.604559 0.856287
vt 0.626193 0.856287
vt 0.672924 0.855237
vt 0.694557 0.855237
vt 0.694557 0.907899
vt 0.672924 0.907899
vt 0.304539 0.866957
vt 0.304539 0.891462
vt 0.282269 0.913029
vt 0.282269 0.874918
vt 0.439315 0.892944
vt 0.439315 0.914577
vt 0.417045 0.905022
vt 0.417045 0.871376
vt 0.636535 0.947680
vt 0.608466 0.947680
vt 0.608466 0.916129
vt 0.636535 0.916129
vn 0.000000 0.000000 1.000000
vn 0.000000 0.000000 1.000000
vn 0.000000 0.000000 1.000000
vn 0.000000 0.000000 1.000000
vn 0.000000 1.000000 0.000000
vn 0.000000 1.000000 -0.000000
vn 0.000000 1.000000 0.000000
vn 0.000000 1.000000 0.000000
vn 0.000000 0.000000 -1.000000
vn 0.000000 0.000000 -1.000000
vn 0.000000 0.000000 -1.000000
vn 0.000000 0.000000 -1.000000
vn 0.000000 -1.000000 -0.000000
vn 0.000000 -1.000000 -0.000000
vn 0.000000 -1.000000 -0.000000
vn 0.000000 -1.000000 -0.000000
vn 1.000000 0.000000 0.000000
vn 1.000000 0.000000 0.000000
vn 1.000000 0.000000 0.000000
vn 1.000000 0.000000 0.000000
vn -1.000000 -0.000000 -0.000000
vn -1.000000 -0.000000 -0.000000
vn -1.000000 -0.000000 -0.000000
vn -1.000000 -0.000000 -0.000000
vn -1.000000 -0.000000 0.000000
vn -1.000000 -0.000000 0.000000
vn -1.000000 -0.000000 -0.000000
vn -1.000000 -0.000000 0.000000
vn 0.000000 -1.000000 0.000001
vn 0.000000 -1.000000 0.000001
vn 0.000000 -1.000000 0.000001
vn 0.000000 -1.000000 0.000001
vn 1.000000 0.000000 0.000000
vn 1.000000 0.000000 0.000000
vn 1.000000 0.000000 0.000000
vn 1.000000 0.000000 0.000000
vn 0.000000 1.000000 0.000001
vn 0.000000 1.000000 0.000000
vn 0.000000 1.000000 0.000001
vn 0.000000 1.000000 0.000001
vn 0.000000 0.000000 1.000000
vn 0.000000 0.000000 1.000000
vn 0.000000 0.000000 1.000000
vn 0.000000 0.000000 1.000000
vn 1.000000 0.000000 0.000000
vn 1.000000 0.000000 0.000000
vn 1.000000 0.000000 0.000000
vn 1.000000 0.000000 0.000000
vn 0.000000 0.000000 -1.000000
vn 0.000000 0.000000 -1.000000
vn 0.000000 0.000000 -1.000000
vn 0.000000 0.000000 -1.000000
vn -1.000000 0.000000 0.000000
vn -1.000000 0.000000 0.000000
vn -1.000000 0.000000 0.000000
vn -1.000000 0.000000 0.000000
vn 0.000000 -1.000000 0.000000
vn 0.000000 -1.000000 0.000000
vn 0.000000 -1.000000 0.000000
vn 0.000000 -1.000000 0.000000
vn -1.000000 0.000000 0.000000
vn -1.000000 0.000000 0.000000
vn -1.000000 0.000000 0.000000
vn -1.000000 0.000000 0.000000
vn 0.000000 1.000000 0.000000
vn 0.000000 1.000000 0.000000
vn 0.000000 1.000000 0.000000
vn 0.000000 1.000000 0.000000
vn 1.000000 0.000000 0.000000
vn 1.000000 0.000000 0.000000
vn 1.000000 0.000000 0.000000
vn 1.000000 0.000000 0.000000
vn 0.000000 0.000000 1.000000
vn 0.000000 0.000000 1.000000
vn 0.000000 0.000000 1.000000
vn 0.000000 0.000000 1.000000
vn 0.000000 1.000000 0.000000
vn 0.000000 1.000000 0.000000
vn 0.000000 1.000000 0.000000
vn 0.000000 1.000000 0.000000
vn 0.000000 0.000000 1.000000
vn 0.000000 0.000000 1.000000
vn 0.000000 0.000000 1.000000
vn 0.000000 0.000000 1.000000
vn 0.000000 1.000000 0.000001
vn 0.000000 1.000000 0.000000
vn 0.000000 1.000000 0.000001
vn 0.000000 1.000000 0.000001
vn 0.000000 1.000000 0.000000
vn 0.000000 1.000000 0.000000
vn 0.000000 1.000000 0.000000
vn 0.000000 1.000000 0.000000
vn 0.000000 0.000000 -1.000000
vn 0.000000 0.000000 -1.000000
vn 0.000000 0.000000 -1.000000
vn 0.000000 0.000000 -1.000000
vn 0.000000 -1.000000 0.000000
vn 0.000000 -1.000000 0.000000
vn 0.000000 -1.000000 0.000000
vn 0.000000 -1.000000 0.000000
vn 0.000000 0.000000 -1.000000
vn 0.000000 0.000000 -1.000000
vn 0.000000 0.000000 -1.000000
vn 0.000000 0.000000 -1.000000
vn 0.000000 -1.000000 0.000000
vn 0.000000 -1.000000 0.000000
vn 0.000000 -1.000000 0.000000
vn 0.000000 -1.000000 0.000000
vn 0.000000 -1.000000 0.000000
vn 0.000000 -1.000000 0.000000
vn 0.000000 -1.000000 0.000000
vn 0.000000 -1.000000 0.000000
vn 0.000000 -1.000000 0.000000
vn 0.000000 -1.000000 -0.000000
vn 0.000000 -1.000000 0.000000
vn 0.000000 -1.000000 0.000000
vn 0.000000 -1.000000 0.000000
vn 0.000000 -1.000000 0.000000
vn 0.000000 -1.000000 -0.000001
vn 0.000000 -1.000000 -0.000001
vn -1.000000 -0.000000 0.000000
vn -1.000000 -0.000000 0.000000
vn 0.000000 -1.000000 0.000000
vn 0.000000 -1.000000 0.000000
vn 0.000000 -1.000000 -0.000000
vn 0.000000 -1.000000 0.000000
vn 0.000000 -1.000000 0.000000
vn 0.000000 -1.000000 0.000000
vn 1.000000 0.000000 0.000000
vn 1.000000 0.000000 0.000000
vn 0.000000 1.000000 0.000000
vn 0.000000 1.000000 -0.000000
vn 0.000000 1.000000 0.000000
vn 0.000000 1.000000 0.000000
vn -1.000000 0.000000 0.000000
vn -1.000000 0.000000 0.000000
vn 0.000000 1.000000 0.000000
vn 0.000000 1.000000 0.000000
vn 0.000000 1.000000 0.000000
vn 0.000000 1.000000 0.000000
vn 0.000000 1.000000 -0.000002
vn 0.000000 1.000000 -0.000002
vn 0.000000 1.000000 0.000000
vn 0.000000 1.000000 0.000000
vn 0.000000 1.000000 0.000000
vn 0.000000 1.000000 0.000000
vn 1.000000 0.000000 0.000000
vn 1.000000 0.000000 0.000000
vn 0.000000 -1.000000 0.000002
vn 0.000000 -1.000000 0.000002
vn 0.000000 0.000000 -1.000000
vn 0.000000 0.000000 -1.000000
vn 0.000000 0.000000 -1.000000
vn 0.000000 0.000000 -1.000000
vn 1.000000 0.000000 0.000000
vn 1.000000 0.000000 0.000000
vn 1.000000 0.000000 0.000000
vn 1.000000 0.000000 0.000000
vn 0.000000 0.000000 1.000000
vn 0.000000 0.000000 1.000000
vn 0.000000 0.000000 1.000000
vn 0.000000 0.000000 1.000000
vn -1.000000 0.000000 -0.000000
vn -1.000000 0.000000 -0.000000
vn -1.000000 0.000000 -0.000000
vn -1.000000 0.000000 -0.000000
vn 0.000000 0.000000 -1.000000
vn 0.000000 0.000000 -1.000000
vn 0.000000 0.000000 -1.000000
vn 0.000000 0.000000 -1.000000
vn 1.000000 0.000000 0.000000
vn 1.000000 0.000000 0.000000
vn 1.000000 0.000000 0.000000
vn 1.000000 0.000000 0.000000
vn 0.000000 0.000000 1.000000
vn 0.000000 0.000000 1.000000
vn 0.000000 0.000000 1.000000
vn 0.000000 0.000000 1.000000
vn -1.000000 0.000000 0.000000
vn -1.000000 0.000000 0.000000
vn -1.000000 0.000000 0.000000
vn -1.000000 0.000000 0.000000
vn 0.000000 0.000000 1.000000
vn 0.000000 0.000000 1.000000
vn 0.000000 0.000000 1.000000
vn 0.000000 0.000000 1.000000
vn -1.000000 0.000000 0.000000
vn -1.000000 0.000000 0.000000
vn -1.000000 0.000000 0.000000
vn -1.000000 0.000000 0.000000
vn 0.000000 0.000000 -1.000000
vn 0.000000 0.000000 -1.000000
vn 0.000000 0.000000 -1.000000
vn 0.000000 0.000000 -1.000000
vn 1.000000 0.000000 0.000000
vn 1.000000 0.000000 0.000000
vn 1.000000 0.000000 0.000000
vn 1.000000 0.000000 0.000000
vn -1.000000 0.000000 0.000000
vn -1.000000 0.000000 0.000000
vn -1.000000 0.000000 0.000000
vn -1.000000 0.000000 0.000000
vn 0.000000 0.000000 -1.000000
vn 0.000000 0.000000 -1.000000
vn 0.000000 0.000000 -1.000000
vn 0.000000 0.000000 -1.000000
vn 1.000000 0.000000 0.000000
vn 1.000000 0.000000 0.000000
vn 1.000000 0.000000 0.000000
vn 1.000000 0.000000 0.000000
vn 0.000000 0.000000 1.000000
vn 0.000000 0.000000 1.000000
vn 0.000000 0.000000 1.000000
vn 0.000000 0.000000 1.000000
vn 0.000000 -0.216825 0.976210
vn 0.000000 -0.216825 0.976210
vn 0.000000 -0.216825 0.976210
vn 0.000000 -0.216825 0.976210
vn 0.979618 0.200871 -0.000000
vn 0.979618 0.200871 -0.000000
vn 0.979618 0.200871 -0.000000
vn 0.979618 0.200871 -0.000000
vn 0.000000 -0.216827 -0.976210
vn 0.000000 -0.216827 -0.976210
vn 0.000000 -0.216827 -0.976210
vn 0.000000 -0.216827 -0.976210
vn -0.874193 -0.485579 0.000000
vn -0.874193 -0.485579 0.000000
vn -0.874193 -0.485579 0.000000
vn -0.874193 -0.485579 0.000000
vn 0.000000 -0.216827 -0.976210
vn 0.000000 -0.216827 -0.976210
vn 0.000000 -0.216827 -0.976210
vn 0.000000 -0.216827 -0.976210
vn -0.971024 0.238981 -0.000000
vn -0.971024 0.238981 -0.000000
vn -0.971024 0.238981 -0.000000
vn -0.971024 0.238981 -0.000000
vn 0.000000 -0.216825 0.976210
vn 0.000000 -0.216825 0.976210
vn 0.000000 -0.216825 0.976210
vn 0.000000 -0.216825 0.976210
vn 0.874192 -0.485579 0.000000
vn 0.874192 -0.485579 0.000000
vn 0.874193 -0.485579 0.000000
vn 0.874192 -0.485579 0.000000
vn -1.000000 0.000000 0.000000
vn -1.000000 0.000000 0.000000
vn -1.000000 0.000000 0.000000
vn -1.000000 0.000000 0.000000
vn -1.000000 0.000000 0.000000
vn 0.000000 0.000000 -1.000000
vn 0.000000 0.000000 -1.000000
vn 0.000000 0.000000 -1.000000
vn 0.000000 0.000000 -1.000000
vn 1.000000 0.000000 0.000000
vn 1.000000 0.000000 0.000000
vn 1.000000 0.000000 0.000000
vn 1.000000 0.000000 0.000000
vn 1.000000 0.000000 0.000000
vn 0.000000 0.000000 1.000000
vn 0.000000 0.000000 1.000000
vn 0.000000 0.000000 1.000000
vn 0.000000 0.000000 1.000000
vn 0.000000 0.000000 1.000000
vn 0.000000 0.000000 1.000000
vn 0.000000 0.000000 1.000000
vn 0.000000 0.000000 1.000000
vn -1.000000 0.000000 0.000000
vn -1.000000 0.000000 0.000000
vn -1.000000 0.000000 0.000000
vn -1.000000 0.000000 0.000000
vn 0.000000 -0.987837 0.155492
vn 0.000000 -0.987837 0.155492
vn 0.000000 -0.987837 0.155492
vn 0.000000 -0.987837 0.155492
vn 1.000000 0.000000 0.000000
vn 1.000000 0.000000 0.000000
vn 1.000000 0.000000 0.000000
vn 1.000000 0.000000 0.000000
vn 0.000000 0.826128 -0.563483
vn 0.000000 0.826128 -0.563483
vn 0.000000 0.826128 -0.563483
vn 0.000000 0.826128 -0.563483
s 1
g deer1
usemtl initialShadingGroup
f 1/165/1 21/166/2 96/167/3 83/168/4
s 2
f 3/85/5 22/86/6 48/87/7 41/88/8
s 3
f 87/181/9 88/182/10 29/183/11 7/184/12
s off
f 59/99/13 60/100/14 61/101/15 62/102/16
s 4
f 2/1/17 45/2/18 93/3/19 94/4/20
s 5
f 83/27/21 84/28/22 42/29/23 1/30/24
f 7/41/25 49/39/26 86/38/27 87/42/28
s off
f 63/103/29 64/104/30 65/105/31 66/106/32
s 4
f 90/15/33 91/12/34 56/13/35 8/16/36
s 8
f 51/107/37 52/108/38 25/109/39 16/110/40
s 9
f 9/197/41 23/198/42 24/199/43 14/200/44
s 10
f 54/18/45 55/14/46 6/17/47 15/22/48
s 11
f 26/209/49 27/210/50 17/211/51 19/212/52
s 12
f 5/43/53 50/40/54 51/44/55 16/48/56
s 13
f 27/121/57 28/122/58 5/123/59 17/124/60
s off
f 5/43/61 16/48/62 19/51/63 17/52/64
s 14
f 16/110/65 25/109/66 26/113/67 19/114/68
s off
f 15/22/69 6/17/70 18/25/71 20/26/72
s 1
f 94/175/73 95/171/74 33/172/75 2/176/76
s 2
f 46/96/77 47/89/78 32/90/79 4/97/80
s 9
f 40/202/81 31/201/82 12/205/83 13/206/84
s 8
f 39/112/85 53/111/86 54/117/87 15/118/88
s 14
f 38/119/89 39/112/90 15/118/91 20/120/92
s 11
f 18/215/93 37/214/94 38/213/95 20/216/96
s 13
f 6/127/97 36/126/98 37/125/99 18/128/100
s 3
f 35/188/101 89/187/102 90/192/103 8/193/104
s off
f 67/129/105 68/130/106 69/131/107 70/132/108
f 71/133/109 72/134/110 73/135/111 74/136/112
s 2
f 47/89/78 48/87/7 22/86/6 32/90/79
s 1
f 95/171/74 96/167/3 21/166/2 33/172/75
s 17
f 21/137/113 43/138/114 44/139/115 33/140/116
f 57/146/117 58/145/118 29/150/119 35/151/120
s 3
f 29/183/11 88/182/10 89/187/102 35/188/101
s 13
f 37/125/99 36/126/98 28/122/58 27/121/57
s 11
f 38/213/95 37/214/94 27/210/50 26/209/49
s 14
f 26/113/67 25/109/66 39/112/90 38/119/89
s 8
f 25/109/39 52/108/38 53/111/86 39/112/85
s 9
f 24/199/43 23/198/42 31/201/82 40/202/81
s 5
f 84/28/22 85/33/121 10/34/122 42/29/23
s 17
f 10/143/123 30/141/124 43/138/114 42/144/125
f 44/139/115 43/138/114 30/141/124 34/142/126
f 45/147/127 44/139/115 34/142/126 11/148/128
s 4
f 92/7/129 93/3/19 45/2/18 11/8/130
s 2
f 31/93/131 47/89/78 46/96/77 12/98/132
f 23/91/133 48/87/7 47/89/78 31/93/131
f 41/88/8 48/87/7 23/91/133 9/92/134
s 5
f 85/33/121 86/38/27 49/39/26 10/34/122
s 12
f 51/44/55 50/40/54 9/37/135 14/45/136
s off
f 76/153/137 75/154/138 77/155/139 78/156/140
s 8
f 53/111/86 52/108/38 24/115/141 40/116/142
s off
f 80/157/143 79/158/144 81/159/145 82/160/146
s 10
f 12/11/147 55/14/46 54/18/45 13/19/148
s 4
f 91/12/34 92/7/129 11/8/130 56/13/35
s 17
f 34/142/126 57/146/117 56/152/149 11/148/128
f 30/141/124 58/145/118 57/146/117 34/142/126
f 49/149/150 58/145/118 30/141/124 10/143/123
s off
f 42/217/151 43/218/152 60/219/153 59/220/154
f 43/53/155 21/54/156 61/55/157 60/56/158
f 21/166/159 1/165/160 62/169/161 61/170/162
f 1/30/163 42/29/164 59/35/165 62/36/166
f 7/184/167 29/183/168 64/189/169 63/190/170
f 29/57/171 58/58/172 65/59/173 64/60/174
f 58/221/175 49/222/176 66/223/177 65/224/178
f 49/39/179 7/41/180 63/46/181 66/47/182
f 56/225/183 57/226/184 68/227/185 67/228/186
f 57/61/187 35/62/188 69/63/189 68/64/190
f 35/188/191 8/193/192 70/195/193 69/196/194
f 8/16/195 56/13/196 67/20/197 70/21/198
f 33/65/199 44/66/200 72/67/201 71/68/202
f 44/229/203 45/230/204 73/231/205 72/232/206
f 45/2/207 2/1/208 74/5/209 73/6/210
f 2/176/211 33/172/212 71/179/213 74/180/214
f 14/200/215 24/199/216 75/203/217 76/204/218
f 24/69/219 52/70/220 77/71/221 75/72/222
f 52/233/223 51/234/224 78/235/225 77/236/226
f 51/44/227 14/45/228 76/49/229 78/50/230
f 54/237/231 53/238/232 79/239/233 80/240/234
f 53/73/235 40/74/236 81/75/237 79/76/238
f 40/202/239 13/206/240 82/207/241 81/208/242
f 13/19/243 54/18/244 80/23/245 82/24/246
s 5
f 41/31/247 84/28/22 83/27/21 3/32/248
f 9/37/249 85/33/121 84/28/22 41/31/247
f 50/40/250 86/38/27 85/33/121 9/37/249
f 87/42/28 86/38/27 50/40/250 5/43/251
s 3
f 5/185/252 28/186/253 88/182/10 87/181/9
f 89/187/102 88/182/10 28/186/253 36/191/254
f 90/192/103 89/187/102 36/191/254 6/194/255
s 4
f 55/14/256 91/12/34 90/15/33 6/17/257
f 12/11/258 92/7/129 91/12/34 55/14/256
f 46/9/259 93/3/19 92/7/129 12/11/258
f 94/4/20 93/3/19 46/9/259 4/10/260
s 1
f 32/177/261 95/171/74 94/175/73 4/178/262
s off
f 98/241/263 97/242/264 99/243/265 100/244/266
s 1
f 83/168/4 96/167/3 22/173/267 3/174/268
s off
f 22/77/269 96/78/270 97/79/271 98/80/272
f 96/161/273 95/162/274 99/163/275 97/164/276
f 95/81/277 32/82/278 100/83/279 99/84/280
f 32/90/281 22/86/282 98/94/283 100/95/284
