# This file uses centimeters as units for non-parametric coordinates.

mtllib dog.mtl
g default
v -0.124522 0.403479 0.083723
v 0.243443 0.403479 0.079663
v -0.124522 0.815304 0.083723
v 0.243443 0.815304 0.079663
v -0.134866 0.815304 -0.853775
v 0.233099 0.815304 -0.857835
v -0.134866 0.403479 -0.853775
v 0.233099 0.403479 -0.857835
v -0.131610 0.815304 -0.558684
v -0.131610 0.403479 -0.558684
v 0.236355 0.403479 -0.562744
v 0.236355 0.815304 -0.562744
v 0.236355 1.097658 -0.562744
v -0.131610 1.097658 -0.558684
v 0.233099 1.097658 -0.857835
v -0.134866 1.097658 -0.853775
v -0.137873 0.815304 -1.126264
v 0.230093 0.815304 -1.130324
v -0.137873 1.097658 -1.126264
v 0.230093 1.097658 -1.130324
v -0.008457 0.403479 0.082443
v -0.008457 0.815304 0.082443
v -0.015545 0.815304 -0.559965
v -0.015545 1.097658 -0.559965
v -0.018801 1.097658 -0.855056
v -0.021808 1.097658 -1.127545
v -0.021808 0.815304 -1.127545
v -0.018801 0.815304 -0.855056
v -0.018801 0.403479 -0.855056
v -0.015545 0.403479 -0.559965
v 0.133891 0.815304 -0.561613
v 0.140979 0.815304 0.080794
v 0.140979 0.403479 0.080794
v 0.133891 0.403479 -0.561613
v 0.130635 0.403479 -0.856705
v 0.130635 0.815304 -0.856705
v 0.127629 0.815304 -1.129193
v 0.127629 1.097658 -1.129193
v 0.130635 1.097658 -0.856705
v 0.133891 1.097658 -0.561613
v -0.127018 0.815304 -0.142460
v -0.127018 0.403479 -0.142460
v -0.010953 0.403479 -0.143740
v 0.138484 0.403479 -0.145389
v 0.240948 0.403479 -0.146520
v 0.240948 0.815304 -0.146520
v 0.138484 0.815304 -0.145389
v -0.010953 0.815304 -0.143740
v -0.132446 0.403479 -0.634411
v -0.132446 0.815304 -0.634411
v -0.132446 1.097657 -0.634411
v -0.016381 1.097657 -0.635691
v 0.133056 1.097657 -0.637340
v 0.235520 1.097657 -0.638471
v 0.235520 0.815304 -0.638471
v 0.235520 0.403479 -0.638471
v 0.133056 0.403479 -0.637340
v -0.016381 0.403479 -0.635691
v -0.127018 0.169435 -0.142460
v -0.010953 0.169435 -0.143740
v -0.008457 0.169435 0.082443
v -0.124522 0.169435 0.083723
v -0.134866 0.169435 -0.853775
v -0.018801 0.169435 -0.855056
v -0.016381 0.169435 -0.635691
v -0.132446 0.169435 -0.634411
v 0.235520 0.169435 -0.638471
v 0.133056 0.169435 -0.637340
v 0.130635 0.169435 -0.856705
v 0.233099 0.169435 -0.857835
v 0.140979 0.169435 0.080794
v 0.138484 0.169435 -0.145389
v 0.240948 0.169435 -0.146520
v 0.243443 0.169435 0.079663
v -0.000201 1.281571 -0.558156
v -0.090081 1.281571 -0.557164
v -0.001080 1.281571 -0.637838
v -0.090960 1.281571 -0.636847
v 0.114643 1.281571 -0.639115
v 0.193991 1.281571 -0.639991
v 0.115522 1.281571 -0.559433
v 0.194870 1.281571 -0.560308
v -0.124522 0.675835 0.083723
v -0.127018 0.675835 -0.142460
v -0.131610 0.675835 -0.558684
v -0.132446 0.675835 -0.634411
v -0.134866 0.675835 -0.853775
v -0.018801 0.675835 -0.855056
v 0.130635 0.675835 -0.856705
v 0.233099 0.675835 -0.857835
v 0.235520 0.675835 -0.638471
v 0.236355 0.675835 -0.562744
v 0.240948 0.675835 -0.146520
v 0.243443 0.675835 0.079663
v 0.140979 0.675835 0.080794
v -0.008457 0.675835 0.082443
v 0.012858 0.462746 0.223753
v 0.013618 0.543283 0.292661
v 0.122788 0.462746 0.222540
v 0.123548 0.543283 0.291448
vt 0.805746 0.036579
vt 0.827183 0.036579
vt 0.827183 0.074298
vt 0.805746 0.074298
vt 0.805746 0.004167
vt 0.827183 0.004167
vt 0.866633 0.074298
vt 0.866633 0.036579
vt 0.827183 0.093612
vt 0.805746 0.093612
vt 0.866633 0.093612
vt 0.873810 0.074298
vt 0.873810 0.036579
vt 0.873810 0.093612
vt 0.894601 0.074298
vt 0.894601 0.036579
vt 0.894601 0.093612
vt 0.873810 0.132715
vt 0.866633 0.132715
vt 0.873810 0.004167
vt 0.894601 0.004167
vt 0.894601 0.132715
vt 0.873997 0.158185
vt 0.866445 0.158185
vt 0.920427 0.093612
vt 0.920427 0.132715
vt 0.846203 0.181727
vt 0.824765 0.181727
vt 0.824765 0.144009
vt 0.846203 0.144009
vt 0.824765 0.201042
vt 0.846203 0.201042
vt 0.785316 0.181727
vt 0.785316 0.144009
vt 0.824765 0.111597
vt 0.846203 0.111597
vt 0.785316 0.201042
vt 0.778139 0.181727
vt 0.778139 0.144009
vt 0.778139 0.201042
vt 0.757348 0.144009
vt 0.757348 0.181727
vt 0.757348 0.201042
vt 0.778139 0.240145
vt 0.785316 0.240145
vt 0.757348 0.111597
vt 0.778139 0.111597
vt 0.757348 0.240145
vt 0.785504 0.265615
vt 0.777951 0.265615
vt 0.731522 0.240145
vt 0.731522 0.201042
vt 0.131819 0.909255
vt 0.110381 0.909255
vt 0.110381 0.876842
vt 0.131819 0.876842
vt 0.328453 0.913638
vt 0.307662 0.913638
vt 0.307662 0.881225
vt 0.328453 0.881225
vt 0.074527 0.925965
vt 0.053736 0.925965
vt 0.053736 0.893553
vt 0.074527 0.893553
vt 0.971726 0.935732
vt 0.950288 0.935732
vt 0.950288 0.903319
vt 0.971726 0.903319
vt 0.647719 0.024658
vt 0.654896 0.024658
vt 0.655083 0.050128
vt 0.647531 0.050128
vt 0.860625 0.921209
vt 0.867802 0.921209
vt 0.867990 0.946679
vt 0.860438 0.946679
vt 0.952241 0.052556
vt 0.952241 0.033241
vt 0.965655 0.003730
vt 0.972186 0.014884
vt 0.644037 0.033241
vt 0.644037 0.052556
vt 0.624092 0.014884
vt 0.630623 0.003730
vt 0.092802 0.621516
vt 0.092802 0.593489
vt 0.114239 0.593489
vt 0.114239 0.621516
vt 0.114239 0.557404
vt 0.092802 0.557404
vt 0.153688 0.593489
vt 0.153688 0.621516
vt 0.153688 0.557404
vt 0.114239 0.532661
vt 0.092802 0.532661
vt 0.153688 0.532661
vt 0.836998 0.946263
vt 0.836998 0.918236
vt 0.858436 0.918236
vt 0.858436 0.946263
vt 0.319381 0.948216
vt 0.319381 0.920190
vt 0.340172 0.920190
vt 0.340172 0.948216
vt 0.885194 0.605890
vt 0.885194 0.577863
vt 0.905986 0.577863
vt 0.905986 0.605890
vt 0.885194 0.541777
vt 0.905986 0.541777
vt 0.931812 0.577863
vt 0.931812 0.605890
vt 0.878017 0.577863
vt 0.878017 0.541777
vt 0.885194 0.517035
vt 0.905986 0.517035
vt 0.931812 0.541777
vt 0.931812 0.517035
vt 0.684643 0.070012
vt 0.710469 0.070012
vt 0.710469 0.098039
vt 0.684643 0.098039
vt 0.684643 0.033927
vt 0.710469 0.033927
vt 0.710469 0.009185
vt 0.684643 0.009185
vt 0.064761 0.932929
vt 0.064761 0.957671
vt 0.043970 0.957671
vt 0.043970 0.932929
vt 0.754912 0.959624
vt 0.733475 0.959624
vt 0.733475 0.934882
vt 0.754912 0.934882
vt 0.456791 0.627782
vt 0.456791 0.606344
vt 0.492877 0.606344
vt 0.492877 0.627782
vt 0.456791 0.566895
vt 0.492877 0.566895
vt 0.428765 0.566895
vt 0.428765 0.606344
vt 0.456791 0.559718
vt 0.492877 0.559718
vt 0.517619 0.606344
vt 0.517619 0.566895
vt 0.428765 0.559718
vt 0.456791 0.538927
vt 0.492877 0.538927
vt 0.517619 0.559718
vt 0.067409 0.956586
vt 0.067409 0.934882
vt 0.074961 0.934882
vt 0.074961 0.956586
vt 0.311307 0.944648
vt 0.311307 0.963809
vt 0.303755 0.963809
vt 0.303755 0.944648
vt 0.000998 0.513177
vt 0.029025 0.513177
vt 0.029025 0.550896
vt 0.000998 0.550896
vt 0.000998 0.480765
vt 0.029025 0.480765
vt 0.065110 0.550896
vt 0.065110 0.513177
vt 0.029025 0.570210
vt 0.000998 0.570210
vt 0.089853 0.550896
vt 0.089853 0.513177
vt 0.065110 0.570210
vt 0.089853 0.570210
vt 0.065110 0.480765
vt 0.089853 0.480765
vt 0.641671 0.530375
vt 0.669698 0.530375
vt 0.669698 0.568094
vt 0.641671 0.568094
vt 0.641671 0.511060
vt 0.669698 0.511060
vt 0.705783 0.530375
vt 0.705783 0.568094
vt 0.669698 0.600506
vt 0.641671 0.600506
vt 0.705783 0.511060
vt 0.730526 0.530375
vt 0.730526 0.568094
vt 0.730526 0.511060
vt 0.730526 0.600506
vt 0.705783 0.600506
vt 0.799886 0.625422
vt 0.799886 0.597396
vt 0.838989 0.597396
vt 0.838989 0.625422
vt 0.799886 0.561310
vt 0.838989 0.561310
vt 0.864459 0.593696
vt 0.864459 0.615399
vt 0.799886 0.536568
vt 0.838989 0.536568
vt 0.864459 0.546591
vt 0.864459 0.565751
vt 0.157260 0.595443
vt 0.196363 0.595443
vt 0.196363 0.623469
vt 0.157260 0.623469
vt 0.157260 0.559357
vt 0.196363 0.559357
vt 0.196363 0.534615
vt 0.157260 0.534615
vt 0.723709 0.888562
vt 0.751735 0.888562
vt 0.751735 0.920974
vt 0.723709 0.920974
vt 0.782988 0.929264
vt 0.754961 0.929264
vt 0.754961 0.896851
vt 0.782988 0.896851
vt 0.947685 0.929264
vt 0.922942 0.929264
vt 0.922942 0.896851
vt 0.947685 0.896851
vt 0.973727 0.905272
vt 0.998470 0.905272
vt 0.998470 0.937685
vt 0.973727 0.937685
vt 0.288207 0.916310
vt 0.288207 0.944336
vt 0.262736 0.934314
vt 0.262736 0.912610
vt 0.202263 0.918469
vt 0.202263 0.943212
vt 0.176792 0.947653
vt 0.176792 0.928492
vt 0.245157 0.909022
vt 0.245157 0.872936
vt 0.274667 0.877706
vt 0.274667 0.904252
vt 0.535168 0.921761
vt 0.499082 0.921761
vt 0.503852 0.884089
vt 0.530398 0.884089
vt 0.503852 0.872936
vt 0.530398 0.872936
vn 0.011033 0.000000 0.999939
vn 0.011033 0.000000 0.999939
vn 0.011033 0.000000 0.999939
vn 0.011033 0.000000 0.999939
vn 0.000000 1.000000 0.000000
vn -0.000000 1.000000 -0.000000
vn 0.000000 1.000000 0.000000
vn 0.000000 1.000000 0.000000
vn -0.011033 0.000000 -0.999939
vn -0.011033 0.000000 -0.999939
vn -0.011033 0.000000 -0.999939
vn -0.011033 0.000000 -0.999939
vn 0.000000 -1.000000 0.000000
vn 0.000000 -1.000000 0.000000
vn 0.000000 -1.000000 0.000000
vn 0.000000 -1.000000 0.000000
vn 0.999939 0.000000 -0.011033
vn 0.999939 0.000000 -0.011033
vn 0.999939 0.000000 -0.011033
vn 0.999939 0.000000 -0.011033
vn -0.999939 -0.000000 0.011033
vn -0.999939 -0.000000 0.011033
vn -0.999939 -0.000000 0.011033
vn -0.999939 -0.000000 0.011033
vn -0.999939 -0.000000 0.011033
vn -0.999939 -0.000000 0.011033
vn -0.999939 -0.000000 0.011033
vn -0.999939 -0.000000 0.011033
vn 0.000000 -1.000000 0.000001
vn 0.000000 -1.000000 0.000001
vn 0.000000 -1.000000 0.000001
vn 0.000000 -1.000000 0.000001
vn 0.999939 0.000000 -0.011033
vn 0.999939 0.000000 -0.011033
vn 0.999939 0.000000 -0.011033
vn 0.999939 0.000000 -0.011033
vn 0.000000 1.000000 0.000001
vn 0.000000 1.000000 0.000000
vn 0.000000 1.000000 0.000001
vn 0.000000 1.000000 0.000001
vn 0.011033 0.000000 0.999939
vn 0.011033 0.000000 0.999939
vn 0.011033 0.000000 0.999939
vn 0.011033 0.000000 0.999939
vn 0.999939 0.000000 -0.011033
vn 0.999939 0.000000 -0.011033
vn 0.999939 0.000000 -0.011033
vn 0.999939 0.000000 -0.011033
vn -0.011033 0.000000 -0.999939
vn -0.011033 0.000000 -0.999939
vn -0.011033 0.000000 -0.999939
vn -0.011033 0.000000 -0.999939
vn -0.999939 0.000000 0.011033
vn -0.999939 0.000000 0.011033
vn -0.999939 0.000000 0.011033
vn -0.999939 0.000000 0.011033
vn 0.000000 -1.000000 0.000000
vn 0.000000 -1.000000 0.000000
vn 0.000000 -1.000000 0.000000
vn 0.000000 -1.000000 0.000000
vn -0.999939 0.000000 0.011033
vn -0.999939 0.000000 0.011033
vn -0.999939 0.000000 0.011033
vn -0.999939 0.000000 0.011033
vn 0.000000 1.000000 0.000000
vn 0.000000 1.000000 0.000000
vn 0.000000 1.000000 0.000000
vn 0.000000 1.000000 0.000000
vn 0.999939 0.000000 -0.011033
vn 0.999939 0.000000 -0.011033
vn 0.999939 0.000000 -0.011033
vn 0.999939 0.000000 -0.011033
vn 0.011033 0.000000 0.999939
vn 0.011033 0.000000 0.999939
vn 0.011033 0.000000 0.999939
vn 0.011033 0.000000 0.999939
vn 0.000000 1.000000 0.000000
vn 0.000000 1.000000 0.000000
vn 0.000000 1.000000 0.000000
vn 0.000000 1.000000 0.000000
vn 0.011033 0.000000 0.999939
vn 0.011033 0.000000 0.999939
vn 0.011033 0.000000 0.999939
vn 0.011033 0.000000 0.999939
vn 0.000000 1.000000 0.000001
vn 0.000000 1.000000 0.000000
vn 0.000000 1.000000 0.000001
vn 0.000000 1.000000 0.000001
vn 0.000000 1.000000 0.000000
vn 0.000000 1.000000 0.000000
vn 0.000000 1.000000 0.000000
vn 0.000000 1.000000 0.000000
vn -0.011033 0.000000 -0.999939
vn -0.011033 0.000000 -0.999939
vn -0.011033 0.000000 -0.999939
vn -0.011033 0.000000 -0.999939
vn 0.000000 -1.000000 0.000000
vn 0.000000 -1.000000 0.000000
vn 0.000000 -1.000000 0.000000
vn 0.000000 -1.000000 0.000000
vn -0.011033 0.000000 -0.999939
vn -0.011033 0.000000 -0.999939
vn -0.011033 0.000000 -0.999939
vn -0.011033 0.000000 -0.999939
vn 0.000000 -1.000000 0.000000
vn 0.000000 -1.000000 0.000000
vn 0.000000 -1.000000 0.000000
vn 0.000000 -1.000000 0.000000
vn 0.000000 -1.000000 0.000000
vn 0.000000 -1.000000 0.000000
vn 0.000000 -1.000000 0.000000
vn 0.000000 -1.000000 0.000000
vn 0.000000 -1.000000 0.000000
vn -0.000000 -1.000000 -0.000000
vn 0.000000 -1.000000 0.000000
vn 0.000000 -1.000000 0.000000
vn 0.000000 -1.000000 0.000000
vn 0.000000 -1.000000 0.000000
vn -0.000000 -1.000000 -0.000001
vn -0.000000 -1.000000 -0.000001
vn -0.999939 -0.000000 0.011033
vn -0.999939 -0.000000 0.011033
vn 0.000000 -1.000000 0.000000
vn 0.000000 -1.000000 0.000000
vn -0.000000 -1.000000 -0.000000
vn 0.000000 -1.000000 0.000000
vn 0.000000 -1.000000 0.000000
vn 0.000000 -1.000000 0.000000
vn 0.999939 0.000000 -0.011033
vn 0.999939 0.000000 -0.011033
vn 0.000000 1.000000 0.000000
vn -0.000000 1.000000 -0.000000
vn 0.000000 1.000000 0.000000
vn 0.000000 1.000000 0.000000
vn -0.999939 0.000000 0.011033
vn -0.999939 0.000000 0.011033
vn 0.000000 1.000000 0.000000
vn 0.000000 1.000000 0.000000
vn 0.000000 1.000000 0.000000
vn 0.000000 1.000000 0.000000
vn -0.000000 1.000000 -0.000002
vn -0.000000 1.000000 -0.000002
vn 0.000000 1.000000 0.000000
vn 0.000000 1.000000 0.000000
vn 0.000000 1.000000 0.000000
vn 0.000000 1.000000 0.000000
vn 0.999939 0.000000 -0.011033
vn 0.999939 0.000000 -0.011033
vn 0.000000 -1.000000 0.000002
vn 0.000000 -1.000000 0.000002
vn -0.011033 0.000000 -0.999939
vn -0.011033 0.000000 -0.999939
vn -0.011033 0.000000 -0.999939
vn -0.011033 0.000000 -0.999939
vn 0.999939 0.000000 -0.011033
vn 0.999939 0.000000 -0.011033
vn 0.999939 0.000000 -0.011033
vn 0.999939 0.000000 -0.011033
vn 0.011033 0.000000 0.999939
vn 0.011033 0.000000 0.999939
vn 0.011033 0.000000 0.999939
vn 0.011033 0.000000 0.999939
vn -0.999939 0.000000 0.011033
vn -0.999939 0.000000 0.011033
vn -0.999939 0.000000 0.011033
vn -0.999939 0.000000 0.011033
vn -0.011033 0.000000 -0.999939
vn -0.011033 0.000000 -0.999939
vn -0.011033 0.000000 -0.999939
vn -0.011033 0.000000 -0.999939
vn 0.999939 0.000000 -0.011033
vn 0.999939 0.000000 -0.011033
vn 0.999939 0.000000 -0.011033
vn 0.999939 0.000000 -0.011033
vn 0.011033 0.000000 0.999939
vn 0.011033 0.000000 0.999939
vn 0.011033 0.000000 0.999939
vn 0.011033 0.000000 0.999939
vn -0.999939 0.000000 0.011033
vn -0.999939 0.000000 0.011033
vn -0.999939 0.000000 0.011033
vn -0.999939 0.000000 0.011033
vn 0.011033 0.000000 0.999939
vn 0.011033 0.000000 0.999939
vn 0.011033 0.000000 0.999939
vn 0.011033 0.000000 0.999939
vn -0.999939 0.000000 0.011033
vn -0.999939 0.000000 0.011033
vn -0.999939 0.000000 0.011033
vn -0.999939 0.000000 0.011033
vn -0.011033 0.000000 -0.999939
vn -0.011033 0.000000 -0.999939
vn -0.011033 0.000000 -0.999939
vn -0.011033 0.000000 -0.999939
vn 0.999939 0.000000 -0.011033
vn 0.999939 0.000000 -0.011033
vn 0.999939 0.000000 -0.011033
vn 0.999939 0.000000 -0.011033
vn -0.999939 0.000000 0.011033
vn -0.999939 0.000000 0.011033
vn -0.999939 0.000000 0.011033
vn -0.999939 0.000000 0.011033
vn -0.011033 0.000000 -0.999939
vn -0.011033 0.000000 -0.999939
vn -0.011033 0.000000 -0.999939
vn -0.011033 0.000000 -0.999939
vn 0.999939 0.000000 -0.011033
vn 0.999939 0.000000 -0.011033
vn 0.999939 0.000000 -0.011033
vn 0.999939 0.000000 -0.011033
vn 0.011033 0.000000 0.999939
vn 0.011033 0.000000 0.999939
vn 0.011033 0.000000 0.999939
vn 0.011033 0.000000 0.999939
vn 0.011033 -0.010753 0.999881
vn 0.011033 -0.010753 0.999881
vn 0.011033 -0.010753 0.999881
vn 0.011033 -0.010753 0.999881
vn 0.996486 -0.083031 -0.010995
vn 0.996486 -0.083031 -0.010995
vn 0.996486 -0.083031 -0.010995
vn 0.996486 -0.083031 -0.010995
vn -0.011033 -0.010755 -0.999881
vn -0.011033 -0.010755 -0.999881
vn -0.011033 -0.010755 -0.999881
vn -0.011033 -0.010755 -0.999881
vn -0.975404 0.220164 0.010762
vn -0.975404 0.220164 0.010762
vn -0.975404 0.220164 0.010762
vn -0.975404 0.220164 0.010762
vn -0.011033 -0.010755 -0.999881
vn -0.011033 -0.010755 -0.999881
vn -0.011033 -0.010755 -0.999881
vn -0.011033 -0.010755 -0.999881
vn -0.994976 -0.099507 0.010979
vn -0.994976 -0.099507 0.010979
vn -0.994976 -0.099507 0.010979
vn -0.994976 -0.099507 0.010979
vn 0.011033 -0.010753 0.999881
vn 0.011033 -0.010753 0.999881
vn 0.011033 -0.010753 0.999881
vn 0.011033 -0.010753 0.999881
vn 0.975404 0.220164 -0.010763
vn 0.975404 0.220164 -0.010763
vn 0.975404 0.220164 -0.010763
vn 0.975404 0.220164 -0.010763
vn -0.999939 0.000000 0.011033
vn -0.999939 0.000000 0.011033
vn -0.999939 0.000000 0.011033
vn -0.999939 0.000000 0.011033
vn -0.999939 0.000000 0.011033
vn -0.011033 0.000000 -0.999939
vn -0.011033 0.000000 -0.999939
vn -0.011033 0.000000 -0.999939
vn -0.011033 0.000000 -0.999939
vn 0.999939 0.000000 -0.011033
vn 0.999939 0.000000 -0.011033
vn 0.999939 0.000000 -0.011033
vn 0.999939 0.000000 -0.011033
vn 0.999939 0.000000 -0.011033
vn 0.011033 0.000000 0.999939
vn 0.011033 0.000000 0.999939
vn 0.008383 -0.650145 0.759764
vn 0.008383 -0.650145 0.759764
vn 0.008383 -0.650145 0.759764
vn 0.008383 -0.650145 0.759764
vn 0.011033 0.000000 0.999939
vn 0.011033 0.000000 0.999939
vn -0.995719 -0.024475 0.089129
vn -0.995719 -0.024475 0.089129
vn -0.995719 -0.024475 0.089129
vn -0.995719 -0.024475 0.089129
vn -0.009191 -0.553285 -0.832941
vn -0.009191 -0.553285 -0.832941
vn -0.009191 -0.553285 -0.832941
vn -0.009191 -0.553285 -0.832941
vn 0.997444 -0.024475 0.067137
vn 0.997444 -0.024475 0.067137
vn 0.997444 -0.024475 0.067137
vn 0.997444 -0.024475 0.067137
vn 0.008726 0.611904 0.790884
vn 0.008726 0.611904 0.790884
vn 0.008726 0.611904 0.790884
vn 0.008726 0.611904 0.790884
s 1
g deer
usemtl initialShadingGroup
f 1/159/1 21/160/2 96/161/3 83/162/4
s 2
f 3/85/5 22/86/6 48/87/7 41/88/8
s 3
f 87/175/9 88/176/10 29/177/11 7/178/12
s off
f 59/97/13 60/98/14 61/99/15 62/100/16
s 4
f 2/1/17 45/2/18 93/3/19 94/4/20
s 5
f 83/27/21 84/28/22 42/29/23 1/30/24
f 7/41/25 49/39/26 86/38/27 87/42/28
s off
f 63/101/29 64/102/30 65/103/31 66/104/32
s 4
f 90/15/33 91/12/34 56/13/35 8/16/36
s 8
f 51/105/37 52/106/38 25/107/39 16/108/40
s 9
f 9/191/41 23/192/42 24/193/43 14/194/44
s 10
f 54/18/45 55/14/46 6/17/47 15/22/48
s 11
f 26/203/49 27/204/50 17/205/51 19/206/52
s 12
f 5/43/53 50/40/54 51/44/55 16/48/56
s 13
f 27/119/57 28/120/58 5/121/59 17/122/60
s off
f 5/43/61 16/48/62 19/51/63 17/52/64
s 14
f 16/108/65 25/107/66 26/111/67 19/112/68
s off
f 15/22/69 6/17/70 18/25/71 20/26/72
s 1
f 94/169/73 95/165/74 33/166/75 2/170/76
s 2
f 46/94/77 47/89/78 32/90/79 4/95/80
s 9
f 40/196/81 31/195/82 12/199/83 13/200/84
s 8
f 39/110/85 53/109/86 54/115/87 15/116/88
s 14
f 38/117/89 39/110/90 15/116/91 20/118/92
s 11
f 18/209/93 37/208/94 38/207/95 20/210/96
s 13
f 6/125/97 36/124/98 37/123/99 18/126/100
s 3
f 35/182/101 89/181/102 90/186/103 8/187/104
s off
f 67/127/105 68/128/106 69/129/107 70/130/108
f 71/131/109 72/132/110 73/133/111 74/134/112
s 2
f 47/89/78 48/87/7 22/86/6 32/90/79
s 1
f 95/165/74 96/161/3 21/160/2 33/166/75
s 17
f 21/135/113 43/136/114 44/137/115 33/138/116
f 57/144/117 58/143/118 29/148/119 35/149/120
s 3
f 29/177/11 88/176/10 89/181/102 35/182/101
s 13
f 37/123/99 36/124/98 28/120/58 27/119/57
s 11
f 38/207/95 37/208/94 27/204/50 26/203/49
s 14
f 26/111/67 25/107/66 39/110/90 38/117/89
s 8
f 25/107/39 52/106/38 53/109/86 39/110/85
s 9
f 24/193/43 23/192/42 31/195/82 40/196/81
s 5
f 84/28/22 85/33/121 10/34/122 42/29/23
s 17
f 10/141/123 30/139/124 43/136/114 42/142/125
f 44/137/115 43/136/114 30/139/124 34/140/126
f 45/145/127 44/137/115 34/140/126 11/146/128
s 4
f 92/7/129 93/3/19 45/2/18 11/8/130
s 2
f 31/93/131 47/89/78 46/94/77 12/96/132
f 23/91/133 48/87/7 47/89/78 31/93/131
f 41/88/8 48/87/7 23/91/133 9/92/134
s 5
f 85/33/121 86/38/27 49/39/26 10/34/122
s 12
f 51/44/55 50/40/54 9/37/135 14/45/136
s off
f 76/151/137 75/152/138 77/153/139 78/154/140
s 8
f 53/109/86 52/106/38 24/113/141 40/114/142
s off
f 80/155/143 79/156/144 81/157/145 82/158/146
s 10
f 12/11/147 55/14/46 54/18/45 13/19/148
s 4
f 91/12/34 92/7/129 11/8/130 56/13/35
s 17
f 34/140/126 57/144/117 56/150/149 11/146/128
f 30/139/124 58/143/118 57/144/117 34/140/126
f 49/147/150 58/143/118 30/139/124 10/141/123
s off
f 42/211/151 43/212/152 60/213/153 59/214/154
f 43/53/155 21/54/156 61/55/157 60/56/158
f 21/160/159 1/159/160 62/163/161 61/164/162
f 1/30/163 42/29/164 59/35/165 62/36/166
f 7/178/167 29/177/168 64/183/169 63/184/170
f 29/57/171 58/58/172 65/59/173 64/60/174
f 58/215/175 49/216/176 66/217/177 65/218/178
f 49/39/179 7/41/180 63/46/181 66/47/182
f 56/219/183 57/220/184 68/221/185 67/222/186
f 57/61/187 35/62/188 69/63/189 68/64/190
f 35/182/191 8/187/192 70/189/193 69/190/194
f 8/16/195 56/13/196 67/20/197 70/21/198
f 33/65/199 44/66/200 72/67/201 71/68/202
f 44/223/203 45/224/204 73/225/205 72/226/206
f 45/2/207 2/1/208 74/5/209 73/6/210
f 2/170/211 33/166/212 71/173/213 74/174/214
f 14/194/215 24/193/216 75/197/217 76/198/218
f 24/69/219 52/70/220 77/71/221 75/72/222
f 52/227/223 51/228/224 78/229/225 77/230/226
f 51/44/227 14/45/228 76/49/229 78/50/230
f 54/231/231 53/232/232 79/233/233 80/234/234
f 53/73/235 40/74/236 81/75/237 79/76/238
f 40/196/239 13/200/240 82/201/241 81/202/242
f 13/19/243 54/18/244 80/23/245 82/24/246
s 5
f 41/31/247 84/28/22 83/27/21 3/32/248
f 9/37/249 85/33/121 84/28/22 41/31/247
f 50/40/250 86/38/27 85/33/121 9/37/249
f 87/42/28 86/38/27 50/40/250 5/43/251
s 3
f 5/179/252 28/180/253 88/176/10 87/175/9
f 89/181/102 88/176/10 28/180/253 36/185/254
f 90/186/103 89/181/102 36/185/254 6/188/255
s 4
f 55/14/256 91/12/34 90/15/33 6/17/257
f 12/11/258 92/7/129 91/12/34 55/14/256
f 46/9/259 93/3/19 92/7/129 12/11/258
f 94/4/20 93/3/19 46/9/259 4/10/260
s 1
f 32/171/261 95/165/74 94/169/73 4/172/262
s off
f 98/241/263 97/243/264 99/244/265 100/242/266
s 1
f 83/162/4 96/161/3 22/167/267 3/168/268
s off
f 22/77/269 96/78/270 97/79/271 98/80/272
f 96/235/273 95/236/274 99/237/275 97/238/276
f 95/81/277 32/82/278 100/83/279 99/84/280
f 32/239/281 22/240/282 98/241/283 100/242/284
