# This file uses centimeters as units for non-parametric coordinates.

mtllib person.mtl
g default
v -0.328668 0.509240 0.091486
v 0.343214 0.509240 0.091486
v -0.273130 1.084710 0.050106
v 0.287677 1.084710 0.050106
v -0.273130 1.084710 -0.367741
v 0.287677 1.084710 -0.367741
v -0.328668 0.509240 -0.409121
v 0.343214 0.509240 -0.409121
v 0.007273 0.509240 0.091486
v 0.007273 1.084710 0.050106
v 0.007273 1.084710 -0.367741
v 0.007273 0.509240 -0.409121
v -0.235644 -0.012996 -0.301171
v -0.044599 -0.012996 -0.301171
v -0.044599 -0.012996 -0.016460
v -0.235644 -0.012996 -0.016460
v 0.049520 -0.010142 -0.315499
v 0.049520 -0.010142 -0.002133
v 0.259763 -0.010142 -0.315499
v 0.259763 -0.010142 -0.002133
v -0.228727 1.625332 0.060825
v 0.007273 1.625332 0.060825
v 0.007273 1.625332 -0.378460
v -0.228727 1.625332 -0.378460
v 0.243274 1.625332 0.060825
v 0.243274 1.625332 -0.378460
v -0.257347 1.202478 0.154470
v 0.007273 1.202478 0.154470
v 0.007273 1.507564 0.154470
v -0.228907 1.507564 0.154470
v -0.257347 1.202478 -0.472098
v 0.007273 1.202478 -0.472098
v -0.228907 1.507564 -0.472098
v 0.007273 1.507564 -0.472098
v 0.271894 1.202478 0.154470
v 0.243454 1.507564 0.154470
v 0.271894 1.202478 -0.472098
v 0.243454 1.507564 -0.472098
v -0.287517 0.811667 0.060825
v -0.287517 0.811667 -0.378460
v 0.007273 0.811667 -0.378460
v 0.302064 0.811667 -0.378460
v 0.302064 0.811667 0.060825
v 0.007273 0.811667 0.060825
v -0.273130 1.084710 -0.300638
v -0.287517 0.811667 -0.307914
v -0.328668 0.509240 -0.328727
v -0.235644 -0.012997 -0.255446
v -0.044599 -0.012997 -0.255446
v 0.007273 0.462832 -0.307914
v 0.049520 -0.010142 -0.265176
v 0.259763 -0.010142 -0.265176
v 0.343214 0.509240 -0.328727
v 0.302064 0.811667 -0.307914
v 0.287677 1.084710 -0.300638
v 0.341377 1.202478 -0.371482
v 0.341377 1.507564 -0.371482
v 0.243274 1.625332 -0.307914
v 0.007273 1.625332 -0.307914
v -0.228727 1.625332 -0.307914
v -0.326831 1.507564 -0.371482
v -0.326831 1.202478 -0.371482
v -0.273130 1.084710 0.001193
v -0.287517 0.811667 0.009403
v -0.328668 0.509240 0.032886
v -0.235644 -0.012997 -0.049784
v -0.044599 -0.012997 -0.049784
v 0.007273 0.462832 0.009403
v 0.049520 -0.010142 -0.038815
v 0.259763 -0.010142 -0.038815
v 0.343214 0.509240 0.032886
v 0.302064 0.811667 0.009403
v 0.287677 1.084710 0.001193
v 0.341377 1.202478 0.081122
v 0.341377 1.507564 0.081122
v 0.243274 1.625332 0.009403
v 0.007273 1.625332 0.009403
v -0.228727 1.625332 0.009403
v -0.326831 1.507564 0.081122
v -0.326831 1.202478 0.081122
v -0.528761 0.602523 -0.246947
v -0.363139 0.603414 -0.246947
v -0.363139 0.603414 -0.051566
v -0.528761 0.602523 -0.051566
v 0.395755 0.585337 -0.051566
v 0.560744 0.600049 -0.051566
v 0.395755 0.585337 -0.246947
v 0.560744 0.600049 -0.246947
vt 0.570879 0.213146
vt 0.581341 0.213146
vt 0.585534 0.241569
vt 0.576353 0.241569
vt 0.594142 0.164334
vt 0.587593 0.164334
vt 0.645902 0.213146
vt 0.642187 0.241569
vt 0.586999 0.267230
vt 0.578267 0.267230
vt 0.634556 0.164334
vt 0.660256 0.213146
vt 0.654782 0.241569
vt 0.572729 0.278298
vt 0.559634 0.278298
vt 0.643541 0.164334
vt 0.640887 0.267230
vt 0.652868 0.267230
vt 0.653536 0.278298
vt 0.572729 0.306971
vt 0.559634 0.306971
vt 0.671500 0.278298
vt 0.653536 0.306971
vt 0.585534 0.318039
vt 0.576353 0.318039
vt 0.671500 0.306971
vt 0.642187 0.318039
vt 0.654782 0.318039
vt 0.946404 0.218398
vt 0.950596 0.189975
vt 0.961058 0.189975
vt 0.955584 0.218398
vt 0.889751 0.218398
vt 0.886035 0.189975
vt 0.935836 0.140895
vt 0.941786 0.140895
vt 0.944938 0.244059
vt 0.953671 0.244059
vt 0.871681 0.189975
vt 0.877155 0.218398
vt 0.899118 0.140895
vt 0.959208 0.255127
vt 0.972303 0.255127
vt 0.890954 0.140895
vt 0.891050 0.244059
vt 0.879069 0.244059
vt 0.878401 0.255127
vt 0.959208 0.283800
vt 0.972303 0.283800
vt 0.860438 0.255127
vt 0.878401 0.283800
vt 0.955584 0.294868
vt 0.946404 0.294868
vt 0.860438 0.283800
vt 0.889751 0.294868
vt 0.877155 0.294868
vt 0.747148 0.555483
vt 0.791867 0.566050
vt 0.796229 0.580705
vt 0.747148 0.561433
vt 0.747148 0.518765
vt 0.791867 0.509398
vt 0.796229 0.491328
vt 0.747148 0.510601
vt 0.993241 0.515036
vt 0.988880 0.529691
vt 0.944429 0.538299
vt 0.944429 0.531750
vt 0.988880 0.586344
vt 0.944429 0.578713
vt 0.993241 0.604413
vt 0.944429 0.587698
vt 0.415131 0.808027
vt 0.415131 0.864679
vt 0.395559 0.853794
vt 0.395559 0.818911
vt 0.571377 0.342019
vt 0.602772 0.342019
vt 0.602772 0.351200
vt 0.571377 0.351200
vt 0.571353 0.325300
vt 0.602772 0.325300
vt 0.634166 0.351200
vt 0.634166 0.342019
vt 0.602772 0.407853
vt 0.571377 0.407853
vt 0.634190 0.325300
vt 0.634166 0.407853
vt 0.602772 0.420448
vt 0.571377 0.420448
vt 0.634166 0.420448
vt 0.602772 0.437166
vt 0.571353 0.437166
vt 0.634190 0.437166
vt 0.842858 0.906574
vt 0.868272 0.906574
vt 0.868272 0.912524
vt 0.842858 0.912524
vt 0.842858 0.869856
vt 0.868272 0.869856
vt 0.842858 0.861693
vt 0.868272 0.861693
vt 0.792073 0.865927
vt 0.792073 0.859378
vt 0.820041 0.859378
vt 0.820041 0.865927
vt 0.792073 0.818964
vt 0.820041 0.818964
vt 0.792073 0.809980
vt 0.820041 0.809980
vt 0.442437 0.876808
vt 0.464469 0.876808
vt 0.464469 0.911691
vt 0.442437 0.911691
vt 0.533494 0.855748
vt 0.511546 0.855748
vt 0.511546 0.820865
vt 0.533494 0.820865
vt 0.499082 0.866633
vt 0.499082 0.809980
vt 0.674877 0.295452
vt 0.719566 0.295452
vt 0.719566 0.323875
vt 0.680351 0.323875
vt 0.687251 0.246371
vt 0.712665 0.246371
vt 0.758780 0.323875
vt 0.764255 0.295452
vt 0.719566 0.349536
vt 0.682265 0.349536
vt 0.756867 0.349536
vt 0.725186 0.246639
vt 0.753153 0.246639
vt 0.719566 0.360604
vt 0.684364 0.360604
vt 0.754767 0.360604
vt 0.719566 0.389277
vt 0.688148 0.389277
vt 0.750984 0.389277
vt 0.766295 0.338884
vt 0.805510 0.338884
vt 0.805510 0.367307
vt 0.760821 0.367307
vt 0.768209 0.313223
vt 0.805510 0.313223
vt 0.844724 0.338884
vt 0.850199 0.367307
vt 0.798609 0.416388
vt 0.773195 0.416388
vt 0.770308 0.302155
vt 0.805510 0.302155
vt 0.842811 0.313223
vt 0.839097 0.416119
vt 0.811130 0.416119
vt 0.774092 0.273482
vt 0.805510 0.273482
vt 0.840711 0.302155
vt 0.836928 0.273482
vt 0.365106 0.870241
vt 0.363193 0.895902
vt 0.353133 0.915474
vt 0.331101 0.915558
vt 0.802679 0.892557
vt 0.804593 0.918218
vt 0.770587 0.872901
vt 0.792619 0.872985
vt 0.133820 0.916438
vt 0.135734 0.890777
vt 0.148198 0.869506
vt 0.170145 0.870889
vt 0.073229 0.884182
vt 0.071316 0.858521
vt 0.107641 0.904071
vt 0.085693 0.905453
vt 0.757306 0.832875
vt 0.757306 0.886763
vt 0.711989 0.877178
vt 0.711989 0.842295
vt 0.980211 0.848020
vt 0.980211 0.901908
vt 0.934662 0.892488
vt 0.934662 0.857605
vn 0.000000 0.100865 0.994900
vn 0.000000 0.100865 0.994900
vn 0.000000 0.073133 0.997322
vn 0.000000 0.075563 0.997141
vn 0.000000 1.000000 0.000000
vn 0.000000 1.000000 0.000000
vn 0.000000 1.000000 0.000000
vn 0.000000 1.000000 0.000000
vn 0.000000 0.075563 -0.997141
vn 0.000000 0.073133 -0.997322
vn 0.000000 0.100865 -0.994900
vn 0.000000 0.100865 -0.994900
vn 0.000000 -1.000000 0.000000
vn 0.000000 -1.000000 0.000000
vn 0.000000 -1.000000 0.000002
vn 0.000000 -1.000000 0.000002
vn 0.990869 0.134826 0.000000
vn 0.990869 0.134826 0.000000
vn 0.991945 0.126668 0.000000
vn 0.994868 0.101185 0.000000
vn -0.991945 0.126668 0.000000
vn -0.990869 0.134826 0.000000
vn -0.990869 0.134826 0.000000
vn -0.994868 0.101185 0.000000
vn 0.000000 0.075563 0.997141
vn 0.000000 0.100865 0.994900
vn 0.000000 1.000000 0.000000
vn 0.000000 1.000000 0.000000
vn 0.000000 0.075563 -0.997141
vn 0.000000 0.100865 -0.994900
vn 0.000000 -1.000000 0.000000
vn 0.000000 -1.000000 0.000000
vn 0.000000 -1.000000 0.000000
vn 0.000000 -1.000000 0.000000
vn 0.000000 -0.202427 -0.979297
vn 0.000000 -0.202427 -0.979297
vn 0.000000 -0.202427 -0.979297
vn 0.000000 -0.202427 -0.979297
vn 0.994055 -0.108703 0.006172
vn 0.993982 -0.108968 0.011194
vn 0.992862 -0.110656 0.044497
vn 0.992862 -0.110656 0.044497
vn 0.000000 -0.202421 0.979299
vn 0.000000 -0.202421 0.979299
vn 0.000000 -0.202421 0.979299
vn 0.000000 -0.202421 0.979299
vn -0.984504 -0.175365 0.000000
vn -0.984504 -0.175365 0.000000
vn -0.984504 -0.175365 0.000000
vn -0.984504 -0.175365 0.000000
vn -0.995346 -0.089761 0.035074
vn -0.995980 -0.089170 0.008524
vn -0.996011 -0.089089 0.005092
vn -0.995346 -0.089761 0.035074
vn 0.000000 -0.177398 -0.984139
vn 0.000000 -0.177398 -0.984139
vn 0.000000 -0.177398 -0.984139
vn 0.000000 -0.177398 -0.984139
vn 0.987337 -0.158640 0.000000
vn 0.987337 -0.158640 0.000000
vn 0.987337 -0.158640 0.000000
vn 0.987337 -0.158640 0.000000
vn 0.000000 -0.177392 0.984140
vn 0.000000 -0.177392 0.984140
vn 0.000000 -0.177392 0.984140
vn 0.000000 -0.177392 0.984140
vn 0.000000 0.000000 1.000000
vn 0.000000 0.000000 1.000000
vn 0.000000 0.000000 1.000000
vn 0.000000 0.000000 1.000000
vn 0.000000 0.000000 -1.000000
vn 0.000000 0.000000 -1.000000
vn 0.000000 0.000000 -1.000000
vn 0.000000 0.000000 -1.000000
vn -0.987551 0.006419 0.157165
vn -0.987551 0.006419 0.157165
vn -0.658739 0.030703 0.751745
vn -0.658739 0.030703 0.751745
vn 0.000000 0.000000 1.000000
vn 0.000000 0.000000 1.000000
vn 0.000000 0.000000 1.000000
vn 0.000000 0.000000 1.000000
vn 0.658739 0.030703 0.751745
vn 0.987551 0.006419 0.157165
vn 0.987551 0.006419 0.157165
vn 0.658739 0.030703 0.751745
vn 0.000000 0.000000 -1.000000
vn 0.000000 0.000000 -1.000000
vn 0.000000 0.000000 -1.000000
vn 0.000000 0.000000 -1.000000
vn 0.000000 -0.663231 0.748414
vn 0.000000 -0.663231 0.748414
vn 0.000000 -0.663231 0.748414
vn 0.000000 -0.663231 0.748414
vn 0.000000 0.622383 0.782713
vn 0.000000 0.622383 0.782713
vn 0.000000 0.622383 0.782713
vn 0.000000 0.622383 0.782713
vn 0.000000 -0.663207 -0.748436
vn 0.000000 -0.663207 -0.748436
vn 0.000000 -0.663207 -0.748436
vn 0.000000 -0.663207 -0.748436
vn 0.000000 0.622355 -0.782735
vn 0.000000 0.622355 -0.782735
vn 0.000000 0.622355 -0.782735
vn 0.000000 0.622355 -0.782735
vn -0.883922 -0.442720 0.150603
vn -0.907117 -0.420150 0.024744
vn -0.769271 -0.465919 0.437196
vn -0.769271 -0.465919 0.437196
vn -0.625791 0.605943 0.491141
vn -0.764532 0.643454 0.038193
vn -0.751333 0.647682 0.126517
vn -0.625791 0.605943 0.491141
vn 0.000000 -0.663231 0.748414
vn 0.000000 -0.663231 0.748414
vn 0.000000 -0.663231 0.748414
vn 0.000000 -0.663231 0.748414
vn 0.000000 0.622383 0.782713
vn 0.000000 0.622383 0.782713
vn 0.000000 0.622383 0.782713
vn 0.000000 0.622383 0.782713
vn 0.769271 -0.465919 0.437196
vn 0.907117 -0.420150 0.024744
vn 0.883922 -0.442720 0.150603
vn 0.769271 -0.465919 0.437196
vn 0.751333 0.647682 0.126517
vn 0.764532 0.643454 0.038193
vn 0.625791 0.605943 0.491140
vn 0.625791 0.605943 0.491140
vn 0.000000 -0.663207 -0.748436
vn 0.000000 -0.663207 -0.748436
vn 0.000000 -0.663207 -0.748436
vn 0.000000 -0.663207 -0.748436
vn 0.000000 0.622355 -0.782735
vn 0.000000 0.622355 -0.782735
vn 0.000000 0.622355 -0.782735
vn 0.000000 0.622355 -0.782735
vn -0.998615 0.052617 0.000000
vn -0.998615 0.052617 0.000000
vn 0.000000 0.039228 -0.999230
vn 0.000000 0.039228 -0.999230
vn 0.000000 0.039228 -0.999230
vn 0.998615 0.052617 0.000000
vn 0.998615 0.052617 0.000000
vn 0.000000 0.039228 0.999230
vn 0.000000 0.039228 0.999230
vn 0.000000 0.039228 0.999230
vn -0.994868 0.101185 0.000000
vn -0.992231 0.124411 0.000000
vn -0.998615 0.052617 0.000000
vn -0.998615 0.052617 0.000000
vn -0.990869 0.134826 0.000000
vn -0.990869 0.134826 0.000000
vn -0.984504 -0.175365 -0.000000
vn -0.984504 -0.175365 -0.000000
vn -0.984504 -0.175365 -0.000000
vn -0.984504 -0.175365 -0.000000
vn 0.000000 -1.000000 -0.000002
vn 0.000000 -1.000000 -0.000002
vn 0.000000 -1.000000 -0.000000
vn 0.000000 -1.000000 -0.000000
vn 0.993471 -0.108791 -0.034361
vn 0.994045 -0.108508 -0.010017
vn 0.994083 -0.108457 -0.006092
vn 0.993471 -0.108791 -0.034361
vn -0.996029 -0.088886 -0.004994
vn -0.996016 -0.088842 -0.007669
vn -0.995707 -0.088503 -0.027105
vn -0.995707 -0.088503 -0.027105
vn 0.000000 -1.000000 0.000000
vn 0.000000 -1.000000 0.000000
vn 0.000000 -1.000000 0.000000
vn 0.000000 -1.000000 0.000000
vn 0.987336 -0.158640 0.000000
vn 0.987337 -0.158640 0.000000
vn 0.987337 -0.158640 0.000000
vn 0.987337 -0.158640 0.000000
vn 0.992231 0.124411 0.000000
vn 0.990869 0.134826 0.000000
vn 0.990869 0.134826 0.000000
vn 0.994868 0.101185 0.000000
vn 0.998615 0.052617 0.000000
vn 0.998615 0.052617 0.000000
vn 0.900109 -0.414681 -0.133580
vn 0.909222 -0.415445 -0.026827
vn 0.847661 -0.397678 -0.351175
vn 0.847661 -0.397678 -0.351175
vn 0.988712 0.008381 -0.149594
vn 0.988712 0.008381 -0.149594
vn 0.768265 0.035808 -0.639130
vn 0.768265 0.035808 -0.639130
vn 0.713211 0.569944 -0.408036
vn 0.768887 0.638097 -0.040557
vn 0.766354 0.631356 -0.118704
vn 0.713211 0.569944 -0.408036
vn 0.000000 1.000000 0.000000
vn 0.000000 1.000000 0.000000
vn 0.000000 1.000000 0.000000
vn 0.000000 1.000000 0.000000
vn 0.000000 1.000000 0.000000
vn 0.000000 1.000000 0.000000
vn -0.766354 0.631356 -0.118704
vn -0.768887 0.638097 -0.040557
vn -0.713211 0.569944 -0.408036
vn -0.713211 0.569944 -0.408036
vn -0.768265 0.035808 -0.639130
vn -0.988712 0.008381 -0.149594
vn -0.988712 0.008381 -0.149594
vn -0.768265 0.035808 -0.639130
vn -0.847661 -0.397678 -0.351175
vn -0.909223 -0.415445 -0.026827
vn -0.900109 -0.414681 -0.133580
vn -0.847661 -0.397678 -0.351175
vn 0.005382 -0.999986 -0.000000
vn 0.005382 -0.999986 -0.000000
vn 0.005382 -0.999986 -0.000000
vn 0.005382 -0.999986 -0.000000
vn 0.088817 -0.996048 0.000000
vn 0.088817 -0.996048 0.000000
vn 0.088817 -0.996048 0.000000
vn 0.088817 -0.996048 0.000000
vn -0.182533 -0.075223 -0.980318
vn -0.182533 -0.075223 -0.980318
vn -0.182533 -0.075223 -0.980318
vn -0.182533 -0.075223 -0.980318
vn 0.939948 -0.341318 0.000000
vn 0.939948 -0.341318 0.000000
vn 0.939948 -0.341318 0.000000
vn 0.939948 -0.341318 0.000000
vn -0.184468 -0.072943 0.980128
vn -0.184468 -0.072943 0.980128
vn -0.184468 -0.072943 0.980128
vn -0.184468 -0.072943 0.980128
vn -0.883519 0.468396 0.000000
vn -0.883519 0.468396 0.000000
vn -0.883519 0.468396 0.000000
vn -0.883519 0.468396 0.000000
vn 0.178084 -0.065192 0.981853
vn 0.178084 -0.065192 0.981853
vn 0.178084 -0.065192 0.981853
vn 0.178084 -0.065192 0.981853
vn -0.923962 -0.382484 0.000000
vn -0.923962 -0.382484 0.000000
vn -0.923962 -0.382484 0.000000
vn -0.923962 -0.382484 0.000000
vn 0.176287 -0.067431 -0.982026
vn 0.176287 -0.067431 -0.982026
vn 0.176287 -0.067431 -0.982026
vn 0.176287 -0.067431 -0.982027
vn 0.871233 0.490870 0.000000
vn 0.871233 0.490870 0.000000
vn 0.871233 0.490870 0.000000
vn 0.871233 0.490870 0.000000
s 1
g pCube68
usemtl initialShadingGroup
f 1/121/1 9/122/2 44/123/3 39/124/4
s 2
f 21/77/5 22/78/6 77/79/7 78/80/8
s 3
f 40/140/9 41/141/10 12/142/11 7/143/12
s 4
f 66/95/13 67/96/14 15/97/15 16/98/16
s 5
f 2/1/17 71/2/18 72/3/19 43/4/20
s 6
f 64/29/21 65/30/22 1/31/23 39/32/24
s 1
f 43/127/25 44/123/3 9/122/2 2/128/26
s 2
f 76/83/27 77/79/7 22/78/6 25/84/28
s 3
f 12/142/11 41/141/10 42/146/29 8/147/30
s 7
f 18/103/31 69/104/32 70/105/33 20/106/34
s off
f 7/143/35 12/142/36 14/148/37 13/149/38
s 8
f 67/57/39 68/58/40 9/59/41 15/60/42
s off
f 9/122/43 1/121/44 16/125/45 15/126/46
s 9
f 1/31/47 65/30/48 66/35/49 16/36/50
s 10
f 9/65/51 68/66/52 69/67/53 18/68/54
s off
f 12/142/55 8/147/56 19/153/57 17/154/58
s 11
f 70/5/59 71/2/60 2/1/61 20/6/62
s off
f 2/128/63 9/122/64 18/132/65 20/133/66
f 27/135/67 28/134/68 29/137/69 30/138/70
f 32/151/71 31/150/72 33/155/73 34/156/74
s 12
f 79/48/75 80/42/76 27/43/77 30/49/78
s off
f 28/134/79 35/136/80 36/139/81 29/137/82
s 13
f 35/15/83 74/14/84 75/20/85 36/21/86
s off
f 37/157/87 32/151/88 34/156/89 38/158/90
f 3/130/91 10/129/92 28/134/93 27/135/94
f 22/78/95 21/77/96 30/81/97 29/82/98
f 11/145/99 5/144/100 31/150/101 32/151/102
f 24/90/103 23/89/104 34/92/105 33/93/106
s 14
f 80/42/107 63/37/108 3/38/109 27/43/110
s 15
f 21/52/111 78/53/112 79/48/113 30/49/114
s off
f 10/129/115 4/131/116 35/136/117 28/134/118
f 25/84/119 22/78/120 29/82/121 36/87/122
s 16
f 4/10/123 73/9/124 74/14/125 35/15/126
s 17
f 75/20/127 76/24/128 25/25/129 36/21/130
s off
f 6/152/131 11/145/132 32/151/133 37/157/134
f 23/89/135 26/91/136 38/94/137 34/92/138
s 6
f 63/37/139 64/29/21 39/32/24 3/38/140
s 3
f 5/144/141 11/145/142 41/141/10 40/140/9
f 42/146/29 41/141/10 11/145/142 6/152/143
s 5
f 43/4/20 72/3/19 73/9/144 4/10/145
s 1
f 10/129/146 44/123/3 43/127/25 4/131/147
f 39/124/4 44/123/3 10/129/146 3/130/148
s 6
f 40/40/149 46/33/150 45/45/151 5/46/152
f 7/39/153 47/34/154 46/33/150 40/40/149
s 9
f 48/41/155 47/34/156 7/39/157 13/44/158
s 4
f 13/101/159 14/102/160 49/100/161 48/99/162
s 8
f 12/63/163 50/62/164 49/61/165 14/64/166
s 10
f 51/70/167 50/69/168 12/71/169 17/72/170
s 7
f 52/108/171 51/107/172 17/109/173 19/110/174
s 11
f 8/12/175 53/7/176 52/11/177 19/16/178
s 5
f 54/8/179 53/7/180 8/12/181 42/13/182
f 55/17/183 54/8/179 42/13/182 6/18/184
s 16
f 56/19/185 55/17/186 6/18/187 37/22/188
s 13
f 57/23/189 56/19/190 37/22/191 38/26/192
s 17
f 26/28/193 58/27/194 57/23/195 38/26/196
s 2
f 23/89/197 59/85/198 58/88/199 26/91/200
f 60/86/201 59/85/198 23/89/197 24/90/202
s 15
f 61/51/203 60/55/204 24/56/205 33/54/206
s 12
f 31/50/207 62/47/208 61/51/209 33/54/210
s 14
f 5/46/211 45/45/212 62/47/213 31/50/214
s off
f 81/111/215 82/112/216 83/113/217 84/114/218
s 6
f 46/33/150 47/34/154 65/30/22 64/29/21
s 9
f 66/35/49 65/30/48 47/34/156 48/41/155
s 4
f 48/99/162 49/100/161 67/96/14 66/95/13
s 8
f 49/61/165 50/62/164 68/58/40 67/57/39
s 10
f 69/67/53 68/66/52 50/69/168 51/70/167
s 7
f 70/105/33 69/104/32 51/107/172 52/108/171
s 11
f 52/11/177 53/7/176 71/2/60 70/5/59
s 5
f 72/3/19 71/2/18 53/7/180 54/8/179
s off
f 86/115/219 85/116/220 87/117/221 88/118/222
s 16
f 74/14/125 73/9/124 55/17/186 56/19/185
s 13
f 75/20/85 74/14/84 56/19/190 57/23/189
s 17
f 57/23/195 58/27/194 76/24/128 75/20/127
s 2
f 58/88/199 59/85/198 77/79/7 76/83/27
f 78/80/8 77/79/7 59/85/198 60/86/201
s 15
f 79/48/113 78/53/112 60/55/204 61/51/203
s 12
f 61/51/209 62/47/208 80/42/76 79/48/75
s 14
f 62/47/213 45/45/212 63/37/108 80/42/107
s off
f 45/159/223 46/160/224 82/161/225 81/162/226
f 46/73/227 64/74/228 83/75/229 82/76/230
f 64/163/231 63/164/232 84/165/233 83/166/234
f 63/175/235 45/176/236 81/177/237 84/178/238
f 73/167/239 72/168/240 85/169/241 86/170/242
f 72/119/243 54/120/244 87/117/245 85/116/246
f 54/171/247 55/172/248 88/173/249 87/174/250
f 55/179/251 73/180/252 86/181/253 88/182/254
