# This file uses centimeters as units for non-parametric coordinates.

mtllib pig.mtl
g default
v -0.221492 0.176221 0.679135
v 0.284825 0.176221 0.661468
v -0.221492 0.743200 0.679135
v 0.284825 0.743200 0.661468
v -0.260933 0.589946 -0.451182
v 0.245384 0.589946 -0.468850
v -0.260933 0.176221 -0.451182
v 0.245384 0.176221 -0.468850
v -0.251111 0.743200 -0.169693
v -0.251111 0.176221 -0.169693
v 0.255207 0.176221 -0.187360
v 0.255207 0.743200 -0.187360
v 0.255207 0.914162 -0.187360
v -0.251111 0.914162 -0.169693
v 0.245384 0.914162 -0.468850
v -0.260933 0.914162 -0.451182
v -0.266473 0.589946 -0.609952
v 0.239844 0.589946 -0.627619
v -0.266473 0.914162 -0.609952
v 0.239844 0.914162 -0.627619
v -0.056211 0.176221 0.673368
v -0.118233 0.743200 0.675532
v -0.147851 0.743200 -0.173296
v -0.147851 0.914162 -0.173296
v -0.157674 0.914162 -0.454786
v -0.163214 0.914162 -0.613555
v -0.163214 0.589946 -0.613555
v -0.157674 0.589946 -0.454786
v -0.095651 0.176221 -0.456950
v -0.085829 0.176221 -0.175460
v 0.171832 0.743200 -0.184451
v 0.201451 0.743200 0.664377
v 0.139429 0.176221 0.666541
v 0.109810 0.176221 -0.182287
v 0.099988 0.176221 -0.463776
v 0.162010 0.589946 -0.465940
v 0.156470 0.589946 -0.624710
v 0.156470 0.914162 -0.624710
v 0.162010 0.914162 -0.465940
v 0.171832 0.914162 -0.184451
v -0.232352 0.743200 0.367909
v -0.232352 0.176221 0.367909
v -0.067070 0.176221 0.362141
v 0.128569 0.176221 0.355315
v 0.273965 0.176221 0.350241
v 0.273965 0.743200 0.350241
v 0.190591 0.743200 0.353151
v -0.129093 0.743200 0.364306
v -0.254747 0.176221 -0.273892
v -0.254747 0.743200 -0.273892
v -0.254747 0.914162 -0.273892
v -0.151487 0.914162 -0.277495
v 0.168197 0.914162 -0.288650
v 0.251571 0.914162 -0.291560
v 0.251571 0.743200 -0.291560
v 0.251571 0.176221 -0.291560
v 0.106174 0.176221 -0.286486
v -0.089465 0.176221 -0.279660
v -0.232352 -0.003684 0.367909
v -0.072648 -0.003684 0.362336
v -0.061788 -0.003684 0.673562
v -0.221492 -0.003684 0.679135
v -0.260933 -0.003684 -0.451182
v -0.101229 -0.003684 -0.456755
v -0.095043 -0.003684 -0.279465
v -0.254747 -0.003684 -0.273892
v 0.251571 -0.003684 -0.291560
v 0.110581 -0.003684 -0.286640
v 0.104394 -0.003684 -0.463930
v 0.245384 -0.003684 -0.468850
v 0.143835 -0.003684 0.666387
v 0.132975 -0.003684 0.355161
v 0.273965 -0.003684 0.350241
v 0.284825 -0.003684 0.661468
v -0.096126 1.039758 -0.137705
v -0.219801 1.039758 -0.133390
v -0.099952 1.039758 -0.247347
v -0.223626 1.039758 -0.243032
v 0.095824 1.016692 -0.242618
v 0.205006 1.016692 -0.246428
v 0.099650 1.016692 -0.132976
v 0.208832 1.016692 -0.136786
v -0.221492 0.551187 0.679135
v -0.232352 0.551187 0.367909
v -0.251111 0.551187 -0.169693
v -0.254747 0.551187 -0.273892
v -0.260933 0.551187 -0.451182
v -0.157674 0.551187 -0.454786
v 0.162010 0.551187 -0.465940
v 0.245384 0.551187 -0.468850
v 0.251571 0.551187 -0.291560
v 0.255207 0.551187 -0.187360
v 0.273965 0.551187 0.350241
v 0.284825 0.551187 0.661468
v 0.201451 0.551187 0.664377
v -0.118233 0.551187 0.675532
v -0.073930 0.566873 0.732660
v -0.073828 0.712773 0.735592
v 0.161239 0.566873 0.724454
v 0.161341 0.712773 0.727386
v 0.255207 0.833352 -0.187360
v 0.171832 0.833352 -0.184451
v -0.147851 0.833352 -0.173296
v -0.251111 0.833352 -0.169693
v -0.254747 0.833352 -0.273892
v -0.260933 0.760912 -0.451182
v -0.266473 0.760912 -0.609952
v -0.163214 0.760912 -0.613555
v 0.156470 0.760912 -0.624710
v 0.239844 0.760912 -0.627619
v 0.245384 0.760912 -0.468850
v 0.251571 0.833352 -0.291560
v -0.166550 0.760912 -0.709164
v 0.153134 0.760912 -0.720318
v 0.153134 0.589946 -0.720318
v -0.166550 0.589946 -0.709164
vt 0.460017 0.335028
vt 0.486332 0.335028
vt 0.486332 0.381328
vt 0.460017 0.381328
vt 0.460017 0.312814
vt 0.486332 0.312814
vt 0.521256 0.381328
vt 0.521256 0.335028
vt 0.486332 0.405038
vt 0.460017 0.405038
vt 0.521256 0.405038
vt 0.530066 0.381328
vt 0.530066 0.335028
vt 0.530066 0.405038
vt 0.555588 0.381328
vt 0.555588 0.335028
vt 0.555588 0.386114
vt 0.530066 0.426148
vt 0.521256 0.426148
vt 0.530066 0.312814
vt 0.555588 0.312814
vt 0.555588 0.426148
vt 0.526392 0.438808
vt 0.517122 0.438808
vt 0.569012 0.386114
vt 0.569012 0.426148
vt 0.961620 0.371562
vt 0.935305 0.371562
vt 0.935305 0.325262
vt 0.961620 0.325262
vt 0.935305 0.395272
vt 0.961620 0.395272
vt 0.900381 0.371562
vt 0.900381 0.325262
vt 0.935305 0.303047
vt 0.961620 0.303047
vt 0.900381 0.395272
vt 0.891571 0.371562
vt 0.891571 0.325262
vt 0.891571 0.395272
vt 0.866049 0.325262
vt 0.866049 0.371562
vt 0.866049 0.376348
vt 0.891571 0.416382
vt 0.900381 0.416382
vt 0.866049 0.303047
vt 0.891571 0.303047
vt 0.866049 0.416382
vt 0.903539 0.431890
vt 0.894269 0.431890
vt 0.852625 0.416382
vt 0.852625 0.376348
vt 0.409960 0.922831
vt 0.409960 0.949146
vt 0.387746 0.949146
vt 0.387746 0.922831
vt 0.519344 0.930113
vt 0.519344 0.955634
vt 0.497129 0.955634
vt 0.497129 0.930113
vt 0.544736 0.930113
vt 0.544736 0.955634
vt 0.522522 0.955634
vt 0.522522 0.930113
vt 0.730297 0.926081
vt 0.730297 0.952396
vt 0.708082 0.952396
vt 0.708082 0.926081
vt 0.092053 0.949646
vt 0.100863 0.949646
vt 0.098166 0.965154
vt 0.088895 0.965154
vt 0.022484 0.964543
vt 0.022484 0.955733
vt 0.035144 0.951599
vt 0.035144 0.960869
vt 0.394902 0.448318
vt 0.394902 0.413914
vt 0.421217 0.413914
vt 0.421217 0.448318
vt 0.421217 0.369618
vt 0.394902 0.369618
vt 0.456141 0.413914
vt 0.456141 0.448318
vt 0.456141 0.369618
vt 0.389699 0.408059
vt 0.389699 0.375473
vt 0.421217 0.339246
vt 0.394902 0.339246
vt 0.456141 0.339246
vt 0.467830 0.910124
vt 0.467830 0.875721
vt 0.494145 0.875721
vt 0.494145 0.910124
vt 0.172886 0.913136
vt 0.172886 0.878732
vt 0.198408 0.878732
vt 0.198408 0.913136
vt 0.162163 0.418362
vt 0.162163 0.383958
vt 0.187685 0.383958
vt 0.187685 0.418362
vt 0.162163 0.339663
vt 0.187685 0.339663
vt 0.201109 0.383958
vt 0.201109 0.418362
vt 0.153353 0.383958
vt 0.153353 0.339663
vt 0.162163 0.309290
vt 0.187685 0.309290
vt 0.201109 0.339663
vt 0.201109 0.309290
vt 0.981541 0.078190
vt 0.994965 0.078190
vt 0.994965 0.112594
vt 0.981541 0.112594
vt 0.981541 0.033894
vt 0.994965 0.033894
vt 0.994965 0.003522
vt 0.981541 0.003522
vt 0.833221 0.917797
vt 0.833221 0.948169
vt 0.807699 0.948169
vt 0.807699 0.917797
vt 0.468752 0.948826
vt 0.442437 0.948826
vt 0.442437 0.918454
vt 0.468752 0.918454
vt 0.772401 0.469884
vt 0.746086 0.469884
vt 0.746086 0.425588
vt 0.772401 0.425588
vt 0.711162 0.469884
vt 0.711162 0.425588
vt 0.711162 0.504287
vt 0.746086 0.504287
vt 0.702352 0.469884
vt 0.702352 0.425588
vt 0.746086 0.395216
vt 0.711162 0.395216
vt 0.702352 0.504287
vt 0.676830 0.469884
vt 0.676830 0.425588
vt 0.702352 0.395216
vt 0.862391 0.029483
vt 0.862391 0.002841
vt 0.871661 0.002841
vt 0.871661 0.029483
vt 0.301306 0.941832
vt 0.301306 0.965352
vt 0.292036 0.965352
vt 0.292036 0.941832
vt 0.713942 0.101596
vt 0.713942 0.057300
vt 0.718897 0.063155
vt 0.718897 0.095740
vt 0.316203 0.445325
vt 0.316203 0.410921
vt 0.362503 0.410921
vt 0.362503 0.445325
vt 0.293989 0.445325
vt 0.293989 0.410921
vt 0.362503 0.366625
vt 0.316203 0.366625
vt 0.386213 0.410921
vt 0.386213 0.445325
vt 0.362503 0.336253
vt 0.316203 0.336253
vt 0.364440 0.405066
vt 0.382456 0.405066
vt 0.386213 0.366625
vt 0.386213 0.336253
vt 0.293989 0.366625
vt 0.293989 0.336253
vt 0.364440 0.372481
vt 0.382456 0.372481
vt 0.005784 0.473054
vt 0.005784 0.438650
vt 0.052085 0.438650
vt 0.052085 0.473054
vt 0.000998 0.473054
vt 0.000998 0.438650
vt 0.005784 0.394355
vt 0.052085 0.394355
vt 0.074299 0.438650
vt 0.074299 0.473054
vt 0.000998 0.394355
vt 0.005784 0.363982
vt 0.052085 0.363982
vt 0.000998 0.363982
vt 0.074299 0.363982
vt 0.074299 0.394355
vt 0.637765 0.434883
vt 0.637765 0.400480
vt 0.658875 0.400480
vt 0.658875 0.434883
vt 0.637765 0.356184
vt 0.658875 0.356184
vt 0.674383 0.395938
vt 0.674383 0.422580
vt 0.637765 0.325812
vt 0.658875 0.325812
vt 0.671535 0.338115
vt 0.671535 0.361635
vt 0.077176 0.423919
vt 0.117209 0.423919
vt 0.117209 0.458322
vt 0.077176 0.458322
vt 0.077176 0.379623
vt 0.117209 0.379623
vt 0.117209 0.349251
vt 0.077176 0.349251
vt 0.000998 0.915089
vt 0.000998 0.880685
vt 0.023212 0.880685
vt 0.023212 0.915089
vt 0.720531 0.882638
vt 0.720531 0.917042
vt 0.698316 0.917042
vt 0.698316 0.882638
vt 0.130642 0.916501
vt 0.130642 0.946873
vt 0.108428 0.946873
vt 0.108428 0.916501
vt 0.471737 0.947344
vt 0.471737 0.916971
vt 0.493951 0.916971
vt 0.493951 0.947344
vt 0.999002 0.852916
vt 0.999002 0.887320
vt 0.983494 0.875017
vt 0.983494 0.848375
vt 0.556668 0.875720
vt 0.556668 0.906092
vt 0.544008 0.911544
vt 0.544008 0.888024
vt 0.648897 0.325812
vt 0.521256 0.416170
vt 0.648897 0.356184
vt 0.648897 0.400480
vt 0.900381 0.406403
vt 0.648897 0.434883
vt 0.891571 0.406403
vt 0.866049 0.397459
vt 0.096099 0.458322
vt 0.852625 0.397459
vt 0.096099 0.423919
vt 0.096099 0.379623
vt 0.569012 0.407225
vt 0.096099 0.349251
vt 0.555588 0.407225
vt 0.530066 0.416170
vt 0.096099 0.423919
vt 0.096099 0.379623
vt 0.117209 0.379623
vt 0.117209 0.423919
vn 0.034872 0.000000 0.999392
vn 0.034872 0.000000 0.999392
vn 0.034872 0.000000 0.999392
vn 0.034873 0.000000 0.999392
vn -0.000000 1.000000 -0.000000
vn -0.000000 1.000000 -0.000000
vn -0.000000 1.000000 -0.000000
vn -0.000000 1.000000 -0.000000
vn -0.034872 0.000000 -0.999392
vn -0.034872 0.000000 -0.999392
vn -0.034872 0.000000 -0.999392
vn -0.034872 0.000000 -0.999392
vn 0.000000 -1.000000 0.000000
vn 0.000000 -1.000000 0.000000
vn 0.000000 -1.000000 0.000000
vn 0.000000 -1.000000 0.000000
vn 0.999392 0.000000 -0.034872
vn 0.999392 0.000000 -0.034872
vn 0.999392 0.000000 -0.034872
vn 0.999392 0.000000 -0.034872
vn -0.999392 0.000000 0.034872
vn -0.999392 0.000000 0.034872
vn -0.999392 0.000000 0.034872
vn -0.999392 0.000000 0.034872
vn -0.999392 0.000000 0.034872
vn -0.999392 0.000000 0.034872
vn -0.999392 0.000000 0.034872
vn -0.999392 0.000000 0.034872
vn 0.000000 -1.000000 0.000001
vn 0.000000 -1.000000 0.000001
vn 0.000000 -1.000000 0.000001
vn 0.000000 -1.000000 0.000001
vn 0.999392 0.000000 -0.034875
vn 0.999392 0.000000 -0.034874
vn 0.999392 0.000000 -0.034874
vn 0.999392 0.000000 -0.034875
vn 0.000000 1.000000 0.000001
vn 0.000000 1.000000 0.000000
vn 0.000000 1.000000 0.000001
vn 0.000000 1.000000 0.000001
vn 0.034872 0.000000 0.999392
vn 0.034873 0.000000 0.999392
vn 0.034872 -0.000000 0.999392
vn 0.034872 -0.000000 0.999392
vn 0.999392 0.000000 -0.034875
vn 0.999392 0.000000 -0.034874
vn 0.999392 0.000000 -0.034875
vn 0.999392 0.000000 -0.034875
vn -0.034872 0.000000 -0.999392
vn -0.034872 0.000000 -0.999392
vn -0.034872 0.000000 -0.999392
vn -0.034872 0.000000 -0.999392
vn -0.999392 0.000000 0.034872
vn -0.999392 0.000000 0.034872
vn -0.999392 0.000000 0.034872
vn -0.999392 0.000000 0.034872
vn 0.000000 -1.000000 0.000000
vn 0.000000 -1.000000 0.000000
vn 0.000000 -1.000000 0.000000
vn 0.000000 -1.000000 0.000000
vn -0.999392 0.000000 0.034872
vn -0.999392 0.000000 0.034872
vn -0.999392 0.000000 0.034872
vn -0.999392 0.000000 0.034872
vn 0.000000 1.000000 0.000000
vn 0.000000 1.000000 0.000000
vn 0.000000 1.000000 0.000000
vn 0.000000 1.000000 0.000000
vn 0.999392 0.000000 -0.034872
vn 0.999392 0.000000 -0.034872
vn 0.999392 0.000000 -0.034872
vn 0.999392 0.000000 -0.034872
vn 0.034872 0.000000 0.999392
vn 0.034872 0.000000 0.999392
vn 0.034872 0.000000 0.999392
vn 0.034872 0.000000 0.999392
vn -0.000000 1.000000 -0.000000
vn -0.000000 1.000000 -0.000000
vn -0.000000 1.000000 -0.000000
vn -0.000000 1.000000 -0.000000
vn 0.034872 -0.000000 0.999392
vn 0.034872 -0.000000 0.999392
vn 0.034872 0.000000 0.999392
vn 0.034872 0.000000 0.999392
vn 0.000000 1.000000 0.000001
vn 0.000000 1.000000 0.000000
vn 0.000000 1.000000 0.000001
vn 0.000000 1.000000 0.000001
vn 0.000000 1.000000 0.000000
vn 0.000000 1.000000 0.000000
vn 0.000000 1.000000 0.000000
vn 0.000000 1.000000 0.000000
vn -0.034874 0.000000 -0.999392
vn -0.034874 0.000000 -0.999392
vn -0.034873 0.000000 -0.999392
vn -0.034874 0.000000 -0.999392
vn 0.000000 -1.000000 0.000000
vn 0.000000 -1.000000 0.000000
vn 0.000000 -1.000000 0.000000
vn 0.000000 -1.000000 0.000000
vn -0.034873 0.000000 -0.999392
vn -0.034873 0.000000 -0.999392
vn -0.034873 0.000000 -0.999392
vn -0.034873 0.000000 -0.999392
vn 0.000000 -1.000000 0.000000
vn 0.000000 -1.000000 0.000000
vn 0.000000 -1.000000 0.000000
vn 0.000000 -1.000000 0.000000
vn 0.000000 -1.000000 0.000000
vn 0.000000 -1.000000 0.000000
vn 0.000000 -1.000000 0.000000
vn 0.000000 -1.000000 0.000000
vn 0.000000 -1.000000 0.000000
vn 0.000000 -1.000000 0.000000
vn 0.000000 -1.000000 0.000000
vn 0.000000 -1.000000 0.000000
vn 0.000000 -1.000000 0.000000
vn 0.000000 -1.000000 0.000001
vn -0.000000 -1.000000 -0.000001
vn -0.000000 -1.000000 -0.000001
vn -0.034872 0.000000 -0.999392
vn -0.034872 0.000000 -0.999392
vn -0.034872 0.000000 -0.999392
vn -0.034872 0.000000 -0.999392
vn -0.999392 0.000000 0.034872
vn -0.999392 0.000000 0.034872
vn 0.000000 -1.000000 0.000000
vn 0.000000 -1.000000 0.000000
vn 0.000000 -1.000000 0.000000
vn 0.000000 -1.000000 0.000000
vn 0.000000 -1.000000 0.000000
vn 0.000000 -1.000000 0.000000
vn 0.999392 0.000000 -0.034872
vn 0.999392 0.000000 -0.034872
vn 0.000000 1.000000 0.000000
vn 0.000000 1.000000 0.000000
vn 0.000000 1.000000 0.000000
vn 0.000000 1.000000 0.000000
vn -0.999392 0.000000 0.034872
vn -0.999392 0.000000 0.034872
vn -0.000000 1.000000 -0.000000
vn -0.000000 1.000000 -0.000000
vn -0.000000 1.000000 -0.000000
vn -0.000000 1.000000 -0.000000
vn -0.000000 1.000000 -0.000002
vn -0.000000 1.000000 -0.000002
vn -0.000001 1.000000 0.000000
vn -0.000001 1.000000 0.000000
vn -0.000001 1.000000 0.000000
vn -0.000001 1.000000 0.000000
vn 0.999392 0.000000 -0.034872
vn 0.999392 0.000000 -0.034872
vn 0.000000 -1.000000 0.000002
vn 0.000000 -1.000000 0.000002
vn -0.034872 0.000000 -0.999392
vn -0.034872 0.000000 -0.999392
vn -0.034872 0.000000 -0.999392
vn -0.034872 0.000000 -0.999392
vn 0.998911 -0.031007 -0.034856
vn 0.998911 -0.031007 -0.034856
vn 0.998911 -0.031007 -0.034856
vn 0.998911 -0.031007 -0.034856
vn 0.034872 0.000000 0.999392
vn 0.034872 0.000000 0.999392
vn 0.034872 0.000000 0.999392
vn 0.034872 0.000000 0.999392
vn -0.999392 0.000000 0.034872
vn -0.999392 0.000000 0.034872
vn -0.999392 0.000000 0.034872
vn -0.999392 0.000000 0.034872
vn -0.034872 0.000000 -0.999392
vn -0.034872 0.000000 -0.999392
vn -0.034872 0.000000 -0.999392
vn -0.034872 0.000000 -0.999392
vn 0.998911 -0.031007 -0.034856
vn 0.998911 -0.031007 -0.034856
vn 0.998911 -0.031007 -0.034856
vn 0.998911 -0.031007 -0.034856
vn 0.034872 -0.000000 0.999392
vn 0.034872 -0.000000 0.999392
vn 0.034872 -0.000000 0.999392
vn 0.034872 -0.000000 0.999392
vn -0.999392 0.000000 0.034872
vn -0.999392 0.000000 0.034872
vn -0.999392 0.000000 0.034872
vn -0.999392 0.000000 0.034872
vn 0.034872 0.000000 0.999392
vn 0.034872 0.000000 0.999392
vn 0.034872 0.000000 0.999392
vn 0.034872 0.000000 0.999392
vn -0.999092 -0.024500 0.034862
vn -0.999092 -0.024500 0.034862
vn -0.999092 -0.024500 0.034862
vn -0.999092 -0.024500 0.034862
vn -0.034873 -0.000000 -0.999392
vn -0.034873 -0.000000 -0.999392
vn -0.034873 -0.000000 -0.999392
vn -0.034873 -0.000000 -0.999392
vn 0.999392 0.000000 -0.034875
vn 0.999392 0.000000 -0.034875
vn 0.999392 0.000000 -0.034875
vn 0.999392 0.000000 -0.034875
vn -0.999092 -0.024500 0.034862
vn -0.999092 -0.024500 0.034862
vn -0.999092 -0.024500 0.034862
vn -0.999092 -0.024500 0.034862
vn -0.034873 0.000000 -0.999392
vn -0.034873 0.000000 -0.999392
vn -0.034873 0.000000 -0.999392
vn -0.034873 0.000000 -0.999392
vn 0.999392 0.000000 -0.034872
vn 0.999392 0.000000 -0.034872
vn 0.999392 0.000000 -0.034872
vn 0.999392 0.000000 -0.034872
vn 0.034872 0.000000 0.999392
vn 0.034872 0.000000 0.999392
vn 0.034872 0.000000 0.999392
vn 0.034872 0.000000 0.999392
vn 0.033425 -0.285204 0.957884
vn 0.033425 -0.285204 0.957884
vn 0.033425 -0.285204 0.957884
vn 0.033425 -0.285204 0.957884
vn 0.927366 -0.372752 -0.032361
vn 0.927366 -0.372752 -0.032361
vn 0.927366 -0.372752 -0.032361
vn 0.927366 -0.372752 -0.032361
vn -0.033798 0.246366 -0.968587
vn -0.033798 0.246366 -0.968587
vn -0.033798 0.246366 -0.968587
vn -0.033798 0.246366 -0.968587
vn -0.972003 0.232510 0.033914
vn -0.972003 0.232510 0.033914
vn -0.972003 0.232510 0.033914
vn -0.972003 0.232510 0.033914
vn -0.032105 0.390417 -0.920078
vn -0.032105 0.390417 -0.920078
vn -0.032105 0.390417 -0.920078
vn -0.032105 0.390417 -0.920078
vn -0.810622 -0.584886 0.028286
vn -0.810622 -0.584886 0.028286
vn -0.810622 -0.584886 0.028286
vn -0.810622 -0.584886 0.028286
vn 0.031473 -0.430668 0.901962
vn 0.031473 -0.430668 0.901961
vn 0.031473 -0.430668 0.901962
vn 0.031473 -0.430668 0.901961
vn 0.904742 0.424787 -0.031570
vn 0.904742 0.424787 -0.031570
vn 0.904742 0.424787 -0.031570
vn 0.904742 0.424787 -0.031570
vn -0.999392 0.000000 0.034872
vn -0.999392 0.000000 0.034872
vn -0.999392 0.000000 0.034872
vn -0.999392 0.000000 0.034872
vn -0.999392 0.000000 0.034872
vn -0.034872 0.000000 -0.999392
vn -0.034872 0.000000 -0.999392
vn -0.034873 0.000000 -0.999392
vn -0.034873 0.000000 -0.999392
vn 0.999392 0.000000 -0.034873
vn 0.999392 0.000000 -0.034875
vn 0.999392 0.000000 -0.034872
vn 0.999392 0.000000 -0.034872
vn 0.999392 0.000000 -0.034872
vn 0.034872 -0.000000 0.999392
vn 0.034872 -0.000000 0.999392
vn 0.034865 -0.020105 0.999190
vn 0.034865 -0.020105 0.999190
vn 0.034865 -0.020105 0.999190
vn 0.034865 -0.020105 0.999190
vn 0.034873 -0.000000 0.999392
vn 0.034873 -0.000000 0.999392
vn -0.797620 -0.004994 0.603140
vn -0.797620 -0.004994 0.603140
vn -0.797620 -0.004994 0.603140
vn -0.797620 -0.004994 0.603140
vn 0.009012 -0.966032 0.258263
vn 0.009012 -0.966032 0.258263
vn 0.009012 -0.966032 0.258263
vn 0.009012 -0.966032 0.258263
vn 0.837725 -0.004990 0.546070
vn 0.837725 -0.004990 0.546070
vn 0.837725 -0.004990 0.546070
vn 0.837725 -0.004990 0.546070
vn 0.015449 0.896508 0.442759
vn 0.015449 0.896508 0.442759
vn 0.015449 0.896508 0.442759
vn 0.015449 0.896508 0.442759
vn 0.034872 -0.000000 0.999392
vn 0.034872 -0.000000 0.999392
vn 0.034872 -0.000000 0.999392
vn 0.034872 -0.000000 0.999392
vn -0.999392 0.000000 0.034872
vn -0.999392 0.000000 0.034872
vn -0.999392 0.000000 0.034872
vn -0.999392 0.000000 0.034872
vn -0.999392 0.000000 0.034872
vn -0.034872 0.000000 -0.999392
vn -0.034872 0.000000 -0.999392
vn -0.034873 0.000000 -0.999392
vn -0.034874 0.000000 -0.999392
vn 0.999392 0.000000 -0.034872
vn 0.999392 0.000000 -0.034872
vn 0.999392 0.000000 -0.034874
vn 0.999392 0.000000 -0.034875
vn 0.999392 0.000000 -0.034872
vn 0.000000 1.000000 0.000000
vn 0.000000 1.000000 0.000000
vn 0.000000 1.000000 0.000000
vn 0.000000 1.000000 0.000000
vn 0.999392 0.000000 -0.034872
vn 0.999392 0.000000 -0.034872
vn 0.999392 0.000000 -0.034872
vn 0.999392 0.000000 -0.034872
vn 0.000000 -1.000000 0.000000
vn 0.000000 -1.000000 0.000000
vn 0.000000 -1.000000 0.000000
vn 0.000000 -1.000000 0.000000
vn -0.999392 0.000000 0.034872
vn -0.999392 0.000000 0.034872
vn -0.999392 0.000000 0.034872
vn -0.999392 0.000000 0.034872
s 1
g deer3
usemtl initialShadingGroup
f 1/157/1 21/158/2 96/159/3 83/160/4
s 2
f 3/77/5 22/78/6 48/79/7 41/80/8
s 3
f 87/177/9 88/178/10 29/179/11 7/180/12
s off
f 59/91/13 60/92/14 61/93/15 62/94/16
s 4
f 2/1/17 45/2/18 93/3/19 94/4/20
s 5
f 83/27/21 84/28/22 42/29/23 1/30/24
f 7/41/25 49/39/26 86/38/27 87/42/28
s off
f 63/95/29 64/96/30 65/97/31 66/98/32
s 4
f 90/15/33 91/12/34 56/13/35 8/16/36
s 8
f 51/99/37 52/100/38 25/101/39 16/102/40
s 9
f 9/193/41 23/194/42 103/240/43 104/242/44
s 10
f 111/251/45 112/252/46 55/14/47 6/17/48
s 11
f 107/245/49 108/247/50 27/206/51 17/207/52
s 12
f 5/43/53 50/40/54 105/243/55 106/244/56
s 13
f 27/113/57 28/114/58 5/115/59 17/116/60
s 14
f 5/43/61 106/244/62 107/246/63 17/52/64
s 15
f 16/102/65 25/101/66 26/105/67 19/106/68
s 16
f 110/249/69 111/251/70 6/17/71 18/25/72
s 1
f 94/167/73 95/163/74 33/164/75 2/168/76
s 2
f 46/88/77 47/81/78 32/82/79 4/89/80
s 9
f 101/237/81 102/239/82 31/197/83 12/201/84
s 8
f 39/104/85 53/103/86 54/109/87 15/110/88
s 15
f 38/111/89 39/104/90 15/110/91 20/112/92
s 11
f 18/211/93 37/210/94 109/248/95 110/250/96
s 13
f 6/119/97 36/118/98 37/117/99 18/120/100
s 3
f 35/184/101 89/183/102 90/188/103 8/189/104
s off
f 67/121/105 68/122/106 69/123/107 70/124/108
f 71/125/109 72/126/110 73/127/111 74/128/112
s 2
f 47/81/78 48/79/7 22/78/6 32/82/79
s 1
f 95/163/74 96/159/3 21/158/2 33/164/75
s 21
f 21/129/113 43/130/114 44/131/115 33/132/116
f 57/138/117 58/137/118 29/142/119 35/143/120
s 3
f 29/179/11 88/178/10 89/183/102 35/184/101
s 13
f 37/117/99 36/118/98 28/114/58 27/113/57
s off
f 113/253/121 114/254/122 115/255/123 116/256/124
s 15
f 26/105/67 25/101/66 39/104/90 38/111/89
s 8
f 25/101/39 52/100/38 53/103/86 39/104/85
s 9
f 102/239/82 103/240/43 23/194/42 31/197/83
s 5
f 84/28/22 85/33/125 10/34/126 42/29/23
s 21
f 10/135/127 30/133/128 43/130/114 42/136/129
f 44/131/115 43/130/114 30/133/128 34/134/130
f 45/139/131 44/131/115 34/134/130 11/140/132
s 4
f 92/7/133 93/3/19 45/2/18 11/8/134
s 2
f 31/85/135 47/81/78 46/88/77 12/90/136
f 23/83/137 48/79/7 47/81/78 31/85/135
f 41/80/8 48/79/7 23/83/137 9/84/138
s 5
f 85/33/125 86/38/27 49/39/26 10/34/126
s 12
f 104/241/139 105/243/55 50/40/54 9/37/140
s off
f 76/145/141 75/146/142 77/147/143 78/148/144
s 8
f 53/103/86 52/100/38 24/107/145 40/108/146
s off
f 80/149/147 79/150/148 81/151/149 82/152/150
s 10
f 12/11/151 55/14/47 112/252/46 101/238/152
s 4
f 91/12/34 92/7/133 11/8/134 56/13/35
s 21
f 34/134/130 57/138/117 56/144/153 11/140/132
f 30/133/128 58/137/118 57/138/117 34/134/130
f 49/141/154 58/137/118 30/133/128 10/135/127
s off
f 42/213/155 43/214/156 60/215/157 59/216/158
f 43/53/159 21/54/160 61/55/161 60/56/162
f 21/158/163 1/157/164 62/161/165 61/162/166
f 1/30/167 42/29/168 59/35/169 62/36/170
f 7/180/171 29/179/172 64/185/173 63/186/174
f 29/57/175 58/58/176 65/59/177 64/60/178
f 58/217/179 49/218/180 66/219/181 65/220/182
f 49/39/183 7/41/184 63/46/185 66/47/186
f 56/221/187 57/222/188 68/223/189 67/224/190
f 57/61/191 35/62/192 69/63/193 68/64/194
f 35/184/195 8/189/196 70/191/197 69/192/198
f 8/16/199 56/13/200 67/20/201 70/21/202
f 33/65/203 44/66/204 72/67/205 71/68/206
f 44/225/207 45/226/208 73/227/209 72/228/210
f 45/2/211 2/1/212 74/5/213 73/6/214
f 2/168/215 33/164/216 71/173/217 74/174/218
f 14/196/219 24/195/220 75/199/221 76/200/222
f 24/69/223 52/70/224 77/71/225 75/72/226
f 52/229/227 51/230/228 78/231/229 77/232/230
f 51/44/231 14/45/232 76/49/233 78/50/234
f 54/233/235 53/234/236 79/235/237 80/236/238
f 53/73/239 40/74/240 81/75/241 79/76/242
f 40/198/243 13/202/244 82/203/245 81/204/246
f 13/19/247 54/18/248 80/23/249 82/24/250
s 5
f 41/31/251 84/28/22 83/27/21 3/32/252
f 9/37/253 85/33/125 84/28/22 41/31/251
f 50/40/254 86/38/27 85/33/125 9/37/253
f 87/42/28 86/38/27 50/40/254 5/43/255
s 3
f 5/181/256 28/182/257 88/178/10 87/177/9
f 89/183/102 88/178/10 28/182/257 36/187/258
f 90/188/103 89/183/102 36/187/258 6/190/259
s 4
f 55/14/260 91/12/34 90/15/33 6/17/261
f 12/11/262 92/7/133 91/12/34 55/14/260
f 46/9/263 93/3/19 92/7/133 12/11/262
f 94/4/20 93/3/19 46/9/263 4/10/264
s 1
f 32/171/265 95/163/74 94/167/73 4/172/266
s off
f 98/170/267 97/169/268 99/175/269 100/176/270
s 1
f 83/160/4 96/159/3 22/165/271 3/166/272
s off
f 22/165/273 96/159/274 97/169/275 98/170/276
f 96/153/277 95/154/278 99/155/279 97/156/280
f 95/163/281 32/171/282 100/176/283 99/175/284
f 32/82/285 22/78/286 98/86/287 100/87/288
s 9
f 40/198/289 102/239/82 101/237/81 13/202/290
f 24/195/291 103/240/43 102/239/82 40/198/289
f 104/242/44 103/240/43 24/195/291 14/196/292
s 12
f 51/44/293 105/243/55 104/241/139 14/45/294
f 106/244/56 105/243/55 51/44/293 16/48/295
s 14
f 107/246/63 106/244/62 16/48/296 19/51/297
s 11
f 26/205/298 108/247/50 107/245/49 19/208/299
f 38/209/300 109/248/95 108/247/50 26/205/298
f 110/250/96 109/248/95 38/209/300 20/212/301
s 16
f 15/22/302 111/251/70 110/249/69 20/26/303
s 10
f 54/18/304 112/252/46 111/251/45 15/22/305
f 101/238/152 112/252/46 54/18/304 13/19/306
s off
f 108/247/307 109/248/308 114/254/309 113/253/310
f 109/248/311 37/210/312 115/255/313 114/254/314
f 37/210/315 27/206/316 116/256/317 115/255/318
f 27/206/319 108/247/320 113/253/321 116/256/322
